<?xml version="1.0" encoding="UTF-8"?>
<svg id="_Слой_1" xmlns="http://www.w3.org/2000/svg" version="1.1" viewBox="0 0 1054.8 408.3">
  <!-- Generator: Adobe Illustrator 29.8.2, SVG Export Plug-In . SVG Version: 2.1.1 Build 3)  -->
  <defs>
    <style>
      .st0 {
        fill: #fff;
      }

      .st1 {
        fill: #b82b40;
      }
    </style>
  </defs>
  <path class="st1" d="M289.2,319.5s-45.1,0-59,5.4-17.2,11-30.2,19.7-14.9,2-15.4,0c-.5-2-7.4,4.1-11.3-.8s-.5-12.6,3.9-16.4,8.7-11-2.3-8c-11,3.1-10.2,4.9-13.8,7.4s-13.1,2.3-11-4.9,9-11.5,2.3-11.5-14.9,0-12.6-9.2,3.6-12.8,3.6-12.8c0,0-17.7,4.9-19.2-4.4-1.5-9.2-2.1-12.8-2.1-12.8,0,0-12.1,8.5-12.8-1.8s6.9-18.7,12.6-25.4c5.6-6.7,16.9-20.2,30.3-29.7s31.3-12.6,31.3-12.6c0,0-16.1-2.3-26.9,2.6s-22.1,12.6-28.5,12.8-13.3-6.1-6.4-13.8c6.9-7.7,16.4-12.1,15.4-16.7s-5.4-3.3-8.5-6.4-5.6-5.1-3.3-10.2c2.3-5.1,5.1-5.6,6.1-8.2,1-2.6,2.3-3.9-4.6-3.1s-12.3,1.3-12.8-4.1,6.7-10.8,10.5-15.4c3.9-4.6,5.9-5.6-2.8-2.3-8.7,3.3-22.6,3.9-18.5-5.4,4.1-9.2,9.5-13.1,23.3-21.3,13.8-8.2,37.9-8.2,50.8-8.7,12.8-.5,28.7-2.6,28.7-2.6,0,0-7.4-7.2-24.4-7.2s-35.6,5.4-45.6,6.2c-10,.8-8.7-9,2.1-18.2s31.5-16.2,52.3-15.9,50.8,3.8,70.8,14.9c20,11,32.6,20,49,27.2,16.4,7.2,26.1,16.4,40.5,22,14.4,5.6,20.5,8.5,12,10-8.5,1.5-23.3.3-33.3-1-10-1.3-20.8-3.1-17.4-2.1,3.3,1,19,5.9,21,11.3s0,9.7-8,6.1c-8-3.6-14.4-8.7-23.6-9.7-9.2-1-12,1.5-5.6,14.1,6.4,12.6,12.6,21.5,18.2,23.6,5.6,2.1,2.8,3.1,0,4.6s-3.9,3.6,1,6.7c4.9,3.1,19,9.2,16.7,10.8-2.3,1.5-5.4,3.6-12.3,1.8-6.9-1.8-9.2,0-9.2,0,0,0,5.6,3.1,13.8,7.2s7.7,10.8-5.1,8.5-22.8-3.9-22.6-3.1,11.5,3.3,11.8,10.5c.3,7.2-3.6,4.9-.5,10.8,3.1,5.9,7.4,6.7,5.6,12.1-1.8,5.4-4.1.3-4.9,9.2s.8,11.8-1.5,16.1,1.8,10-5.1,10.8-14.4,0-23.1,1.3c-8.7,1.3-8.2,2.6-5.9,3.9,2.3,1.3,8,1.5,4.6,4.6-3.3,3.1-3.1,2.3-12.8,4.1-9.7,1.8-12.8,5.1-5.4,5.9,7.4.8,15.9,2.8,22.6,5.4,6.7,2.6,15.9,8.1,7.7,8.2h0Z"/>
  <polygon class="st0" points="161.4 118.6 132.9 118.6 132.9 274.7 161.4 274.7 161.4 263.1 147.2 263.1 147.2 129.1 161.4 129.1 161.4 118.6"/>
  <polygon class="st0" points="272 118.6 300.5 118.6 300.5 274.7 272 274.7 272 263.1 286.3 263.1 286.3 129.1 272 129.1 272 118.6"/>
  <rect class="st0" x="205.8" y="274.7" width="21.9" height="44.6"/>
  <rect class="st0" x="205.8" y="94.4" width="21.9" height="161"/>
  <g>
    <path class="st0" d="M479.6,274.4h-33.8l-5.8-41.7h-15.1l-5.8,41.7h-33.8l25.5-155.5h43.3l25.6,155.5h0ZM437.2,211.1l-4.9-46.4-4.6,46.4h9.6,0Z"/>
    <path class="st0" d="M576.7,274.4h-36.4l-18.8-46.5v46.5h-32v-125.9h32v40.9c9.8-22.5,16.6-35.1,20.5-38,3.9-2.9,8.2-4.3,12.8-4.3s11.3.5,15.5,1.6v22.4c-4.1,0-7,1-8.6,3-1.6,2-6.6,12-14.9,30.1l30,70.1h0Z"/>
    <path class="st0" d="M689.7,296.7h-25.7v-22.2h-79v-125.9h34.4v105.9h10.2v-105.9h34.5v106.3h25.7v41.7h0Z"/>
    <path class="st0" d="M773.5,221.1h-41.4v29.4c0,4.3,1.8,6.4,5.3,6.4s5.2-2.1,5.2-6.4v-25.4h30.9v25.6c0,17-12.1,25.5-36.3,25.5s-36-8.9-36-26.6v-75.3c0-17.7,12-26.6,36-26.6s36.3,8.5,36.3,25.5v47.9h0ZM742.6,202.2v-28.8c0-4.1-1.7-6.2-5.2-6.2s-5.3,2.1-5.3,6.2v28.8h10.5Z"/>
    <path class="st0" d="M862.7,274.4h-34.3v-59.9h-9.1v59.9h-34.2v-125.9h34.2v47.1h9.1v-47.1h34.3v125.9Z"/>
    <path class="st0" d="M945.4,168.7h-19.1v105.7h-34.2v-105.7h-19.1v-20.2h72.3v20.2h0Z"/>
  </g>
</svg>