<?xml version="1.0" encoding="UTF-8"?>
<svg id="_Слой_1" data-name="Слой 1" xmlns="http://www.w3.org/2000/svg" viewBox="0 0 519.11 532.53">
  <defs>
    <style>
      .cls-1 {
        fill: #1d1d1b;
      }

      .cls-2 {
        fill: #fff;
      }
    </style>
  </defs>
  <path class="cls-1" d="M331.85,301.86s-45.12,0-58.96,5.38c-13.84,5.38-17.18,11.02-30.25,19.74-13.07,8.72-14.87,2.05-15.38,0-.51-2.05-7.43,4.1-11.28-.77-3.85-4.87-.51-12.56,3.85-16.41,4.36-3.85,8.72-11.02-2.31-7.95-11.02,3.08-10.25,4.87-13.84,7.43-3.59,2.56-13.07,2.31-11.02-4.87,2.05-7.18,8.97-11.54,2.31-11.54s-14.87,0-12.56-9.23c2.31-9.23,3.59-12.82,3.59-12.82,0,0-17.69,4.87-19.23-4.36-1.54-9.23-2.05-12.82-2.05-12.82,0,0-12.05,8.46-12.82-1.79-.77-10.25,6.92-18.71,12.56-25.38,5.64-6.67,16.92-20.25,30.25-29.74,13.33-9.49,31.28-12.56,31.28-12.56,0,0-16.15-2.31-26.92,2.56-10.77,4.87-22.05,12.56-28.46,12.82s-13.33-6.15-6.41-13.84c6.92-7.69,16.41-12.05,15.38-16.66-1.03-4.61-5.38-3.33-8.46-6.41-3.08-3.08-5.64-5.13-3.33-10.25,2.31-5.13,5.13-5.64,6.15-8.2,1.03-2.56,2.31-3.85-4.61-3.08-6.92.77-12.31,1.28-12.82-4.1-.51-5.38,6.67-10.77,10.51-15.38,3.85-4.61,5.9-5.64-2.82-2.31-8.72,3.33-22.56,3.85-18.46-5.38,4.1-9.23,9.49-13.07,23.33-21.28,13.84-8.2,37.94-8.2,50.76-8.72,12.82-.51,28.71-2.56,28.71-2.56,0,0-7.43-7.18-24.35-7.18s-35.63,5.38-45.63,6.15c-10,.77-8.72-8.97,2.05-18.2,10.77-9.23,31.53-16.15,52.3-15.89,20.77.26,50.76,3.85,70.76,14.87,20,11.02,32.56,20,48.97,27.17,16.41,7.18,26.15,16.41,40.51,22.05,14.36,5.64,20.51,8.46,12.05,10-8.46,1.54-23.33.26-33.33-1.03-10-1.28-20.77-3.08-17.43-2.05,3.33,1.03,18.97,5.9,21.02,11.28,2.05,5.38,0,9.74-7.95,6.15-7.95-3.59-14.36-8.72-23.59-9.74-9.23-1.03-12.05,1.54-5.64,14.1,6.41,12.56,12.56,21.53,18.2,23.59,5.64,2.05,2.82,3.08,0,4.61s-3.85,3.59,1.03,6.67c4.87,3.08,18.97,9.23,16.66,10.77-2.31,1.54-5.38,3.59-12.31,1.79-6.92-1.79-9.23,0-9.23,0,0,0,5.64,3.08,13.84,7.18,8.2,4.1,7.69,10.77-5.13,8.46-12.82-2.31-22.82-3.85-22.56-3.08.26.77,11.54,3.33,11.79,10.51.26,7.18-3.59,4.87-.51,10.77,3.08,5.9,7.43,6.67,5.64,12.05-1.79,5.38-4.1.26-4.87,9.23-.77,8.97.77,11.79-1.54,16.15-2.31,4.36,1.79,10-5.13,10.77-6.92.77-14.36,0-23.07,1.28-8.72,1.28-8.2,2.56-5.9,3.85,2.31,1.28,7.95,1.54,4.61,4.61-3.33,3.08-3.08,2.31-12.82,4.1-9.74,1.79-12.82,5.13-5.38,5.9,7.43.77,15.89,2.82,22.56,5.38,6.67,2.56,15.91,8.1,7.69,8.2Z"/>
  <polygon class="cls-2" points="204.09 101.04 175.55 101.04 175.55 257.08 204.09 257.08 204.09 245.46 189.82 245.46 189.82 111.47 204.09 111.47 204.09 101.04"/>
  <polygon class="cls-2" points="314.67 101.04 343.21 101.04 343.21 257.08 314.67 257.08 314.67 245.46 328.94 245.46 328.94 111.47 314.67 111.47 314.67 101.04"/>
  <rect class="cls-2" x="248.44" y="257.08" width="21.88" height="44.61"/>
  <rect class="cls-2" x="248.44" y="76.77" width="21.88" height="161"/>
  <g>
    <path class="cls-1" d="M136.68,466.64h-24.2l-4.12-29.85h-10.84l-4.17,29.85h-24.2l18.26-111.16h30.96l18.3,111.16ZM106.4,421.37l-3.51-33.18-3.33,33.18h6.84Z"/>
    <path class="cls-1" d="M206.14,466.64h-26.06l-13.48-33.26v33.26h-22.87v-90h22.87v29.22c6.99-16.07,11.88-25.12,14.67-27.16,2.79-2.04,5.83-3.06,9.14-3.06,4.39,0,8.08.39,11.07,1.16v16.05c-2.95,0-5,.71-6.16,2.13-1.16,1.42-4.72,8.59-10.66,21.51l21.47,50.16Z"/>
    <path class="cls-1" d="M286.91,482.53h-18.37v-15.89h-56.51v-90h24.57v75.74h7.29v-75.74h24.65v76.05h18.37v29.85Z"/>
    <path class="cls-1" d="M346.83,428.5h-29.61v21.01c0,3.05,1.27,4.57,3.8,4.57s3.72-1.52,3.72-4.57v-18.14h22.09v18.29c0,12.14-8.66,18.22-25.97,18.22s-25.74-6.33-25.74-18.99v-53.88c0-12.66,8.58-18.99,25.74-18.99s25.97,6.07,25.97,18.22v34.26ZM324.74,415.01v-20.62c0-2.95-1.24-4.42-3.72-4.42s-3.8,1.47-3.8,4.42v20.62h7.52Z"/>
    <path class="cls-1" d="M410.63,466.64h-24.5v-42.87h-6.51v42.87h-24.42v-90h24.42v33.64h6.51v-33.64h24.5v90Z"/>
    <path class="cls-1" d="M469.77,391.06h-13.64v75.58h-24.42v-75.58h-13.64v-14.42h51.71v14.42Z"/>
  </g>
</svg>