<?xml version="1.0" encoding="UTF-8"?>
<svg id="_Слой_1" data-name="Слой 1" xmlns="http://www.w3.org/2000/svg" viewBox="0 0 1054.78 408.28">
  <defs>
    <style>
      .cls-1 {
        fill: #1d1d1b;
      }

      .cls-2 {
        fill: #fff;
      }

      .cls-3 {
        fill: #12100b;
      }

      .cls-4 {
        fill: #b82b40;
      }
    </style>
  </defs>
  <path class="cls-4" d="M289.18,319.47s-45.12,0-58.96,5.38c-13.84,5.38-17.18,11.02-30.25,19.74-13.07,8.72-14.87,2.05-15.38,0-.51-2.05-7.43,4.1-11.28-.77-3.85-4.87-.51-12.56,3.85-16.41,4.36-3.85,8.72-11.02-2.31-7.95-11.02,3.08-10.25,4.87-13.84,7.43-3.59,2.56-13.07,2.31-11.02-4.87,2.05-7.18,8.97-11.54,2.31-11.54s-14.87,0-12.56-9.23c2.31-9.23,3.59-12.82,3.59-12.82,0,0-17.69,4.87-19.23-4.36-1.54-9.23-2.05-12.82-2.05-12.82,0,0-12.05,8.46-12.82-1.79-.77-10.25,6.92-18.71,12.56-25.38,5.64-6.67,16.92-20.25,30.25-29.74,13.33-9.49,31.28-12.56,31.28-12.56,0,0-16.15-2.31-26.92,2.56-10.77,4.87-22.05,12.56-28.46,12.82s-13.33-6.15-6.41-13.84c6.92-7.69,16.41-12.05,15.38-16.66-1.03-4.61-5.38-3.33-8.46-6.41-3.08-3.08-5.64-5.13-3.33-10.25,2.31-5.13,5.13-5.64,6.15-8.2,1.03-2.56,2.31-3.85-4.61-3.08-6.92.77-12.31,1.28-12.82-4.1-.51-5.38,6.67-10.77,10.51-15.38,3.85-4.61,5.9-5.64-2.82-2.31-8.72,3.33-22.56,3.85-18.46-5.38,4.1-9.23,9.49-13.07,23.33-21.28,13.84-8.2,37.94-8.2,50.76-8.72,12.82-.51,28.71-2.56,28.71-2.56,0,0-7.43-7.18-24.35-7.18s-35.63,5.38-45.63,6.15c-10,.77-8.72-8.97,2.05-18.2,10.77-9.23,31.53-16.15,52.3-15.89,20.77.26,50.76,3.85,70.76,14.87,20,11.02,32.56,20,48.97,27.17,16.41,7.18,26.15,16.41,40.51,22.05,14.36,5.64,20.51,8.46,12.05,10-8.46,1.54-23.33.26-33.33-1.03-10-1.28-20.77-3.08-17.43-2.05,3.33,1.03,18.97,5.9,21.02,11.28,2.05,5.38,0,9.74-7.95,6.15-7.95-3.59-14.36-8.72-23.59-9.74-9.23-1.03-12.05,1.54-5.64,14.1,6.41,12.56,12.56,21.53,18.2,23.59,5.64,2.05,2.82,3.08,0,4.61s-3.85,3.59,1.03,6.67c4.87,3.08,18.97,9.23,16.66,10.77-2.31,1.54-5.38,3.59-12.31,1.79-6.92-1.79-9.23,0-9.23,0,0,0,5.64,3.08,13.84,7.18,8.2,4.1,7.69,10.77-5.13,8.46-12.82-2.31-22.82-3.85-22.56-3.08.26.77,11.54,3.33,11.79,10.51.26,7.18-3.59,4.87-.51,10.77,3.08,5.9,7.43,6.67,5.64,12.05-1.79,5.38-4.1.26-4.87,9.23-.77,8.97.77,11.79-1.54,16.15-2.31,4.36,1.79,10-5.13,10.77-6.92.77-14.36,0-23.07,1.28-8.72,1.28-8.2,2.56-5.9,3.85,2.31,1.28,7.95,1.54,4.61,4.61-3.33,3.08-3.08,2.31-12.82,4.1-9.74,1.79-12.82,5.13-5.38,5.9,7.43.77,15.89,2.82,22.56,5.38,6.67,2.56,15.91,8.1,7.69,8.2Z"/>
  <polygon class="cls-2" points="161.43 118.65 132.89 118.65 132.89 274.69 161.43 274.69 161.43 263.07 147.16 263.07 147.16 129.08 161.43 129.08 161.43 118.65"/>
  <polygon class="cls-2" points="272 118.65 300.55 118.65 300.55 274.69 272 274.69 272 263.07 286.28 263.07 286.28 129.08 272 129.08 272 118.65"/>
  <rect class="cls-2" x="205.78" y="274.69" width="21.88" height="44.61"/>
  <rect class="cls-2" x="205.78" y="94.38" width="21.88" height="161"/>
  <g>
    <path class="cls-1" d="M479.61,235.65h-33.84l-5.76-41.74h-15.15l-5.83,41.74h-33.84l25.54-155.46h43.3l25.59,155.46ZM437.25,172.34l-4.91-46.4-4.65,46.4h9.57Z"/>
    <path class="cls-1" d="M576.74,235.65h-36.44l-18.85-46.51v46.51h-31.98v-125.86h31.98v40.86c9.78-22.47,16.62-35.13,20.51-37.99,3.9-2.85,8.16-4.28,12.78-4.28,6.13,0,11.3.54,15.49,1.63v22.44c-4.12,0-6.99.99-8.62,2.98-1.63,1.99-6.6,12.02-14.91,30.08l30.03,70.14Z"/>
    <path class="cls-1" d="M689.69,257.87h-25.69v-22.22h-79.03v-125.86h34.37v105.92h10.19v-105.92h34.47v106.35h25.69v41.74Z"/>
    <path class="cls-1" d="M773.49,182.31h-41.41v29.38c0,4.27,1.77,6.4,5.31,6.4s5.21-2.13,5.21-6.4v-25.37h30.9v25.58c0,16.98-12.11,25.48-36.32,25.48s-35.99-8.85-35.99-26.56v-75.34c0-17.71,12-26.56,35.99-26.56s36.32,8.49,36.32,25.48v47.92ZM742.59,163.45v-28.84c0-4.12-1.74-6.18-5.21-6.18s-5.31,2.06-5.31,6.18v28.84h10.52Z"/>
    <path class="cls-1" d="M862.71,235.65h-34.26v-59.95h-9.11v59.95h-34.15v-125.86h34.15v47.05h9.11v-47.05h34.26v125.86Z"/>
    <path class="cls-1" d="M945.42,129.95h-19.08v105.7h-34.15v-105.7h-19.08v-20.16h72.31v20.16Z"/>
  </g>
  <g>
    <path class="cls-3" d="M440.31,293.2l9.82,13.4h-3.78l-8.12-11.39-3.71,3.52v7.87h-2.96v-22.4h2.96v11.11l11.36-11.11h3.87l-9.44,9Z"/>
    <path class="cls-3" d="M472.49,295.22c0,6.58-3.62,11.92-10.73,11.92s-10.73-5.47-10.73-11.99c0-6.98,4.18-11.48,10.7-11.48,6.95,0,10.76,4.88,10.76,11.55ZM453.99,295.37c0,5.6,3.05,9.22,7.8,9.22s7.74-3.65,7.74-9.22-3.05-9.12-7.8-9.12c-5.29,0-7.74,4.34-7.74,9.12Z"/>
    <path class="cls-3" d="M480.64,284.2l7.21,18.97,6.95-18.97h4.12v22.4h-2.8v-18.69l-7.02,18.69h-2.58l-7.14-18.69v18.69h-2.83v-22.4h4.09Z"/>
    <path class="cls-3" d="M521.97,306.61h-2.96v-19.82h-11.83v19.82h-2.96v-22.4h17.75v22.4Z"/>
    <path class="cls-3" d="M547.46,295.22c0,6.58-3.62,11.92-10.73,11.92s-10.73-5.47-10.73-11.99c0-6.98,4.18-11.48,10.7-11.48,6.95,0,10.76,4.88,10.76,11.55ZM528.95,295.37c0,5.6,3.05,9.22,7.8,9.22s7.74-3.65,7.74-9.22-3.05-9.12-7.8-9.12c-5.29,0-7.74,4.34-7.74,9.12Z"/>
    <path class="cls-3" d="M569.22,306.61h-2.96v-10.48h-11.83v10.48h-2.96v-22.4h2.96v9.34h11.83v-9.34h2.96v22.4Z"/>
    <path class="cls-3" d="M590.02,286.78h-12.55v7.02h11.74v2.49h-11.74v7.74h12.71v2.58h-15.67v-22.4h15.51v2.58Z"/>
    <path class="cls-3" d="M611.79,306.61h-2.96v-10.48h-11.83v10.48h-2.96v-22.4h2.96v9.34h11.83v-9.34h2.96v22.4Z"/>
    <path class="cls-3" d="M632.61,286.78h-7.52v19.82h-2.96v-19.82h-7.52v-2.58h18v2.58Z"/>
    <path class="cls-3" d="M654.06,284.2c3.71,0,7.14,1.48,7.14,5.6,0,2.2-1.29,4.09-3.3,4.81,2.77.63,4.31,2.71,4.31,5.66,0,5.16-4.22,6.32-8.5,6.32h-9.22v-22.4h9.57ZM647.39,293.8h5.32c2.52,0,5.54-.19,5.54-3.56s-2.61-3.52-5.25-3.52h-5.6v7.08ZM647.39,304.12h5.92c2.99,0,5.92-.19,5.92-4.12s-3.43-3.87-6.42-3.87h-5.41v7.99Z"/>
    <path class="cls-3" d="M683.26,306.61h-3.3l-2.49-6.86h-9.41l-2.55,6.86h-3.15l8.81-22.4h3.34l8.75,22.4ZM672.78,287.03l-3.87,10.35h7.68l-3.81-10.35Z"/>
    <path class="cls-3" d="M684.55,284.2h2.96v19.82h9.94v-19.82h2.96v19.82h9.94v-19.82h2.96v22.4h-28.76v-22.4Z"/>
    <path class="cls-3" d="M732.87,286.78h-12.55v7.02h11.74v2.49h-11.74v7.74h12.71v2.58h-15.67v-22.4h15.51v2.58Z"/>
    <path class="cls-3" d="M735.63,306.61v-22.4h14.73v2.58h-11.77v19.82h-2.96Z"/>
    <path class="cls-3" d="M772.1,295.22c0,6.58-3.62,11.92-10.73,11.92s-10.73-5.47-10.73-11.99c0-6.98,4.18-11.48,10.7-11.48,6.95,0,10.76,4.88,10.76,11.55ZM753.6,295.37c0,5.6,3.05,9.22,7.8,9.22s7.74-3.65,7.74-9.22-3.05-9.12-7.8-9.12c-5.29,0-7.74,4.34-7.74,9.12Z"/>
    <path class="cls-3" d="M782.98,284.2h3.24l6.54,13.65,6.42-13.65h3.18l-8.72,17.84c-1.89,3.84-3.74,5.1-5.95,5.1-1.01,0-2.14-.28-2.77-.57v-2.52c.41.25,1.13.57,2.52.57,1.57,0,2.58-1.51,3.33-3.08l.38-.79-8.18-16.55Z"/>
    <path class="cls-3" d="M814.06,307.14c-6.39,0-10.38-4.53-10.38-11.7,0-6.42,3.71-11.74,10.6-11.74,4.41,0,8.84,2.45,9.28,7.24h-2.96c-.66-2.93-3.05-4.69-6.39-4.69-5.32,0-7.55,4.44-7.55,9.16,0,5.69,2.86,9.19,7.52,9.19,3.81,0,6.13-2.27,6.61-6.45h2.96c-.5,5.69-4.15,9-9.69,9Z"/>
    <path class="cls-3" d="M845.87,306.61h-2.96v-19.82h-11.83v19.82h-2.96v-22.4h17.75v22.4Z"/>
    <path class="cls-3" d="M866.97,286.78h-12.55v7.02h11.74v2.49h-11.74v7.74h12.71v2.58h-15.67v-22.4h15.51v2.58Z"/>
    <path class="cls-3" d="M880.09,295.06l7.87,11.55h-3.59l-6.04-9.22-6.26,9.22h-3.4l7.9-11.55-7.39-10.85h3.56l5.63,8.62,5.82-8.62h3.37l-7.46,10.85Z"/>
    <path class="cls-3" d="M909.32,306.61h-3.3l-2.49-6.86h-9.41l-2.55,6.86h-3.15l8.81-22.4h3.33l8.75,22.4ZM898.84,287.03l-3.87,10.35h7.68l-3.81-10.35Z"/>
  </g>
  <path class="cls-3" d="M401.86,271.7h-6.93v49.74h6.93v4.36h-12.13v-58.47h12.13v4.36Z"/>
  <path class="cls-3" d="M928.68,267.34h12.13v58.47h-12.13v-4.36h6.93v-49.74h-6.93v-4.36Z"/>
</svg>