<?xml version="1.0" encoding="UTF-8"?>
<svg id="_Слой_1" data-name="Слой 1" xmlns="http://www.w3.org/2000/svg" viewBox="0 0 1054.78 408.28">
  <defs>
    <style>
      .cls-1 {
        fill: #1d1d1b;
      }

      .cls-2 {
        fill: #fff;
      }

      .cls-3 {
        fill: #b82b40;
      }
    </style>
  </defs>
  <path class="cls-3" d="M289.18,319.47s-45.12,0-58.96,5.38c-13.84,5.38-17.18,11.02-30.25,19.74-13.07,8.72-14.87,2.05-15.38,0-.51-2.05-7.43,4.1-11.28-.77-3.85-4.87-.51-12.56,3.85-16.41,4.36-3.85,8.72-11.02-2.31-7.95-11.02,3.08-10.25,4.87-13.84,7.43-3.59,2.56-13.07,2.31-11.02-4.87,2.05-7.18,8.97-11.54,2.31-11.54s-14.87,0-12.56-9.23c2.31-9.23,3.59-12.82,3.59-12.82,0,0-17.69,4.87-19.23-4.36-1.54-9.23-2.05-12.82-2.05-12.82,0,0-12.05,8.46-12.82-1.79-.77-10.25,6.92-18.71,12.56-25.38,5.64-6.67,16.92-20.25,30.25-29.74,13.33-9.49,31.28-12.56,31.28-12.56,0,0-16.15-2.31-26.92,2.56-10.77,4.87-22.05,12.56-28.46,12.82s-13.33-6.15-6.41-13.84c6.92-7.69,16.41-12.05,15.38-16.66-1.03-4.61-5.38-3.33-8.46-6.41-3.08-3.08-5.64-5.13-3.33-10.25,2.31-5.13,5.13-5.64,6.15-8.2,1.03-2.56,2.31-3.85-4.61-3.08-6.92.77-12.31,1.28-12.82-4.1-.51-5.38,6.67-10.77,10.51-15.38,3.85-4.61,5.9-5.64-2.82-2.31-8.72,3.33-22.56,3.85-18.46-5.38,4.1-9.23,9.49-13.07,23.33-21.28,13.84-8.2,37.94-8.2,50.76-8.72,12.82-.51,28.71-2.56,28.71-2.56,0,0-7.43-7.18-24.35-7.18s-35.63,5.38-45.63,6.15c-10,.77-8.72-8.97,2.05-18.2,10.77-9.23,31.53-16.15,52.3-15.89,20.77.26,50.76,3.85,70.76,14.87,20,11.02,32.56,20,48.97,27.17,16.41,7.18,26.15,16.41,40.51,22.05,14.36,5.64,20.51,8.46,12.05,10-8.46,1.54-23.33.26-33.33-1.03-10-1.28-20.77-3.08-17.43-2.05,3.33,1.03,18.97,5.9,21.02,11.28,2.05,5.38,0,9.74-7.95,6.15-7.95-3.59-14.36-8.72-23.59-9.74-9.23-1.03-12.05,1.54-5.64,14.1,6.41,12.56,12.56,21.53,18.2,23.59,5.64,2.05,2.82,3.08,0,4.61s-3.85,3.59,1.03,6.67c4.87,3.08,18.97,9.23,16.66,10.77-2.31,1.54-5.38,3.59-12.31,1.79-6.92-1.79-9.23,0-9.23,0,0,0,5.64,3.08,13.84,7.18,8.2,4.1,7.69,10.77-5.13,8.46-12.82-2.31-22.82-3.85-22.56-3.08.26.77,11.54,3.33,11.79,10.51.26,7.18-3.59,4.87-.51,10.77,3.08,5.9,7.43,6.67,5.64,12.05-1.79,5.38-4.1.26-4.87,9.23-.77,8.97.77,11.79-1.54,16.15-2.31,4.36,1.79,10-5.13,10.77-6.92.77-14.36,0-23.07,1.28-8.72,1.28-8.2,2.56-5.9,3.85,2.31,1.28,7.95,1.54,4.61,4.61-3.33,3.08-3.08,2.31-12.82,4.1-9.74,1.79-12.82,5.13-5.38,5.9,7.43.77,15.89,2.82,22.56,5.38,6.67,2.56,15.91,8.1,7.69,8.2Z"/>
  <polygon class="cls-2" points="161.43 118.65 132.89 118.65 132.89 274.69 161.43 274.69 161.43 263.07 147.16 263.07 147.16 129.08 161.43 129.08 161.43 118.65"/>
  <polygon class="cls-2" points="272 118.65 300.55 118.65 300.55 274.69 272 274.69 272 263.07 286.28 263.07 286.28 129.08 272 129.08 272 118.65"/>
  <rect class="cls-2" x="205.78" y="274.69" width="21.88" height="44.61"/>
  <rect class="cls-2" x="205.78" y="94.38" width="21.88" height="161"/>
  <g>
    <path class="cls-1" d="M479.61,274.44h-33.84l-5.76-41.74h-15.15l-5.83,41.74h-33.84l25.54-155.46h43.3l25.59,155.46ZM437.25,211.13l-4.91-46.4-4.65,46.4h9.57Z"/>
    <path class="cls-1" d="M576.74,274.44h-36.44l-18.85-46.51v46.51h-31.98v-125.86h31.98v40.86c9.78-22.47,16.62-35.13,20.51-37.99,3.9-2.85,8.16-4.28,12.78-4.28,6.13,0,11.3.54,15.49,1.63v22.44c-4.12,0-6.99.99-8.62,2.98-1.63,1.99-6.6,12.02-14.91,30.08l30.03,70.14Z"/>
    <path class="cls-1" d="M689.69,296.66h-25.69v-22.22h-79.03v-125.86h34.37v105.92h10.19v-105.92h34.47v106.35h25.69v41.74Z"/>
    <path class="cls-1" d="M773.49,221.1h-41.41v29.38c0,4.27,1.77,6.4,5.31,6.4s5.21-2.13,5.21-6.4v-25.37h30.9v25.58c0,16.98-12.11,25.48-36.32,25.48s-35.99-8.85-35.99-26.56v-75.34c0-17.71,12-26.56,35.99-26.56s36.32,8.49,36.32,25.48v47.92ZM742.59,202.24v-28.84c0-4.12-1.74-6.18-5.21-6.18s-5.31,2.06-5.31,6.18v28.84h10.52Z"/>
    <path class="cls-1" d="M862.71,274.44h-34.26v-59.95h-9.11v59.95h-34.15v-125.86h34.15v47.05h9.11v-47.05h34.26v125.86Z"/>
    <path class="cls-1" d="M945.42,168.74h-19.08v105.7h-34.15v-105.7h-19.08v-20.16h72.31v20.16Z"/>
  </g>
</svg>