<?xml version="1.0" encoding="UTF-8"?>
<svg id="_Слой_1" data-name="Слой 1" xmlns="http://www.w3.org/2000/svg" viewBox="0 0 595.28 660.17">
  <defs>
    <style>
      .cls-1 {
        fill: #fff;
      }

      .cls-2 {
        fill: #b72b41;
      }
    </style>
  </defs>
  <path class="cls-2" d="M396.05,502.53s-68.82,0-89.94,8.21c-21.12,8.21-26.2,16.81-46.14,30.11-19.94,13.3-22.68,3.13-23.46,0-.78-3.13-11.34,6.26-17.21-1.17-5.87-7.43-.78-19.16,5.87-25.03,6.65-5.87,13.3-16.81-3.52-12.12-16.81,4.69-15.64,7.43-21.12,11.34-5.47,3.91-19.94,3.52-16.81-7.43,3.13-10.95,13.69-17.6,3.52-17.6s-22.68,0-19.16-14.08c3.52-14.08,5.47-19.55,5.47-19.55,0,0-26.98,7.43-29.33-6.65-2.35-14.08-3.13-19.55-3.13-19.55,0,0-18.38,12.9-19.55-2.74-1.17-15.64,10.56-28.55,19.16-38.71,8.6-10.17,25.81-30.89,46.14-45.36,20.33-14.47,47.71-19.16,47.71-19.16,0,0-24.64-3.52-41.06,3.91-16.42,7.43-33.63,19.16-43.4,19.55-9.78.39-20.33-9.38-9.78-21.12,10.56-11.73,25.03-18.38,23.46-25.42-1.56-7.04-8.21-5.08-12.9-9.78-4.69-4.69-8.6-7.82-5.08-15.64,3.52-7.82,7.82-8.6,9.38-12.51,1.56-3.91,3.52-5.87-7.04-4.69-10.56,1.17-18.77,1.96-19.55-6.26-.78-8.21,10.17-16.42,16.03-23.46,5.87-7.04,8.99-8.6-4.3-3.52-13.3,5.08-34.41,5.87-28.15-8.21,6.26-14.08,14.47-19.94,35.58-32.46,21.12-12.51,57.87-12.51,77.42-13.3,19.55-.78,43.8-3.91,43.8-3.91,0,0-11.34-10.95-37.15-10.95s-54.35,8.21-69.6,9.38c-15.25,1.17-13.3-13.69,3.13-27.76,16.42-14.08,48.1-24.64,79.77-24.24,31.67.39,77.42,5.87,107.93,22.68,30.5,16.81,49.66,30.5,74.69,41.45,25.03,10.95,39.89,25.03,61.78,33.63,21.9,8.6,31.28,12.9,18.38,15.25-12.9,2.35-35.58.39-50.83-1.56s-31.67-4.69-26.59-3.13c5.08,1.56,28.94,8.99,32.06,17.21,3.13,8.21,0,14.86-12.12,9.38-12.12-5.47-21.9-13.3-35.98-14.86-14.08-1.56-18.38,2.35-8.6,21.51,9.78,19.16,19.16,32.85,27.76,35.98,8.6,3.13,4.3,4.69,0,7.04-4.3,2.35-5.87,5.47,1.56,10.17s28.94,14.08,25.42,16.42c-3.52,2.35-8.21,5.47-18.77,2.74-10.56-2.74-14.08,0-14.08,0,0,0,8.6,4.69,21.12,10.95,12.51,6.26,11.73,16.42-7.82,12.9-19.55-3.52-34.8-5.87-34.41-4.69s17.6,5.08,17.99,16.03c.39,10.95-5.47,7.43-.78,16.42,4.69,8.99,11.34,10.17,8.6,18.38-2.74,8.21-6.26.39-7.43,14.08-1.17,13.69,1.17,17.99-2.35,24.64-3.52,6.65,2.74,15.25-7.82,16.42-10.56,1.17-21.9,0-35.19,1.96-13.3,1.96-12.51,3.91-8.99,5.87,3.52,1.96,12.12,2.35,7.04,7.04-5.08,4.69-4.69,3.52-19.55,6.26-14.86,2.74-19.55,7.82-8.21,8.99,11.34,1.17,24.24,4.3,34.41,8.21,10.17,3.91,24.26,12.36,11.73,12.51Z"/>
  <g>
    <polygon class="cls-1" points="207.7 196.21 170.69 196.21 170.69 434.22 207.7 434.22 207.7 416.5 185.93 416.5 185.93 212.12 207.7 212.12 207.7 196.21"/>
    <polygon class="cls-1" points="363.33 196.21 400.34 196.21 400.34 434.22 363.33 434.22 363.33 416.5 385.09 416.5 385.09 212.12 363.33 212.12 363.33 196.21"/>
    <g>
      <rect class="cls-1" x="268.83" y="434.22" width="33.37" height="68.04"/>
      <rect class="cls-1" x="268.83" y="159.2" width="33.37" height="245.57"/>
    </g>
  </g>
</svg>