<?xml version="1.0" encoding="UTF-8"?>
<svg id="_Слой_1" data-name="Слой 1" xmlns="http://www.w3.org/2000/svg" viewBox="0 0 595.28 618.5">
  <defs>
    <style>
      .cls-1 {
        fill: #1d1d1b;
      }

      .cls-2 {
        fill: #fff;
      }

      .cls-3 {
        fill: #12100b;
      }
    </style>
  </defs>
  <path class="cls-1" d="M352.49,319.47s-45.12,0-58.96,5.38c-13.84,5.38-17.18,11.02-30.25,19.74-13.07,8.72-14.87,2.05-15.38,0-.51-2.05-7.43,4.1-11.28-.77-3.85-4.87-.51-12.56,3.85-16.41,4.36-3.85,8.72-11.02-2.31-7.95-11.02,3.08-10.25,4.87-13.84,7.43-3.59,2.56-13.07,2.31-11.02-4.87,2.05-7.18,8.97-11.54,2.31-11.54s-14.87,0-12.56-9.23c2.31-9.23,3.59-12.82,3.59-12.82,0,0-17.69,4.87-19.23-4.36-1.54-9.23-2.05-12.82-2.05-12.82,0,0-12.05,8.46-12.82-1.79-.77-10.25,6.92-18.71,12.56-25.38,5.64-6.67,16.92-20.25,30.25-29.74,13.33-9.49,31.28-12.56,31.28-12.56,0,0-16.15-2.31-26.92,2.56-10.77,4.87-22.05,12.56-28.46,12.82s-13.33-6.15-6.41-13.84c6.92-7.69,16.41-12.05,15.38-16.66-1.03-4.61-5.38-3.33-8.46-6.41-3.08-3.08-5.64-5.13-3.33-10.25,2.31-5.13,5.13-5.64,6.15-8.2,1.03-2.56,2.31-3.85-4.61-3.08-6.92.77-12.31,1.28-12.82-4.1-.51-5.38,6.67-10.77,10.51-15.38,3.85-4.61,5.9-5.64-2.82-2.31-8.72,3.33-22.56,3.85-18.46-5.38,4.1-9.23,9.49-13.07,23.33-21.28,13.84-8.2,37.94-8.2,50.76-8.72,12.82-.51,28.71-2.56,28.71-2.56,0,0-7.43-7.18-24.35-7.18s-35.63,5.38-45.63,6.15c-10,.77-8.72-8.97,2.05-18.2,10.77-9.23,31.53-16.15,52.3-15.89,20.77.26,50.76,3.85,70.76,14.87,20,11.02,32.56,20,48.97,27.17,16.41,7.18,26.15,16.41,40.51,22.05,14.36,5.64,20.51,8.46,12.05,10-8.46,1.54-23.33.26-33.33-1.03-10-1.28-20.77-3.08-17.43-2.05,3.33,1.03,18.97,5.9,21.02,11.28,2.05,5.38,0,9.74-7.95,6.15-7.95-3.59-14.36-8.72-23.59-9.74-9.23-1.03-12.05,1.54-5.64,14.1,6.41,12.56,12.56,21.53,18.2,23.59,5.64,2.05,2.82,3.08,0,4.61s-3.85,3.59,1.03,6.67c4.87,3.08,18.97,9.23,16.66,10.77-2.31,1.54-5.38,3.59-12.31,1.79-6.92-1.79-9.23,0-9.23,0,0,0,5.64,3.08,13.84,7.18,8.2,4.1,7.69,10.77-5.13,8.46-12.82-2.31-22.82-3.85-22.56-3.08.26.77,11.54,3.33,11.79,10.51.26,7.18-3.59,4.87-.51,10.77,3.08,5.9,7.43,6.67,5.64,12.05-1.79,5.38-4.1.26-4.87,9.23-.77,8.97.77,11.79-1.54,16.15-2.31,4.36,1.79,10-5.13,10.77-6.92.77-14.36,0-23.07,1.28-8.72,1.28-8.2,2.56-5.9,3.85,2.31,1.28,7.95,1.54,4.61,4.61-3.33,3.08-3.08,2.31-12.82,4.1-9.74,1.79-12.82,5.13-5.38,5.9,7.43.77,15.89,2.82,22.56,5.38,6.67,2.56,15.91,8.1,7.69,8.2Z"/>
  <polygon class="cls-2" points="224.73 118.65 196.19 118.65 196.19 274.69 224.73 274.69 224.73 263.07 210.46 263.07 210.46 129.08 224.73 129.08 224.73 118.65"/>
  <polygon class="cls-2" points="335.31 118.65 363.85 118.65 363.85 274.69 335.31 274.69 335.31 263.07 349.58 263.07 349.58 129.08 335.31 129.08 335.31 118.65"/>
  <rect class="cls-2" x="269.08" y="274.69" width="21.88" height="44.61"/>
  <rect class="cls-2" x="269.08" y="94.38" width="21.88" height="161"/>
  <g>
    <path class="cls-1" d="M157.32,484.25h-24.2l-4.12-29.85h-10.84l-4.17,29.85h-24.2l18.26-111.16h30.96l18.3,111.16ZM127.04,438.98l-3.51-33.18-3.33,33.18h6.84Z"/>
    <path class="cls-1" d="M226.78,484.25h-26.06l-13.48-33.26v33.26h-22.87v-90h22.87v29.22c6.99-16.07,11.88-25.12,14.67-27.16,2.79-2.04,5.83-3.06,9.14-3.06,4.39,0,8.08.39,11.07,1.16v16.05c-2.95,0-5,.71-6.16,2.13-1.16,1.42-4.72,8.59-10.66,21.51l21.47,50.16Z"/>
    <path class="cls-1" d="M307.55,500.14h-18.37v-15.89h-56.51v-90h24.57v75.74h7.29v-75.74h24.65v76.05h18.37v29.85Z"/>
    <path class="cls-1" d="M367.47,446.11h-29.61v21.01c0,3.05,1.27,4.57,3.8,4.57s3.72-1.52,3.72-4.57v-18.14h22.09v18.29c0,12.14-8.66,18.22-25.97,18.22s-25.74-6.33-25.74-18.99v-53.88c0-12.66,8.58-18.99,25.74-18.99s25.97,6.07,25.97,18.22v34.26ZM345.38,432.62v-20.62c0-2.95-1.24-4.42-3.72-4.42s-3.8,1.47-3.8,4.42v20.62h7.52Z"/>
    <path class="cls-1" d="M431.27,484.25h-24.5v-42.87h-6.51v42.87h-24.42v-90h24.42v33.64h6.51v-33.64h24.5v90Z"/>
    <path class="cls-1" d="M490.41,408.67h-13.64v75.58h-24.42v-75.58h-13.64v-14.42h51.71v14.42Z"/>
  </g>
  <g>
    <path class="cls-3" d="M126.01,535.01l7.23,9.87h-2.78l-5.98-8.39-2.73,2.6v5.79h-2.18v-16.5h2.18v8.18l8.37-8.18h2.85l-6.95,6.63Z"/>
    <path class="cls-3" d="M149.72,536.5c0,4.84-2.67,8.78-7.9,8.78s-7.9-4.03-7.9-8.83c0-5.15,3.08-8.46,7.88-8.46,5.12,0,7.93,3.59,7.93,8.51ZM136.09,536.61c0,4.13,2.25,6.79,5.75,6.79s5.7-2.69,5.7-6.79-2.25-6.72-5.75-6.72c-3.89,0-5.7,3.2-5.7,6.72Z"/>
    <path class="cls-3" d="M155.72,528.38l5.31,13.98,5.12-13.98h3.04v16.5h-2.06v-13.77l-5.17,13.77h-1.9l-5.26-13.77v13.77h-2.09v-16.5h3.01Z"/>
    <path class="cls-3" d="M186.18,544.89h-2.18v-14.6h-8.71v14.6h-2.18v-16.5h13.07v16.5Z"/>
    <path class="cls-3" d="M204.96,536.5c0,4.84-2.67,8.78-7.9,8.78s-7.9-4.03-7.9-8.83c0-5.15,3.08-8.46,7.88-8.46,5.12,0,7.93,3.59,7.93,8.51ZM191.33,536.61c0,4.13,2.25,6.79,5.75,6.79s5.7-2.69,5.7-6.79-2.25-6.72-5.75-6.72c-3.89,0-5.7,3.2-5.7,6.72Z"/>
    <path class="cls-3" d="M221,544.89h-2.18v-7.72h-8.71v7.72h-2.18v-16.5h2.18v6.88h8.71v-6.88h2.18v16.5Z"/>
    <path class="cls-3" d="M236.32,530.28h-9.25v5.17h8.65v1.83h-8.65v5.7h9.36v1.9h-11.54v-16.5h11.43v1.9Z"/>
    <path class="cls-3" d="M252.36,544.89h-2.18v-7.72h-8.71v7.72h-2.18v-16.5h2.18v6.88h8.71v-6.88h2.18v16.5Z"/>
    <path class="cls-3" d="M267.71,530.28h-5.54v14.6h-2.18v-14.6h-5.54v-1.9h13.26v1.9Z"/>
    <path class="cls-3" d="M283.51,528.38c2.74,0,5.26,1.09,5.26,4.13,0,1.62-.95,3.01-2.43,3.55,2.04.46,3.17,1.99,3.17,4.17,0,3.8-3.11,4.66-6.26,4.66h-6.79v-16.5h7.05ZM278.6,535.45h3.92c1.85,0,4.08-.14,4.08-2.62s-1.92-2.6-3.87-2.6h-4.13v5.21ZM278.6,543.06h4.36c2.2,0,4.36-.14,4.36-3.04s-2.53-2.85-4.73-2.85h-3.99v5.89Z"/>
    <path class="cls-3" d="M305.02,544.89h-2.43l-1.83-5.05h-6.93l-1.88,5.05h-2.32l6.49-16.5h2.46l6.44,16.5ZM297.31,530.47l-2.85,7.63h5.66l-2.8-7.63Z"/>
    <path class="cls-3" d="M305.98,528.38h2.18v14.6h7.32v-14.6h2.18v14.6h7.32v-14.6h2.18v16.5h-21.18v-16.5Z"/>
    <path class="cls-3" d="M341.58,530.28h-9.25v5.17h8.65v1.83h-8.65v5.7h9.36v1.9h-11.54v-16.5h11.43v1.9Z"/>
    <path class="cls-3" d="M343.62,544.89v-16.5h10.85v1.9h-8.67v14.6h-2.18Z"/>
    <path class="cls-3" d="M370.48,536.5c0,4.84-2.67,8.78-7.9,8.78s-7.9-4.03-7.9-8.83c0-5.15,3.08-8.46,7.88-8.46,5.12,0,7.93,3.59,7.93,8.51ZM356.86,536.61c0,4.13,2.25,6.79,5.75,6.79s5.7-2.69,5.7-6.79-2.25-6.72-5.75-6.72c-3.89,0-5.7,3.2-5.7,6.72Z"/>
    <path class="cls-3" d="M378.51,528.38h2.39l4.82,10.06,4.73-10.06h2.34l-6.42,13.14c-1.39,2.83-2.76,3.75-4.38,3.75-.74,0-1.58-.21-2.04-.42v-1.85c.3.18.83.42,1.85.42,1.16,0,1.9-1.11,2.46-2.27l.28-.58-6.03-12.19Z"/>
    <path class="cls-3" d="M401.41,545.28c-4.71,0-7.65-3.34-7.65-8.62,0-4.73,2.74-8.65,7.81-8.65,3.25,0,6.51,1.81,6.84,5.33h-2.18c-.49-2.16-2.25-3.45-4.71-3.45-3.92,0-5.56,3.27-5.56,6.75,0,4.19,2.11,6.77,5.54,6.77,2.8,0,4.52-1.67,4.87-4.75h2.18c-.37,4.2-3.06,6.63-7.14,6.63Z"/>
    <path class="cls-3" d="M424.84,544.89h-2.18v-14.6h-8.71v14.6h-2.18v-16.5h13.07v16.5Z"/>
    <path class="cls-3" d="M440.4,530.28h-9.25v5.17h8.65v1.83h-8.65v5.7h9.36v1.9h-11.54v-16.5h11.43v1.9Z"/>
    <path class="cls-3" d="M450.06,536.38l5.79,8.51h-2.64l-4.45-6.79-4.61,6.79h-2.5l5.82-8.51-5.45-8h2.62l4.15,6.35,4.29-6.35h2.48l-5.49,8Z"/>
    <path class="cls-3" d="M471.6,544.89h-2.43l-1.83-5.05h-6.93l-1.88,5.05h-2.32l6.49-16.5h2.46l6.44,16.5ZM463.88,530.47l-2.85,7.63h5.66l-2.8-7.63Z"/>
  </g>
  <path class="cls-3" d="M97.68,519.16h-5.11v36.66h5.11v3.22h-8.94v-43.09h8.94v3.22Z"/>
  <path class="cls-3" d="M485.86,515.95h8.94v43.09h-8.94v-3.22h5.11v-36.66h-5.11v-3.22Z"/>
</svg>