<?xml version="1.0" encoding="UTF-8"?>
<svg id="_Слой_1" data-name="Слой 1" xmlns="http://www.w3.org/2000/svg" viewBox="0 0 512.74 105.93">
  <defs>
    <style>
      .cls-1 {
        fill: #0053a3;
      }
    </style>
  </defs>
  <path class="cls-1" d="M320.17,0v32.29s10.28-7.16,10.28-7.16c10.38-4.05,21.75-.8,27,9.28.51.98,2.76,5.93,2.76,6.28v47.15h-15.5v-43.28c0-.31-2.55-5.41-2.77-5.63-.19-.18-4.24-2.54-4.49-2.62-5.28-1.62-11.73,1.18-14.75,5.61-.56.83-2.53,4.93-2.53,5.22v40.69h-15.5c.56-26.86-.75-53.87,0-80.74.07-2.58-.42-4.83,1.29-7.11h14.21Z"/>
  <path class="cls-1" d="M384.76,0c-.78,4.63,2.39,14.79-3.19,15.54-3.76.51-8.41-.44-12.31-.04V0h15.5Z"/>
  <path class="cls-1" d="M237.49,47.8c4.03-22.45,31.74-31.85,49.77-18.11,1.8,1.37,11.53,11.19,9.66,12.95-4.27.02-9.68,4.95-13.51,3.82-1.79-.53-1.63-3.01-2.21-3.6-.18-.18-3.8-2.27-4.49-2.63-6.91-3.53-12.75-3.75-19.23,1.08-11.06,8.26-8.79,26.08,4.15,30.79,5.4,1.97,10.08,1.74,15.09-1.22,2.74-1.62,5.1-6.14,7.9-6.36l12.28,3.95c.76.69-2.5,5.44-3.26,6.42-14.55,18.72-42.57,16.44-53.83-4.24l-2.98-7.35c-4.07,6.76-6.85,13.92-13.59,18.71-25.39,18.07-59.72-8.15-48.46-38.12,10.12-26.93,45.44-27.13,59.09-2.18,1.16,2.13.74,5.43,3.6,6.09ZM222.3,55.53c0-9.75-7.91-17.66-17.66-17.66s-17.66,7.91-17.66,17.66,7.91,17.66,17.66,17.66,17.66-7.91,17.66-17.66Z"/>
  <path class="cls-1" d="M153.52,1.29v24.54l14.21.67v10.96s-14.21,0-14.21,0v34.23c0,.86,4.66,4.05,5.99,4.34,3.63.79,5.44-.88,8.78-1.06l8.48,10.28c-8.15,2.05-17.84,3.82-26.25,2.36-1.33-.23-7.66-3.08-8.43-3.84-.4-.39-3.65-8.61-3.84-9.73l-.17-67.54,15.45-5.22Z"/>
  <rect class="cls-1" x="369.26" y="23.25" width="14.21" height="64.59"/>
  <g>
    <path class="cls-1" d="M511.35,41.34l-13.45-.11c-3.09-4.31-5.83-7.74-11.74-7.74-6.59,0-13.1,5.87-7.13,11.1,4.52,3.96,18.85,4.08,25.84,9.04,13.24,9.39,8.78,28.24-5.99,32.72-1.22.37-6.21,1.36-7.55,1.49-14.57,1.44-28.29-4.08-31.65-19.38l15.42.08c.31,2.8,4.61,7.35,7.15,7.71,7.68,1.06,17.75.66,14.76-9.59-1.47-5.05-19.41-7.33-24.82-10.06-4.99-2.51-9.19-6.27-9.93-12.03-3.51-27.56,46.11-28.94,49.09-3.24Z"/>
    <path class="cls-1" d="M392.51,23.25h14.21s0,5.17,0,5.17c14.86-9.44,33.39-5.4,43.95,8.37,9.91,12.91,6.08,34.12-6.52,43.92-7.7,5.99-19.53,8.48-28.83,5.65-2.84-.86-5.42-3.7-8.6-3.68v23.25h-14.21V23.25ZM442.02,55.29c0-9.75-7.9-17.65-17.65-17.65s-17.65,7.9-17.65,17.65,7.9,17.65,17.65,17.65,17.65-7.9,17.65-17.65Z"/>
  </g>
  <g>
    <path class="cls-1" d="M65.68,85.9c-.91,3.41-12.19,1.43-15.5,1.94v-5.17c-5.74,2.87-13.56,5.79-20.03,5.17-12.95-1.26-25.74-11.26-28.84-24.12-.41-1.72-.03-3.32-.23-4.93-.15-1.17-1.02-2.13-1.08-2.82-.04-.43,1.08-7.6,1.31-8.59,5.05-20.91,30.81-30.52,48.86-18.95v-5.17s15.5,0,15.5,0v62.65ZM50.17,55.51c0-9.77-7.92-17.69-17.69-17.69s-17.69,7.92-17.69,17.69,7.92,17.69,17.69,17.69,17.69-7.92,17.69-17.69Z"/>
    <path class="cls-1" d="M88.93,23.25v38.11c0,.33,1.19,5.14,1.49,6.26,2.59,9.42,14.72,9.81,20.5,2.82.56-.68,2.55-3.67,2.55-3.91V23.25h15.5v64.59h-12.92s0-10.33,0-10.33c-5.91,4.85-9,9.58-17.38,10.39-11.22,1.08-21.78-4.87-23.73-16.43-1.88-11.16-2.73-31.08-1.52-42.41.19-1.83,1.82-3.57,1.32-5.79l14.19-.02Z"/>
  </g>
</svg>