<?xml version="1.0" encoding="UTF-8"?>
<svg id="_Слой_1" data-name="Слой 1" xmlns="http://www.w3.org/2000/svg" viewBox="0 0 495.41 125.34">
  <defs>
    <style>
      .cls-1 {
        fill: #d71718;
      }

      .cls-2 {
        fill: #3d3a39;
      }
    </style>
  </defs>
  <g>
    <g>
      <g>
        <path class="cls-2" d="M190.95,17.21v-6.15s6.16,0,6.16,0v6.15c6.25.54,15-2.91,13.55,6.14h-13.56s0,6.15,0,6.15h-6.17s0-6.15,0-6.15c-3.17.51-12.77-1.21-14.25,1.17-1.86,2.99,2.11,6.2-5.42,4.96,1.16-9.1-7.33-5.52-13.61-6.12-1.45-9.06,7.35-5.58,13.56-6.14v-6.15s5,.59,5,.59l.43,4.35c1.65,2.48,10.97.69,14.27,1.22Z"/>
        <path class="cls-2" d="M176.16,35.64v20.28c0,.57,2.21,3.79,3.25,4.13,1.62.53,10,.53,11.99.23,1.95-.29,2.27-8.06,2.01-9.89.43-.45,5.7.88,6.03,1.35.64.91-.99,11.2-1.67,12.22-2.11,3.19-21.33,3.26-24.5,1.26-.6-.38-2.04-2.81-2.04-3.16v-26.42h4.93Z"/>
        <path class="cls-2" d="M167.53,36.86c.29,7.72-4.06,14.85-6.19,22.11l-4.86-1.27c.82-2.75,5.36-20.09,6.26-20.7s3.42.09,4.79-.14Z"/>
        <path class="cls-2" d="M205.73,57.76c-.09-6.05-5.16-11.94-6.87-17.14-1.24-3.76,2.67-5.44,5.47-1.75,1.44,1.89,7.61,15.01,6.97,16.46-.82,1.86-3.57,2.83-5.58,2.44Z"/>
        <path class="cls-2" d="M184.67,28.37c.68.43,7.25,13.41,7.38,14.22.4,2.41-2.82,2.82-4.2,4.07-1.36-2.84-8.01-13.34-8.03-15.36-.03-2.5,3.14-4.02,4.85-2.93Z"/>
      </g>
      <path class="cls-2" d="M299.35,45.47l-4.29,2.46c-6.28-1.37,4.84-14.04,6.57-16.8,2.8-4.46,0-5.13,7.57-2.86v-11.05c-2.89-.66-1.98.46-2.76,1.56-1.38,1.95-6.49,10.21-7.81,10.62-1.55.49-3.95-.48-4.21-1.76-.37-1.8,6.15-9.61,7.67-12.05,1.25-2.01.21-4.51,3.88-3.14,1.25.47,2.07,2.09,3.34,2.88,1.11.69,3,.41,3.47.78.96.74-1.43,8.13,1.97,9.7,2.98,0,1.56-12.33,1.85-14.73l3.7.61,1,1.19c-1.51,2.01-1.81,12.93.84,12.93,4.56-3.68-1.66-11.41,5.54-9.82v12.29c4.67-1.14,5.32-17.31,8.01-17.19l3.08,1.21-1.23,8.6c4.36.22,13.01-1.87,10.43,4.87-2.23,5.8-2.04,7.06-3.34,12.65-1.16,4.99-4.52,10.31-1.98,14.87,2.25,4.03,10.39,8.99,4.77,12.49-2.33,1.45-2.38-.1-3.51-1.46s-5.22-7.78-5.75-7.77l-9.86,11.03c-1.98-2.09-4.26-2.67-1.9-5.55,2.28-2.78,8.59-8.87,8.6-12.23,0-2.57-3.22-13.31-6.7-12.95-1.12,0-.48,2.48-.61,2.48h-19.71v-4.92h17.86c1.96,0,2.34-4.78.03-4.8-.61,0-2.76,1.15-4.89,1.18-4.15.06-8.5.35-12.46-.95-.84.06-4.24,6.03-4.24,6.41v26.42c6.85-1.84,6.02-12.4,6.15-18.44h14.79s0,8.61,0,8.61l3.71-.68,1.1,4.25c-4.21,1.15-9.05,9.82-9.8.79-.47-5.68,2.62-9.29-4.87-8.05.16,2.57.04,4.92-.55,7.45-.32,1.36-4.06,9.39-4.5,9.7-.71.5-2.83-1.07-4.18-1.02-2.15.08-4.37,1.62-6.79,1.08v-20.89ZM341.24,27.04h-6.17c-.87.84.53,13.13,3.09,14.74,1.46-1.69,3.63-14.22,3.08-14.74Z"/>
      <path class="cls-2" d="M246.38,57.75h14.79s0-15.98,0-15.98c-3.59-.49-10.23,1.98-11.12-3.04-.94-5.29,4.04-2.53,8.06-3.09,5.42-.75,2.28-10.69,3.07-14.77-6.13-.34-13.69,2.52-12.32-6.14h29.57c1.26,9.27-5.55,4.79-10.32,6.3-2.85.9-3.88,13.93,1.06,14.61,4.02.55,9-2.2,8.06,3.09-.81,4.56-4.74,2.61-8.05,3.03-5.52.7-2.21,11.83-3.07,15.99,6.31.74,16.33-3.26,14.79,6.14l-32.74.1c-1.94.71-1.73-2.57-2.28-2.47-3.42.66-15.52,2.81-17.41-.01-2.5-3.73.65-37.69-.38-44.77,1.14-3.48,18.32-2.56,18.32-.16v41.17ZM234.05,20.89v14.76h6.17v-14.76h-6.17ZM240.22,56.53c-.62-3.72,2.45-17.88-4.31-15.97-3.35.95-1.33,12.93-1.86,15.97h6.17Z"/>
      <g>
        <path class="cls-2" d="M391.74,18.43h17.86c.13,0,1.85,1.71,1.85,1.84v31.34h-19.71l1.13,7.89c.21,1.06,1.08.69,1.89.78,2.58.29,12.67.4,14.69-.21,4.08-1.23.52-11.16,8.15-8.46,2.75,16.29-8.92,15.75-21.61,14.81-10.68-.8-10.58-4.93-10.42-14.8h-18.48v-31.34c0-2.61,10.54-1.91,12.98-1.87,2.23.04,4.43,2.29,5.31-.77.48-1.68-.31-5.91,2.04-6.56,4.58-1.27,4.73,4.33,4.3,7.37ZM385.59,24.57h-12.33c.15,3.52-1.33,7.99,3.07,8.62,8.06,1.15,10.3-.38,9.26-8.62ZM405.3,24.57h-13.56c.14,3.51-1.33,8,3.07,8.62,8.14,1.14,11.87.34,10.49-8.62ZM385.59,38.09h-12.33c.15,3.52-1.33,7.99,3.07,8.62,8.06,1.15,10.3-.38,9.26-8.62ZM405.3,38.09h-13.56c-1.93,10.8,5.36,9.81,13.42,7.24l.14-7.24Z"/>
        <path class="cls-2" d="M482.9,14.75l-.62,4.91c-5.89,5.52-13.25,9.63-20.32,13.53-.52,1.15,1.1,3.67,1.85,3.67h22.79c.5,1.43-.56,4.92-1.85,4.92h-20.94c-.13,0-1.85,1.71-1.85,1.84v19.66c0,2.03-13.47,5.45-14.65,1.1-2.16-7.94,6.8-1.42,8.34-6.17.74-2.28.73-16.43-1.69-16.43h-21.56v-4.92h21.56c1.74,0,1.67-4.8,2.47-6.13,1.9-3.13,12.94-5.63,12.92-11.07h-32.03v-4.92h45.58Z"/>
      </g>
    </g>
    <g>
      <path class="cls-1" d="M124.42,0v125.34h-14.78V13.52l-3.52,2.02c.06,34.33-.68,68.76-.25,103.11.02,1.24,1.87,6.69-.55,6.69H19.71V35.02l1.8-1.62c3.67,1.74,7.83.84,11.75,1v75.57c0,.13,1.72,1.84,1.85,1.84h55.44c.13,0,1.85-1.71,1.85-1.84V0h32.03Z"/>
      <path class="cls-1" d="M88.7,0v28.88c0,.13-1.72,1.84-1.85,1.84h-35.11v77.42c-2.64-.27-14.78,1.1-14.78-1.84V19.05c0-.13,1.72-1.84,1.85-1.84h38.8c.39-2.36-1.05-3.34-3.07-3.7-10.14-1.8-24.88,1.49-35.58-.14-3.62-1.18-1.46-9.96-2-13.36h51.74Z"/>
      <path class="cls-1" d="M88.7,33.73v74.41h-33.26V33.73h33.26ZM73.91,46.7h-3.7v47.92h3.7v-47.92Z"/>
      <rect class="cls-1" y="33.83" width="16.01" height="91.51"/>
      <path class="cls-1" d="M19.71,0v13.52s-7.4,0-7.4,0v3.68c2.44.05,6.32-.82,7.24,2,.54,1.66.51,9.03-.38,10.36-1.6,2.39-15.73,1.18-19.17-.07V0h19.71Z"/>
      <rect class="cls-1" x="23.41" width="9.86" height="30.72"/>
    </g>
  </g>
  <g>
    <path class="cls-2" d="M174.28,115.62c-.93.45-3.15,1-5.95,1-8.06,0-12.21-5.05-12.21-11.69,0-7.96,5.67-12.35,12.73-12.35,2.73,0,4.81.52,5.74,1.04l-1.11,4.15c-1.04-.45-2.53-.87-4.43-.87-4.15,0-7.4,2.52-7.4,7.71,0,4.67,2.77,7.61,7.44,7.61,1.63,0,3.35-.31,4.43-.76l.76,4.15Z"/>
    <path class="cls-2" d="M186.46,91.69h5.26v9.68h.07c.55-.76,1.25-1.35,2.08-1.76.8-.42,1.76-.66,2.73-.66,3.35,0,5.91,2.32,5.91,7.44v9.86h-5.26v-9.3c0-2.21-.76-3.74-2.73-3.74-1.38,0-2.25.9-2.63,1.87-.14.31-.17.76-.17,1.14v10.03h-5.26v-24.56Z"/>
    <path class="cls-2" d="M221.11,94.63c0,1.45-1.07,2.63-2.84,2.63-1.66,0-2.73-1.18-2.73-2.63s1.11-2.63,2.8-2.63,2.73,1.14,2.77,2.63ZM215.68,116.24v-16.91h5.26v16.91h-5.26Z"/>
    <path class="cls-2" d="M234.12,105c0-2.21-.07-4.08-.14-5.67h4.57l.24,2.35h.07c1.25-1.76,3.18-2.73,5.64-2.73,3.7,0,7.02,3.22,7.02,8.61,0,6.16-3.91,9.06-7.68,9.06-2.04,0-3.63-.83-4.39-1.94h-.07v8.41h-5.26v-18.09ZM239.37,108.98c0,.42.03.76.1,1.11.35,1.42,1.56,2.49,3.08,2.49,2.28,0,3.63-1.9,3.63-4.77,0-2.7-1.21-4.74-3.56-4.74-1.49,0-2.8,1.11-3.15,2.66-.07.28-.1.62-.1.93v2.32Z"/>
    <path class="cls-2" d="M285.27,104.35c0,7.68-4.6,12.28-11.45,12.28s-10.96-5.22-10.96-11.9,4.5-12.21,11.34-12.21,11.07,5.36,11.07,11.83ZM268.42,104.62c0,4.6,2.14,7.82,5.67,7.82s5.6-3.39,5.6-7.92c0-4.22-1.97-7.82-5.6-7.82s-5.67,3.39-5.67,7.92Z"/>
    <path class="cls-2" d="M297.68,116.24v-23.31h6.16l4.84,8.54c1.38,2.46,2.73,5.36,3.8,7.99h.07c-.31-3.08-.41-6.23-.41-9.75v-6.78h4.84v23.31h-5.53l-4.98-8.99c-1.38-2.49-2.94-5.5-4.05-8.23h-.14c.17,3.11.24,6.4.24,10.2v7.02h-4.84Z"/>
    <path class="cls-2" d="M338.32,105.42v3.49h-9.06v-3.49h9.06Z"/>
    <path class="cls-2" d="M355.89,92.93v23.31h-5.26v-23.31h5.26Z"/>
    <path class="cls-2" d="M386.5,115.62c-.93.45-3.15,1-5.95,1-8.06,0-12.21-5.05-12.21-11.69,0-7.96,5.67-12.35,12.73-12.35,2.73,0,4.81.52,5.74,1.04l-1.11,4.15c-1.04-.45-2.52-.87-4.43-.87-4.15,0-7.4,2.52-7.4,7.71,0,4.67,2.77,7.61,7.44,7.61,1.63,0,3.35-.31,4.43-.76l.76,4.15Z"/>
    <path class="cls-2" d="M398.39,113.44c0-1.9,1.28-3.22,3.11-3.22s3.04,1.28,3.08,3.22c0,1.83-1.25,3.18-3.15,3.18-1.76,0-3.04-1.35-3.04-3.18Z"/>
    <path class="cls-2" d="M429.42,115.79c-.93.45-2.7.8-4.7.8-5.47,0-8.96-3.35-8.96-8.65,0-4.95,3.39-8.99,9.68-8.99,1.38,0,2.91.24,4.01.66l-.83,3.91c-.62-.28-1.56-.52-2.94-.52-2.77,0-4.57,1.97-4.53,4.74,0,3.08,2.08,4.74,4.63,4.74,1.25,0,2.21-.21,3.01-.55l.62,3.87Z"/>
    <path class="cls-2" d="M457.61,107.6c0,6.19-4.39,9.03-8.92,9.03-4.95,0-8.75-3.25-8.75-8.72s3.6-8.99,9.06-8.99c5.15,0,8.61,3.56,8.61,8.68ZM445.36,107.77c0,2.91,1.21,5.08,3.46,5.08,2.08,0,3.35-2.04,3.35-5.12,0-2.49-.97-5.05-3.35-5.05s-3.46,2.59-3.46,5.09Z"/>
    <path class="cls-2" d="M469.81,104.73c0-2.11-.07-3.87-.14-5.4h4.46l.21,2.28h.1c.73-1.11,2.25-2.7,5.12-2.7,2.21,0,3.91,1.14,4.64,2.91h.07c.66-.9,1.38-1.59,2.21-2.08.93-.52,1.97-.83,3.22-.83,3.25,0,5.71,2.28,5.71,7.37v9.96h-5.12v-9.2c0-2.46-.8-3.87-2.49-3.87-1.25,0-2.08.83-2.46,1.83-.1.38-.17.9-.17,1.35v9.89h-5.12v-9.51c0-2.11-.76-3.56-2.46-3.56-1.35,0-2.14,1.04-2.46,1.87-.17.42-.21.9-.21,1.35v9.86h-5.12v-11.52Z"/>
  </g>
</svg>