<?xml version="1.0" encoding="UTF-8"?>
<svg id="_Слой_1" data-name="Слой 1" xmlns="http://www.w3.org/2000/svg" viewBox="0 0 477.01 103.27">
  <defs>
    <style>
      .cls-1 {
        fill: #295ebc;
      }
    </style>
  </defs>
  <polygon class="cls-1" points="31.93 6.93 26.94 44.58 62.87 44.58 67.86 6.93 85.82 6.93 71.35 102.03 53.89 102.03 59.88 59.43 24.95 59.43 18.96 102.03 0 102.03 13.97 6.93 31.93 6.93"/>
  <polygon class="cls-1" points="291.39 31.7 296.88 84.21 316.34 31.7 333.31 31.7 303.37 102.03 283.41 102.03 279.41 50.52 257.3 101.86 238.5 102.03 228.52 32.69 247.49 32.69 250.48 82.73 252.46 84.2 272.43 31.7 291.39 31.7"/>
  <path class="cls-1" d="M352.27,72.31c-.8,22.93,21.59,18.96,36.92,13.87-.2,3.67.74,8.94-1.18,12.19-3.02,5.12-22.65,5.18-28.24,4.63-41.28-4.05-27.89-74.03,16-72.35,21.57.83,27.79,24.92,19.92,41.65h-43.41ZM383.2,60.42c1.61-25.82-25.34-20.34-28.94,0h28.94Z"/>
  <path class="cls-1" d="M176.62,47.55c-7.01-2.51-15.15-5.77-22.31-1.85-15.42,8.45,8.35,14.42,13.28,17.26,8.71,5.03,11.73,13.42,8.25,22.93-7.26,19.86-33,19.77-50.02,14.07l2.92-13.79c7.95,2.21,19.45,7.45,26.98,1.54,13.37-10.5-12.63-16.22-17.95-20.91-7.09-6.25-6.14-14.09-2.09-21.76,7.93-15.01,30.76-18.2,44.7-9.91l-3.77,12.42Z"/>
  <g>
    <polygon class="cls-1" points="477.01 0 463.04 102.03 446.07 102.03 460.04 0 477.01 0"/>
    <polygon class="cls-1" points="440.09 0 426.11 102.03 408.15 102.03 423.12 0 440.09 0"/>
  </g>
  <g>
    <polygon class="cls-1" points="215.55 32.69 206.57 102.03 188.61 102.03 198.59 32.69 215.55 32.69"/>
    <path class="cls-1" d="M209.28,2.19c15.26-3.41,12.29,18.21.76,18.68-11.94.49-9.37-16.76-.76-18.68Z"/>
  </g>
  <g>
    <polygon class="cls-1" points="119.75 32.69 109.77 102.03 92.81 102.03 101.79 32.69 119.75 32.69"/>
    <path class="cls-1" d="M112.47,2.2c15.62-3.58,13.23,18.12.77,18.68-11.39.51-9.31-16.72-.77-18.68Z"/>
  </g>
</svg>