<?xml version="1.0" encoding="UTF-8"?>
<svg id="_Слой_1" data-name="Слой 1" xmlns="http://www.w3.org/2000/svg" viewBox="0 0 415.88 273.81">
  <defs>
    <style>
      .cls-1 {
        fill: #14c4fb;
      }

      .cls-2 {
        fill: #1d78d7;
      }
    </style>
  </defs>
  <path class="cls-2" d="M44.61,80.22c0,2.76.13,5.53-.07,8.26-.07,1.01-.91,2.06-1.62,2.87-5.6,6.54-10.39,13.55-14.43,21.18-5.56,10.52-9.58,21.58-11.53,33.31-2.8,16.72-1.38,32.94,6.14,48.35,5.6,11.5,14.03,20.5,24.48,27.72,11.19,7.72,23.6,12.81,36.58,16.45,11.3,3.17,22.83,5.16,34.49,6.51,17.2,2.02,34.46,2.29,51.72,1.72,16.52-.57,32.98-1.99,49.33-4.59,26.77-4.25,52.9-10.96,78.4-20.1,15.51-5.56,30.62-12,44.95-20.2.54-.3,1.15-.51,2.02-.88.07,1.05.17,1.82.17,2.6,0,8.29-.07,16.62.03,24.92,0,1.96-.61,3.07-2.36,3.98-16.42,8.6-33.62,15.31-51.25,20.91-16.86,5.33-33.95,9.68-51.32,12.91-8.8,1.65-17.63,3.07-26.5,4.18-8.8,1.11-17.63,1.72-26.47,2.53-12.58,1.15-25.22,1.05-37.83.81-6.24-.1-12.51-.71-18.75-1.28-5.66-.51-11.33-1.21-16.96-1.99-11.23-1.52-22.22-4.08-33.04-7.38-11.87-3.64-23.27-8.4-33.95-14.8-12.14-7.28-22.76-16.29-31.02-27.92-7.25-10.22-11.73-21.55-13.96-33.82C.68,179.99-.03,173.45,0,166.84c.1-14.7,3.24-28.73,9.44-42.08,7.38-15.88,18.04-29.37,30.68-41.34,1.28-1.21,2.6-2.39,3.88-3.57.2.13.4.24.57.37h.03Z"/>
  <path class="cls-2" d="M90.91,56.05c0-2.26-.03-4.21,0-6.14.03-1.18,1.05-1.58,1.89-2.06,5.02-2.83,10.01-5.77,15.14-8.43,27.51-14.36,56.58-24.41,86.86-31.16,11.19-2.5,22.49-4.52,33.89-5.77,8.73-.98,17.5-1.55,26.27-2.09,5.6-.34,11.23-.37,16.86-.4,8.73-.07,17.4.54,26.1,1.35,14.7,1.35,29.17,4.05,43.29,8.36,13.22,4.05,25.83,9.51,37.33,17.26,12.81,8.63,23.16,19.46,29.87,33.52,3.61,7.55,5.73,15.54,6.78,23.84.84,6.58.91,13.18.3,19.76-1.05,11.13-4.21,21.71-9.44,31.63-10.45,19.79-25.69,34.66-45.86,44.44-1.55.74-3.14,1.35-4.72,2.02-.2.1-.47.03-1.01.07-.1-.78-.24-1.55-.24-2.33,0-5.63.03-11.23-.03-16.86,0-1.75.64-2.8,2.12-3.74,11.03-6.98,20.3-15.78,27.41-26.74,5.66-8.7,9.64-18.14,11.06-28.46,2.6-18.78-2.09-35.71-13.82-50.58-7.11-9.04-16.12-15.85-26.2-21.28-12.78-6.88-26.47-11.3-40.7-14.03-7.08-1.38-14.26-2.39-21.44-3.3-5.09-.64-10.22-.84-15.34-1.11-3.57-.2-7.15-.34-10.76-.3-9.51.07-19.02.4-28.53,1.15-21.21,1.69-42.08,5.26-62.75,10.35-22.73,5.6-44.85,13.05-66.22,22.56-5.29,2.36-10.45,4.92-15.68,7.38-.71.34-1.42.64-2.46,1.11l.03-.03Z"/>
  <path d="M250.26,147.46c.17,1.79.13,3.3.44,4.79,1.89,9.04,8.53,14.5,17.74,14.87,7.38.27,14.03-1.45,19.52-6.71.34-.34.78-.57,1.45-1.08,4.08,3.91,8.19,7.79,12.34,11.77-.54.64-.84,1.11-1.25,1.48-7.11,6.74-15.48,10.55-25.29,11.4-7.08.61-13.99.17-20.74-2.06-10.52-3.47-17.63-10.52-21.48-20.84-3-8.16-3.74-16.59-3.03-25.26.54-6.47,1.99-12.71,5.06-18.48,6.14-11.53,15.88-17.7,28.76-19.29,4.75-.57,9.44-.44,14.06.71,11.23,2.8,18.55,10.05,22.89,20.53,2.6,6.24,3.57,12.85,3.81,19.56.07,2.12.03,4.25,0,6.34-.03,1.79-.2,1.89-1.99,1.96h-48.62c-1.11,0-2.23.13-3.68.24v.07ZM283.74,133.33c.07-.91.24-1.55.17-2.16-.37-3.24-1.11-6.41-2.83-9.27-2.39-4.01-5.83-6.54-10.55-7.01-1.99-.2-4.08-.24-6.04.1-8.6,1.52-13.42,7.82-14.13,16.32-.03.61.13,1.21.27,2.12,11.09,0,22.02.07,33.08-.07l.03-.03Z"/>
  <path d="M101.46,141.02v-38.61c0-3.24,0-3.27,3.24-3.27,13.52,0,27.04-.03,40.56.07,2.66,0,5.39.34,7.96.98,7.92,1.96,13.08,7.08,15.41,14.84.78,2.53,1.18,5.26,1.18,7.92.1,19.05.07,38.1.07,57.15,0,2.66-.1,2.73-2.76,2.73h-14.9c-2.66,0-2.7,0-2.7-2.76v-53.98c0-1.38-.07-2.76-.3-4.11-.57-3.37-2.7-5.29-5.93-6-1.35-.3-2.73-.44-4.11-.44-4.65-.07-9.27,0-13.93,0-3.14,0-3.34.2-3.34,3.3v61.54c0,2.36-.13,2.46-2.53,2.46h-15.14c-2.63,0-2.73-.07-2.73-2.76v-39.08l-.03.03Z"/>
  <path d="M186.97,120.55v-41.04q0-3.34,3.44-3.34h14.16c2.73,0,2.76,0,2.76,2.7v18.34c.1,1.69.34,1.96,2.06,1.99,3.41.07,6.84,0,10.25,0,4.08,0,3.78-.34,3.78,3.88v10.01c0,2.33-.13,2.46-2.53,2.46h-10.76c-2.63,0-2.83.2-2.83,2.76v39.35c0,3.2.81,6.1,4.08,7.38,1.62.64,3.47.71,5.26.88,1.62.13,3.27,0,4.89.07,1.58.07,1.85.3,1.89,1.89.03,4.38,0,8.8,0,13.18,0,1.18-.4,1.85-1.69,1.82-5.13-.17-10.28.03-15.38-.51-10.92-1.15-18.75-9.58-19.35-20.53-.2-3.91-.1-7.82-.1-11.73v-29.57h.07Z"/>
  <path d="M338.53,123.11v55.23c0,3.74-.03,3.88-3.61,3-2.43-.61-4.89-1.42-7.08-2.56-5.93-3.14-8.87-8.43-9.64-14.97-.24-2.02-.2-4.08-.2-6.1v-89.93c0-2.5,1.25-3.75,3.74-3.78h13.93c2.8,0,2.87.07,2.87,2.9v56.21Z"/>
  <path d="M81.33,183.53c-12.71-.74-19.76-8.6-20.37-19.29-.07-1.05-.1-2.12-.1-3.17v-58.37c0-2.34,1.15-3.51,3.44-3.51h14.67c2.19,0,2.36.17,2.43,2.36v80.08c0,.64-.07,1.28-.1,1.89h.03Z"/>
  <path class="cls-1" d="M71.01,86.59h-8.06c-1.79,0-2.06-.24-2.06-1.96-.03-5.29-.03-10.55,0-15.85,0-1.55.34-1.82,1.92-1.82,5.53-.03,11.06-.03,16.59,0,1.58,0,1.92.27,1.92,1.82.03,5.36,0,10.72,0,16.08,0,1.21-.61,1.75-1.82,1.72h-8.53.03Z"/>
  <path d="M361.09,69.3c0,4.05-3.17,7.22-7.32,7.22s-7.35-3.17-7.35-7.22,3.27-7.15,7.35-7.15,7.32,3.17,7.32,7.15ZM348.28,69.3c0,3.17,2.36,5.7,5.56,5.7s5.43-2.53,5.43-5.66-2.29-5.73-5.5-5.73-5.53,2.56-5.53,5.7h.03ZM352.66,73.04h-1.65v-7.15c.64-.13,1.55-.2,2.73-.2,1.35,0,1.96.2,2.5.54.4.3.71.88.71,1.55,0,.78-.61,1.38-1.48,1.65v.1c.71.27,1.08.78,1.32,1.75.2,1.08.34,1.52.54,1.79h-1.79c-.2-.27-.34-.91-.57-1.75-.13-.78-.57-1.15-1.48-1.15h-.78v2.87h-.03ZM352.7,68.99h.78c.91,0,1.65-.3,1.65-1.05,0-.64-.47-1.08-1.52-1.08-.44,0-.74.03-.91.1v2.06-.03Z"/>
</svg>