<?xml version="1.0" encoding="UTF-8"?>
<svg id="_Слой_1" data-name="Слой 1" xmlns="http://www.w3.org/2000/svg" viewBox="0 0 497.07 130.94">
  <defs>
    <style>
      .cls-1 {
        fill: #06418a;
      }
    </style>
  </defs>
  <g>
    <g>
      <path class="cls-1" d="M166.49,24.12v16.74h12.84v13.54h-12.31l-.54.53v21.73c0,.74,1.02,3.14,1.49,3.86,2.45,3.73,7.31,3.88,11.36,4.16v13c0,.18-.59.59-.89.55-5.47-.44-10.31-1.03-15.17-3.75-5.68-3.17-10.34-10.51-10.34-17.11v-22.44l-.54-.53h-9.99l-.54-.53v-12.47l.54-.53h10.52v-16.21l.54-.53h13.02Z"/>
      <g>
        <rect class="cls-1" x="187.9" y="40.86" width="13.56" height="57"/>
        <rect class="cls-1" x="187.88" y="24.1" width="13.59" height="13.57"/>
      </g>
    </g>
    <path class="cls-1" d="M51.27,71.86V24.65l.54-.53h12.49l.54.53v68.04c0,1.52-2.73,4.21-4.18,4.73-5.34,1.93-7.61-1.83-10.63-5.26-11.59-13.19-22.62-28.36-34.59-40.98-.2-.21-1-1.05-1.08-1.06-.88-.06-.18.84-.18.88v46.31l-.54.53H.61c-.24-1.1-.32-2.23-.37-3.36-.78-20.74.61-41.95,0-62.73.2-6.98,7.13-10.07,12.28-5.12,12.17,14.09,23.75,28.76,36.06,42.72.7.8,1.74,2.22,2.68,2.49Z"/>
    <path class="cls-1" d="M119.76,97.86v-4.27c-2.83,1.07-5.44,2.77-8.4,3.54-15.17,3.95-31.39-4.23-36.45-19.14-8.46-24.91,16.43-47.93,40.7-37.44,1.15.5,2.8,1.77,3.62,2.08.91.35.27-1.55,1.06-1.78h13.02v57h-13.56ZM119.82,68.05c0-9.07-7.37-16.43-16.45-16.43s-16.45,7.36-16.45,16.43,7.37,16.43,16.45,16.43,16.45-7.36,16.45-16.43Z"/>
    <g>
      <path class="cls-1" d="M269.99,68.04c0,16.59-13.47,30.05-30.09,30.05s-30.09-13.45-30.09-30.05,13.47-30.05,30.09-30.05,30.09,13.45,30.09,30.05ZM256.36,68.04c0-9.07-7.37-16.43-16.45-16.43s-16.45,7.36-16.45,16.43,7.37,16.43,16.45,16.43,16.45-7.36,16.45-16.43Z"/>
      <path class="cls-1" d="M338.44,97.86h-13.56v-31.17c0-8.75-9.92-15.93-18.33-15.1-5.99.59-14.49,7.3-14.49,13.67v32.06l-.54.53h-13.02v-57h13.02c.8.22.15,2.12,1.06,1.78.55-.21,1.77-1.29,2.61-1.67,14.57-6.66,31.59-1.64,39.46,12.4,1.05,1.87,3.78,8.97,3.78,10.83v33.67Z"/>
    </g>
  </g>
  <g>
    <path class="cls-1" d="M370.74,74.85c-6.97-7.88-5.48-14.7,2.34-21.31,5.11-4.32,11.73-4.5,16.92-.22l28.3,28.62c-4.94,8.43-.86,19.53,8.7,22.07,15.78,4.21,25.72-16.14,12.93-26.1-1.34-1.04-3.74-1.73-4.45-2.32-.24-.2-.36-.4-.36-.71l.42-19.18,4.71-2.32,29.84,30.05c3.03,5.18,2.46,11.39-1.65,15.81-9.73,8.49-18.48,20.23-28.31,28.37-5.13,4.24-11.12,4.49-16.42.36-16.79-18.14-36.63-34.67-52.95-53.12Z"/>
    <path class="cls-1" d="M473.06,36.46c6.05,6.13,12.8,12.2,18.65,18.43,2.03,2.16,4.15,4.39,4.96,7.34,3.08,11.34-11.98,22.79-21.77,14.97l-29.37-29.67c4.7-9.11-1.44-20.58-11.71-21.58-12.01-1.17-20.28,11.69-14.42,22.23,1.9,3.42,5.34,5.56,8.83,7.09l-.59,19.93c-1.27.27-3.05,1.68-4.14.95l-28.17-28.16c-3.57-4.43-4.1-10.17-1.19-15.09,9.66-9.01,19.39-21.81,29.55-29.99,5.02-4.04,11.57-3.86,16.42.36,11.1,10.94,22,22.09,32.95,33.18Z"/>
    <ellipse class="cls-1" cx="430.96" cy="89.73" rx="7.35" ry="7.34"/>
    <ellipse class="cls-1" cx="432.3" cy="40.71" rx="7.34" ry="7.33"/>
  </g>
</svg>