<?xml version="1.0" encoding="UTF-8"?>
<svg id="_Слой_1" data-name="Слой 1" xmlns="http://www.w3.org/2000/svg" viewBox="0 0 424.85 56.42">
  <defs>
    <style>
      .cls-1 {
        fill: #0668b4;
      }

      .cls-2 {
        fill: #0e994b;
      }
    </style>
  </defs>
  <path class="cls-1" d="M161.12,1.48l61.58-.24c15.49,3.58,18.29,20.28,16.65,34.05-1.14,9.64-9.12,18.76-18.94,20.07-11.23,1.5-42.59,1.32-54.1.1-6.23-.66-11.05-3.59-11.31-10.38-.07-1.85,1.01-3.59,1.03-5.34.08-6.7-1.1-13.59-1.1-19.5,0-3.89,1.96-9.4,1.31-13.87l4.88-4.88ZM178.78,47.86h26.55c.38,0,5.31-3.02,5.99-3.76,5.74-6.16,5.98-22.95,1.55-29.78-1.25-1.93-6.5-6.55-8.62-6.55h-25.46v40.09Z"/>
  <path class="cls-1" d="M67.18,37.02V1.26h10.84v53.09h-21.13c-7.12,0-33.36-23.12-40.74-28.61-1.9-1.42-4.06-3.7-6.4-3.9v32.51H0V6.14c0-.35,4.14-4.38,5.09-4.66,2.39-.71,12.01-.53,14.48.27,14.95,10.06,28.66,23.4,43.36,33.57,1.3.9,2.51,1.98,4.25,1.71Z"/>
  <path class="cls-1" d="M152.78,1.26c.44.42-1.84,5.66-2.43,6.23-3.12,3.02-29.5.55-36.06,1.33-7.22.85-11.5,8.37-11.35,15.2h46.59c.86,1.85-2.63,7.58-3.79,7.58h-42.8c-.92,5.6,5.59,16.25,11.38,16.25h38.47c-1.25,5.78-2.21,7.21-8.08,7.63-11.83.84-32.83,1.07-44.47-.05-19.99-1.94-23.77-19.89-20.88-37.12.98-5.84,9.41-17.05,15.46-17.05h57.97Z"/>
  <path class="cls-2" d="M387.91,24.02l22.77-22.2,14.07-.55c.46,1.84-.71,2.17-1.61,3.25-7.06,8.46-17.06,15.16-23.23,24.23l24.86,26.14c.02.91-12.89,1.13-14.54-.67l-22.31-22.62v16.79c0,3.66-9.07,8.86-13,7.04V1.81c0-2.41,13-2.41,13,0v22.21Z"/>
  <path class="cls-2" d="M370.57.18c-1.03,15.51-20.67,5-29.66,9.89-4.27,2.32-7.94,8.97-7.18,13.95h33.59c.89,1.6-3.22,7.58-3.79,7.58h-29.8c-1.44,5.62,5.76,16.25,11.38,16.25h25.46l-4,7.61c-17.22.15-42.84,3.68-44.81-20.03-1.09-13.14-.79-27.82,13.34-33.34.87-.34,6.4-1.92,6.75-1.92h28.71Z"/>
  <path class="cls-1" d="M241.63,55.44V1.81c0-.11,1.51-1.63,1.63-1.63h20.59c.11,0,1.63,1.51,1.63,1.63v46.59c0,1.98-6.05,7.04-8.13,7.04h-15.71Z"/>
  <path class="cls-2" d="M326.15.18l-3.79,8.67h-18.96v39.55c0,3.78-10.95,10.21-14.09,5.42V8.85h-16.79c-2.27,0-2.27-8.67,0-8.67h53.64Z"/>
</svg>