<?xml version="1.0" encoding="UTF-8"?>
<svg id="_Слой_1" data-name="Слой 1" xmlns="http://www.w3.org/2000/svg" viewBox="0 0 327.13 134.28">
  <defs>
    <style>
      .cls-1 {
        fill: #0d82f2;
      }

      .cls-2 {
        fill: #e50128;
      }
    </style>
  </defs>
  <g>
    <path class="cls-1" d="M254.18,80.58v26.85h-78.13c-7.08,0-20.55-13.07-24.45-19.13-11.72-18.21-5.42-44.99,13.6-55.65,2.31-1.3,13.42-5.77,15.02-5.77h101.05v53.7c-9,.07-18.08-.1-27.08,0v-26.85h-69.79c-.78,0-7.47,4.81-8.47,6.04-5.86,7.2-3.14,16.2,5.23,19.89,24.26,1.48,48.76,1.18,73.04.91Z"/>
    <g>
      <path class="cls-1" d="M27.08,107.43c.1-8.92-.1-17.93,0-26.85,24.48,0,49.06.35,73.55-.41,13.2-3.8,7.33-26.44-1.67-26.44H27.08c-.08,8.92.1,17.93,0,26.85H0V26.88c31.67,2.68,69.6-3.84,100.51.53,47.66,6.73,46.1,75.41.56,80.04-21.94,2.23-51.13-.02-73.98-.02Z"/>
      <path class="cls-2" d="M27.08,107.43c-.1,8.92.07,17.93,0,26.86H0v-26.86h27.08Z"/>
    </g>
  </g>
  <g>
    <rect class="cls-1" x="300.01" y="53.73" width="27.08" height="53.7"/>
    <rect class="cls-2" x="299.98" width="27.14" height="26.91"/>
  </g>
</svg>