<?xml version="1.0" encoding="UTF-8"?>
<svg id="_Слой_1" data-name="Слой 1" xmlns="http://www.w3.org/2000/svg" viewBox="0 0 494.58 115.7">
  <defs>
    <style>
      .cls-1 {
        fill: #ee2e25;
      }
    </style>
  </defs>
  <path d="M233.32,30.12h7.6c.17.41.34.79.49,1.2,3.39,8.87,6.78,17.73,10.18,26.6.15.41.32.84.49,1.25.6,1.35,1.52,2.38,2.81,3.09.28.15.54.28.86.45v1.01c-1.07.21-12.92.24-14.19,0-.04-.28-.06-.56-.11-.86.13-.09.24-.19.34-.24.34-.13.69-.19,1.01-.32.86-.36,1.27-1.05,1.25-2.02,0-.21-.04-.45-.09-.67-.19-.94-1.37-4.14-1.91-5.15h-13.63c-.26.64-.54,1.29-.79,1.95-.32.84-.64,1.65-.9,2.49-.15.45-.24.94-.28,1.44-.04,1.03.32,1.57,1.29,1.93.41.15.84.28,1.33.43-.02.36-.04.69-.06.99-1.16.19-21.64.21-23.05.02-.02-.3-.06-.64-.09-.92.15-.11.21-.17.3-.19.54-.19,1.12-.3,1.63-.56.97-.47,1.25-1.18.88-2.19-.13-.36-.3-.75-.52-1.07-1.89-2.75-3.8-5.47-5.71-8.2-.06-.11-.19-.17-.34-.3-.15.17-.3.32-.41.49-1.74,2.68-3.46,5.37-5.17,8.07-.24.36-.45.77-.58,1.18-.34.99-.06,1.63.88,2.08.47.24.99.36,1.57.58v1.01c-.19.04-.34.13-.52.13h-12.17c-.06-.41-.11-.73-.15-1.01.15-.13.19-.19.28-.24.06-.04.15-.09.24-.11,2.21-.47,3.82-1.78,5.11-3.58,2.75-3.86,5.5-7.75,8.24-11.63.06-.11.11-.24.19-.41-.34-.49-.71-1.01-1.05-1.5-2.28-3.22-4.57-6.44-6.87-9.66-.43-.62-.88-1.22-1.35-1.82-.92-1.2-2.1-2.04-3.54-2.47-.21-.06-.41-.13-.69-.21v-1.01c1.01-.17,14.17-.24,15.84-.06.26.99.26,1.03-.52,1.25-1.8.49-2.34,1.7-1.35,3.46.19.34.41.69.62,1.01,1.25,1.89,2.51,3.76,3.78,5.65.19.28.41.56.69.92.19-.21.34-.34.47-.52,1.55-2.28,3.09-4.55,4.64-6.85.19-.3.39-.6.54-.92.64-1.4.24-2.32-1.22-2.75-.26-.06-.52-.13-.82-.19-.04-.19-.13-.34-.13-.52s.02-.34.04-.52c1.01-.19,10.15-.24,11.96-.04.02.3.04.64.06,1.01-.32.13-.6.26-.88.36-1.85.6-3.26,1.76-4.38,3.31-1.57,2.21-3.13,4.42-4.7,6.61-1.01,1.42-2,2.81-3.03,4.25.21.34.39.64.58.94,2.83,4.01,5.69,8.05,8.54,12.06.41.58.84,1.16,1.31,1.67.41.45.9.84,1.37,1.27.86-.52,1.46-1.2,1.87-1.97.6-1.14,1.18-2.28,1.65-3.48,3.31-8.33,6.57-16.66,9.85-25.01.13-.32.26-.67.45-1.09l-.04.11ZM229.93,50.45c1.14.21,9.53.21,10.75,0-1.74-4.7-3.46-9.38-5.28-14.36-1.91,4.96-3.71,9.64-5.5,14.36h.02Z"/>
  <path d="M341.59,115.52q-1.01.06-1.33-.6c-1.16-2.55-2.3-5.11-3.43-7.64-2.49-5.54-4.98-11.1-7.47-16.64-.19-.43-.41-.84-.77-1.52-.06.62-.13.92-.13,1.2v19.06c0,.45.04.88.09,1.33.11,1.37.77,2.32,2.08,2.83.32.13.64.26,1.01.41v.97c-.32.26-8.63.3-10.67.11-.04-.3-.06-.62-.11-1.03.43-.19.82-.39,1.22-.56,1.25-.58,1.89-1.57,2-2.92.04-.45.02-.88.02-1.33v-22.11c0-.45,0-.88-.02-1.33-.11-1.42-.75-2.43-2.15-2.9-.3-.09-.58-.21-.97-.34-.02-.3-.06-.64-.09-1.03.28-.06.47-.13.69-.13h11.51c1.63,3.65,3.24,7.26,4.85,10.86,1.59,3.54,3.16,7.11,4.87,10.9,3.18-7.38,6.25-14.49,9.32-21.57,1.03-.21,9.42-.3,11.87-.11.32.34.26.73.06,1.14-.41.15-.82.28-1.22.45-.92.39-1.52,1.05-1.72,2.06-.11.56-.21,1.14-.21,1.72v23.05c0,.54.11,1.05.19,1.59.19,1.12.86,1.82,1.91,2.19.34.11.67.24,1.01.34.26.36.26.73-.02,1.22h-13.65c-.02-.43-.04-.73-.06-1.09.36-.17.73-.32,1.07-.47.97-.41,1.57-1.14,1.8-2.17.13-.56.24-1.14.24-1.72v-19.99c0-.13-.04-.24-.06-.36h-.15s-.06.06-.09.09c-.02.04-.06.06-.09.11-3.78,8.65-7.58,17.3-11.38,26.02l-.02-.09Z"/>
  <path d="M271.55,99.68c.26.13.39.24.54.28,2,.71,3.52,2.02,4.77,3.71.6.82,1.12,1.7,1.67,2.58.73,1.16,1.42,2.36,2.19,3.5,1.25,1.87,2.88,3.26,5.13,3.76.13.02.24.11.34.15.19.56.11.99-.47,1.2-.71.24-1.42.56-2.15.67-3.31.45-6.48.13-9.19-2.08-1.29-1.05-2.25-2.38-3.03-3.84-.75-1.42-1.42-2.86-2.15-4.29-.34-.67-.71-1.33-1.12-1.95-.88-1.35-2.15-2.08-3.78-2.1h-3.74c-.17,0-.32.06-.56.13-.02.41-.06.82-.06,1.2v6.53c0,.62.09,1.25.15,1.85.15,1.31.88,2.19,2.13,2.64.32.11.67.24,1.07.39,0,.32.04.67.06,1.05-.21.06-.39.13-.56.13h-13.55c-.04-.41-.06-.73-.11-1.14.45-.17.86-.3,1.27-.47.92-.36,1.59-.99,1.76-2,.13-.64.21-1.31.21-1.97.02-2.62,0-5.24,0-7.86v-14.38c0-.75-.06-1.5-.19-2.25-.17-1.05-.82-1.74-1.8-2.13-.36-.15-.75-.28-1.18-.43,0-.32-.04-.67-.06-1.01.19-.06.3-.15.43-.15.3-.02.62-.02.92-.02h16.79c2.32,0,4.59.3,6.8,1.05.34.11.67.24.99.36,4.04,1.72,5.67,5.24,5.09,9.38-.41,2.94-2.08,4.96-4.7,6.18-1.2.56-2.49.9-3.93,1.4v-.04ZM259.94,96.91c.15.09.24.17.3.17,2.36-.02,4.72.13,7.04-.13,2.49-.28,4.1-1.72,4.68-4.1.19-.79.19-1.67.17-2.51-.09-2.55-1.61-4.1-4.01-4.59-1.05-.21-2.13-.21-3.18-.21h-3.07c-1.22.02-1.7.43-1.89,1.61-.09.52-.13,1.05-.13,1.59v7.06c0,.39.04.77.06,1.12h.02Z"/>
  <path d="M398.31,82.44v-.97c.17-.06.28-.15.41-.15,2.98,0,5.95,0,8.93-.04.64,0,.97.34,1.33.73,2.43,2.77,4.87,5.54,7.3,8.29,2.77,3.13,5.52,6.27,8.26,9.4.19.21.41.43.77.79.04-.45.09-.69.09-.92v-13.18c0-.26,0-.54-.04-.79-.13-1.35-.75-2.34-2.08-2.81-.26-.09-.49-.19-.82-.34,0-.3-.04-.64-.06-.94.13-.11.21-.19.28-.19h10.2c.04.36.09.69.15,1.05-.41.21-.75.41-1.09.6-1.05.58-1.65,1.46-1.8,2.64-.09.67-.11,1.33-.11,2v26.23c0,.52-.02,1.05-.04,1.52-.79.39-1.27.13-1.74-.39-1.57-1.8-3.18-3.61-4.74-5.41-5.45-6.2-10.9-12.41-16.36-18.61-.24-.26-.47-.52-.71-.75-.43.13-.28.45-.28.67v18.65c0,.47.09.97.17,1.44.21,1.14.92,1.89,1.93,2.38.39.19.82.34,1.29.54,0,.32.04.67.06.94-.41.28-9.34.34-11.29.11-.02-.3-.04-.64-.09-.99.39-.15.71-.3,1.03-.41,1.27-.41,1.97-1.29,2.15-2.6.06-.47.13-.97.13-1.46v-22.52c0-.41-.02-.79-.09-1.2-.17-1.22-.79-2.15-1.91-2.7-.39-.19-.79-.41-1.29-.67l.06.06Z"/>
  <path d="M177.38,82.46v-.94c.3-.28,9.19-.28,10.45-.06v1.03c-.21.13-.41.24-.6.32-1.35.58-2.06,1.65-2.19,3.09-.06.62-.11,1.25-.11,1.87v26.1c0,.52-.02,1.05-.04,1.52-.86.45-1.33,0-1.78-.52-2.43-2.77-4.87-5.54-7.3-8.31-4.64-5.26-9.27-10.54-13.89-15.8-.17-.19-.28-.43-.41-.62-.49.28-.39.56-.39.79v18.38c0,.26,0,.54.02.79.09,1.61.86,2.77,2.36,3.39.32.13.64.26,1.03.41v1.03c-1.05.21-9.85.24-11.25.02v-1.03c.43-.15.84-.28,1.25-.45,1.03-.43,1.65-1.2,1.82-2.28.11-.71.19-1.42.19-2.13v-22.11c0-1.95-.71-3.46-2.66-4.16-.19-.09-.39-.21-.62-.34v-1.07c.41-.02.75-.09,1.09-.09h7.86c.73,0,1.22.21,1.72.77,2.94,3.39,5.92,6.74,8.89,10.11,2.17,2.47,4.34,4.94,6.5,7.41.26.3.49.6.73.88.43-.28.32-.58.32-.82v-12.92c0-.45-.02-.88-.09-1.33-.19-1.25-.79-2.15-2.04-2.55-.28-.11-.56-.24-.88-.36v-.02Z"/>
  <path d="M135.71,63.76c-.02-.34-.04-.64-.06-1.01.41-.19.82-.36,1.2-.54,1.09-.47,1.8-1.29,2-2.47.09-.56.17-1.14.19-1.72v-31.04c0-2-.43-2.49-2.38-2.55-2.53-.06-5.07-.09-7.58.28-2.08.3-3.76,1.25-5.13,2.81-.17.19-.36.39-.54.58-.02.02-.06.04-.21.13-.19-.11-.45-.24-.77-.41.26-1.44.86-2.73,1.29-4.06.41-1.31.9-2.6,1.35-3.89.49-.34,1.05-.21,1.57-.21h34.22c1.03,2.66,1.87,5.37,2.81,8.07-.15.11-.26.19-.36.26-.15.09-.3.17-.43.24-.13-.06-.24-.09-.28-.13-1.61-2.47-4.08-3.35-6.83-3.54-2.04-.15-4.08-.15-6.12-.13-2.17.04-2.58.49-2.58,2.6v31.71c.06,1.76.79,3.07,2.55,3.65.26.09.47.21.77.36-.02.34-.04.69-.06.92-.32.28-12.67.32-14.6.11l-.02-.02Z"/>
  <path d="M377.57,95.36c.3,0,.64.04.99.04h7.86c.49,0,.97-.06,1.46-.13,1.12-.17,1.87-.77,2.23-1.85.06-.21.15-.41.26-.71h1.25c.19.99.26,7.32.06,9.29-.39.02-.82.06-1.2.09-.11-.19-.21-.28-.26-.41-.36-1.52-1.46-2.13-2.92-2.28-.17,0-.36-.02-.54-.02h-8.8c-.13,0-.26.04-.47.06-.04.24-.11.49-.11.73v8.8c0,.3,0,.62.09.92.13.58.47.94,1.09.97.49.02.97.11,1.46.09,2.88,0,5.77-.02,8.65-.09,2.81-.06,5.15-1.2,7.04-3.26.3-.32.6-.64.94-1.05.3.19.58.36.92.58-1.05,2.64-2.1,5.22-3.11,7.77-1.07.21-26.17.26-27.69.04,0-.32-.02-.64-.04-1.03.43-.15.79-.28,1.16-.41,1.25-.41,1.87-1.31,2.02-2.55.06-.54.06-1.07.06-1.59v-22.39c0-.49,0-.99-.06-1.46-.13-1.31-.77-2.23-2.06-2.68-.34-.11-.67-.24-1.07-.39-.02-.32-.04-.67-.09-1.01.17-.06.3-.15.41-.15.3-.02.62-.02.92-.02h24.88c.56.84,2.53,6.1,2.88,7.64-.21.17-.45.34-.71.54-.15-.09-.26-.13-.36-.21-.67-.6-1.29-1.22-1.97-1.78-1.48-1.2-3.18-1.95-5.11-1.97-2.7-.04-5.41-.04-8.14-.06-.17,0-.34.04-.54.04-.97,0-1.65.69-1.65,1.7,0,2.62,0,5.24.02,7.86,0,.09.06.15.15.32l.11.02Z"/>
  <path d="M184.91,37.64c-.26.19-.39.32-.54.41-.11.06-.24.11-.41.15-.45-.41-.9-.84-1.33-1.27-1.91-1.87-4.23-2.75-6.85-2.79-2.32-.04-4.62,0-6.93,0-.34,0-.71.06-1.05.13-.97.21-1.29.54-1.44,1.48-.04.3-.04.62-.04.92v6.27c0,.34.04.71.06,1.14.32.04.62.13.9.13h7.86c.58,0,1.14-.13,1.72-.19,1.07-.13,1.76-.75,2.15-1.74.11-.28.24-.56.34-.86h1.29c.09,3.16.04,6.25,0,9.4h-1.29c-.11-.24-.24-.52-.34-.79-.36-1.03-1.14-1.55-2.17-1.74-.39-.06-.79-.09-1.2-.09h-8.39c-.26,0-.52.04-.86.09-.02.43-.06.82-.06,1.2v7.86c0,.45.04.88.13,1.31.15.71.45.97,1.18,1.05.26.02.54.02.79.02h8.65c3.05,0,5.62-1.12,7.66-3.39.26-.3.54-.58.86-.94.3.17.58.34.94.54-1.07,2.68-2.08,5.32-3.22,7.92h-27.52c-.06-.21-.13-.36-.15-.54,0-.17.02-.34.04-.58.39-.13.75-.28,1.12-.41,1.09-.39,1.8-1.12,1.97-2.3.09-.67.19-1.33.19-1.97v-22.11c0-.67-.09-1.33-.17-1.97-.15-1.12-.77-1.85-1.82-2.28-.21-.09-.41-.15-.62-.24-.44-.17-.66-.57-.64-1.18.02-.92.06-.06.11-.09.04-.02.09-.06.11-.06,8.39,0,16.79-.04,25.18-.04h1.01c.92,2.53,1.85,5.02,2.79,7.56Z"/>
  <path d="M276.14,30.12h1.55c.84,2.86,1.65,5.69,2.49,8.57-.28.24-.52.43-.75.62-.15-.06-.28-.11-.39-.17-.73-.67-1.4-1.37-2.17-1.97-3.28-2.66-7.08-3.56-11.23-3.05-.92.11-1.78.47-2.6.97-1.87,1.12-2.3,4.96.43,6.01,1.07.41,2.19.73,3.31,1.01,2.32.58,4.66,1.05,7,1.63,1.5.36,2.96.92,4.31,1.67,2.55,1.44,3.97,3.63,4.31,6.5.24,2.08.13,4.16-.79,6.12-1.05,2.23-2.77,3.8-4.96,4.81-3.09,1.44-6.38,1.8-9.75,1.5-2.15-.19-4.16-.79-6.1-1.76-.13-.06-.24-.13-.36-.17-.54-.21-.84-.13-1.14.32-.19.3-.32.62-.49.99-.47.24-.99.15-1.61.09-1.01-3.31-1.8-6.65-2.75-10.02.3-.21.58-.41.9-.62.34.36.64.69.94,1.01,1.5,1.59,3.13,3.03,5.07,4.08,3.28,1.78,6.78,2.23,10.43,1.46.52-.11,1.01-.32,1.48-.56,1.91-.99,2.77-2.75,2.43-5.02-.15-1.05-.73-1.93-1.7-2.43-.82-.43-1.67-.84-2.58-1.05-2.28-.58-4.57-1.07-6.85-1.61-1.61-.36-3.16-.88-4.62-1.63-3.71-1.95-5.15-5.37-4.57-9.36.47-3.24,2.28-5.52,5.15-6.98,1.85-.94,3.82-1.37,5.88-1.48,2.81-.15,5.47.3,7.99,1.63.9.47,1.07.39,1.5-.56.06-.15.13-.32.19-.52l.02-.02Z"/>
  <path d="M214.75,89.89c-.15.17-.21.28-.32.36-.13.11-.3.19-.45.3-.13-.06-.26-.09-.34-.17-.73-.67-1.4-1.37-2.17-1.97-3.13-2.53-6.72-3.5-10.69-3.13-.92.09-1.82.32-2.66.77-1.4.75-2.04,1.93-1.97,3.5.04,1.16.54,2.08,1.57,2.6.75.36,1.55.67,2.36.88,2.66.67,5.37,1.22,8.03,1.89,1.12.28,2.21.64,3.26,1.09,4.1,1.76,6.12,4.79,5.67,10.07-.32,3.78-2.43,6.38-5.77,8.03-1.87.9-3.84,1.37-5.88,1.52-3.46.26-6.8-.15-9.96-1.78-1.01-.52-1.2-.43-1.74.6-.11.19-.19.39-.3.62h-1.52c-.11-.3-.24-.56-.3-.86-.75-2.75-1.48-5.47-2.23-8.22-.04-.13-.09-.26-.11-.39-.13-.64-.11-.67.84-1.14.28.3.6.62.88.92,1.31,1.4,2.73,2.68,4.36,3.67,3.24,1.97,6.74,2.62,10.48,2.02.77-.13,1.55-.43,2.25-.79,2.08-1.05,2.79-3.37,2.19-5.45-.24-.84-.79-1.48-1.55-1.93-.88-.56-1.82-.9-2.83-1.14-2.34-.54-4.66-1.05-7-1.61-1.61-.39-3.16-.92-4.57-1.74-2.86-1.65-4.29-4.1-4.34-7.43-.02-4.29,1.95-7.32,5.86-8.97,4.29-1.8,8.63-1.8,12.88.26.36.17.73.34,1.03.47.77-.17.75-.84.99-1.4h1.57c.92,2.77,1.63,5.65,2.53,8.54h-.02Z"/>
  <path d="M487.16,82.76c.79-.21.77-.9,1.03-1.44h1.57c.82,2.83,1.65,5.67,2.49,8.59-.26.21-.52.43-.79.69-.17-.13-.34-.21-.45-.34-1.5-1.59-3.22-2.92-5.24-3.82-2.81-1.25-5.71-1.57-8.72-.92-.52.11-1.03.3-1.48.56-1.57.82-2.28,2.47-1.87,4.16.21.88.73,1.55,1.52,1.91.75.36,1.55.67,2.36.86,2.66.64,5.35,1.22,8.03,1.87,1.46.34,2.88.86,4.23,1.57,2.81,1.48,4.36,3.8,4.66,6.98.13,1.33.13,2.66-.17,3.97-.6,2.6-2.08,4.57-4.34,5.99-1.44.9-3.01,1.5-4.68,1.82-3.31.67-6.61.67-9.85-.39-.92-.3-1.8-.71-2.7-1.09-.82-.34-1.05-.3-1.48.49-.13.24-.21.49-.36.79h-1.63c-.9-3.33-1.78-6.63-2.68-10,.3-.24.54-.41.77-.6.15.09.3.11.39.19,1.09,1.05,2.1,2.17,3.26,3.13,2.9,2.45,6.29,3.61,10.07,3.56,1.25,0,2.47-.17,3.65-.62,2.3-.88,3.33-2.51,3.16-4.96-.09-1.14-.58-2.02-1.5-2.68s-1.95-1.01-3.05-1.27c-2.28-.54-4.57-1.05-6.87-1.59-1.65-.39-3.24-.92-4.7-1.78-3.11-1.8-4.42-4.55-4.29-8.11.13-3.86,2.4-7.23,6.87-8.69,4.16-1.35,8.31-1.22,12.26.86.19.11.41.19.62.3l-.06.02Z"/>
  <path d="M307.72,82.46v-.94c.13-.09.19-.17.26-.17h10.52c.09,0,.15.06.32.13v.97c-.36.15-.69.28-1.01.39-1.03.36-1.59,1.12-1.76,2.15-.13.84-.21,1.67-.21,2.51v16.12c0,1.52-.13,3.01-.56,4.46-.84,2.92-2.64,4.98-5.41,6.2-1.72.77-3.56,1.14-5.41,1.29-3.16.24-6.29.15-9.38-.73-1.33-.39-2.6-.88-3.78-1.61-2.98-1.85-4.51-4.55-4.81-8.01-.06-.62-.04-1.25-.04-1.87v-16.12c0-.67-.09-1.33-.17-1.97-.19-1.37-1.03-2.21-2.34-2.6-.13-.04-.26-.04-.39-.09s-.24-.11-.41-.17c0-.28-.02-.58-.04-.9.15-.06.26-.17.39-.17.58-.02,1.16-.02,1.74-.02h10.39c.43,0,.88.02,1.4.04v1.07c-.41.15-.77.28-1.16.41-1.01.34-1.63,1.07-1.87,2.08-.15.64-.24,1.31-.24,1.97,0,5.6-.04,11.18,0,16.79,0,1.09.19,2.21.47,3.28.47,1.78,1.65,3.03,3.41,3.63.97.32,1.97.54,2.96.69,2.04.28,4.08.17,6.07-.36,2.23-.62,3.56-2.08,4.06-4.31.19-.9.3-1.85.3-2.77.02-5.65,0-11.27,0-16.92,0-.26,0-.54-.02-.79-.13-1.65-.88-2.86-2.53-3.39-.21-.06-.41-.15-.73-.26h-.02Z"/>
  <path d="M135.37,72.01v-.97c.39-.24,12.92-.28,15.28-.09.02.3.04.62.09,1.01-.49.19-.94.34-1.4.52-1.4.54-2.1,1.57-2.25,3.03-.04.49-.04.97-.04,1.46v31.98c0,.71.04,1.42.17,2.13.19,1.14.92,1.89,1.97,2.32.45.17.92.32,1.46.52.02.32.06.64.09.99-.19.06-.3.17-.43.17-.84,0-1.7.02-2.53.02h-12.34c-.04-.41-.06-.73-.11-1.12.45-.17.86-.32,1.27-.45,1.29-.45,2.1-1.31,2.3-2.68.09-.52.13-1.05.13-1.59v-32.52c0-.58-.09-1.14-.17-1.72-.17-1.2-.92-2-2-2.47-.45-.19-.9-.34-1.48-.54Z"/>
  <path d="M463.01,81.45c.86,2.75,1.74,5.58,2.66,8.48-.28.24-.54.45-.79.67-.15-.11-.28-.17-.36-.26-.62-.75-1.22-1.52-1.87-2.25-1.44-1.65-3.22-2.6-5.47-2.6-.97,0-1.95-.06-2.92,0-.82.04-1.07.34-1.18,1.16-.06.43-.09.88-.09,1.33v21.32c0,.58.04,1.16.11,1.72.13,1.29.82,2.13,2.06,2.51.45.15.92.28,1.42.41v1.03c-1.12.17-12.99.19-14.36,0,0-.32-.04-.64-.06-1.03.52-.15.97-.28,1.44-.43,1.31-.39,2-1.27,2.1-2.6.04-.45.04-.88.04-1.33v-21.85c0-.41,0-.79-.04-1.2-.09-.67-.36-.99-1.01-1.05-1.78-.15-3.54-.17-5.28.34-.82.24-1.55.71-2.15,1.31s-1.16,1.22-1.72,1.87c-.43.49-.84,1.03-1.29,1.61-.28-.19-.54-.34-.77-.49.06-.94,1.87-6.98,2.6-8.65.02-.02.06-.06.09-.09.04-.02.09-.04.13-.04.3,0,.62-.04.92-.04h25.46c.09,0,.17.06.36.13l-.02.04Z"/>
  <path d="M248.62,89.97c-.24.19-.36.3-.52.41-.11.06-.24.11-.41.19-.45-.54-.88-1.12-1.35-1.63-.62-.69-1.27-1.37-1.95-2-.84-.77-1.89-1.25-2.98-1.35-1.35-.15-2.75-.15-4.12-.13-.9,0-1.14.28-1.29,1.2-.09.47-.11.97-.11,1.46v20.91c0,.71.09,1.42.17,2.13.15,1.18.82,1.93,1.93,2.32.45.15.94.28,1.5.43v1.14h-14.32c-.04-.17-.13-.32-.13-.49s.02-.34.04-.47c.11-.09.15-.17.24-.19.43-.13.86-.21,1.29-.36,1.25-.39,1.91-1.25,2.02-2.53.06-.58.09-1.16.09-1.74v-21.32c0-.45,0-.88-.06-1.33-.09-.73-.39-1.05-1.09-1.12-1.5-.13-3.03-.11-4.51.17-1.16.21-2.17.77-2.98,1.63-.97,1.03-1.89,2.13-2.9,3.26-.24-.13-.52-.3-.77-.45.15-1.12,2.13-7.53,2.7-8.74h26.83c.99,2.83,1.82,5.75,2.73,8.63l-.04-.02Z"/>
  <path class="cls-1" d="M106.86,44.44v20.54c-.3.11-.58.24-.88.3-5.43,1.44-10.63,3.46-15.48,6.33-3.74,2.23-7.04,4.94-9.79,8.35-2.08,2.6-3.76,5.41-4.44,8.69-.24,1.07-.39,2.19-.39,3.31,0,3.26.49,6.46,1.91,9.45.06.15.13.32.17.47-.15.49-.58.56-.94.71-2.23.88-4.55,1.12-6.93.94-3.8-.28-7.08-1.87-10.09-4.12-3.39-2.55-6.03-5.73-8.14-9.4-1.67-2.94-3.11-5.99-4.53-9.04-1.07-2.34-2.17-4.68-3.33-6.98-.62-1.22-1.35-2.38-2.13-3.54-.47-.69-1.03-1.33-1.61-1.93-2.45-2.58-5.69-2.36-8.03-.92-.79.47-1.46,1.14-2.13,1.78-.64.62-1.18,1.31-1.8,1.97-1.87,2-4.19,2.45-6.93,1.2-1.33-.6-2.38-1.59-3.18-2.77-.77-1.14-1.48-2.34-2.06-3.56-.79-1.67-1.5-3.41-2.15-5.17-1.05-2.92-2.79-5.35-5.09-7.38-1.07-.94-2.17-1.85-3.18-2.86-1.09-1.09-2.19-2.21-3.16-3.41-1.55-2.08-2.34-4.49-2.58-7.04,0-.09.04-.15.13-.36,1.59-.06,3.22,0,4.85-.02h19.73c1.63,0,3.26.09,5-.09.09-1.95.04-3.86.04-5.75V.2c1.07-.21,22.71-.28,24.62-.09.26.43.13.92.13,1.4v18.05c.39.06.67.15.97.15h4.27c.43,0,.88.02,1.44.04-.82,4.31-1.67,8.5-2.55,12.75-.39.04-.73.11-1.07.11h-4.66c-.43,0-.88,0-1.27.02-.45,1.09-2.38,10.58-2.4,11.89.32.04.64.13.97.13h4.53c.43,0,.86.04,1.37.06,0,.36,0,.62-.06.88-1.2,6.14-2.43,12.28-3.65,18.42-.19,1.01-.49,2-.62,2.98-.15,1.14-.26,2.3-.19,3.43.11,1.85,1.05,3.26,2.68,4.19,1.37.77,2.88,1.16,4.44,1.29,1.85.15,3.71.28,5.58.3,3.69.04,7.38,0,11.06,0h1.01c.62-2.15.94-4.29,1.35-6.4.41-2.08.94-4.12,1.18-6.35-.52-.02-.9-.06-1.29-.09-.84,0-1.7-.02-2.53-.04-.17,0-.36,0-.54-.02-1.8-.19-2.43-.88-2.36-2.68.02-.54.13-1.05.21-1.59.9-4.57,1.82-9.14,2.75-13.7.04-.17.11-.34.19-.58.34-.04.67-.11,1.01-.11h5.07c.43,0,.86-.04,1.27-.06.54-1.67,2.32-10.75,2.32-11.94-1.18-.13-2.36-.02-3.54-.06-1.18-.04-2.38.13-3.67-.13.82-4.27,1.67-8.46,2.53-12.62,1.22-.21,19.41-.21,20.65,0,0,.45.06.92.06,1.4,0,3.61-.04,7.19.02,10.8.02,1.42.15,2.86.43,4.23.67,3.16,2.25,5.75,4.87,7.71.17.13.34.28.56.45l-.02.02Z"/>
  <path class="cls-1" d="M65.84,19.86c1.31-.21,8.87-.21,10,0-2.88,14.47-5.75,28.94-8.63,43.38-1.25.26-8.87.26-9.98,0,2.88-14.47,5.75-28.94,8.63-43.36l-.02-.02Z"/>
  <path class="cls-1" d="M66.72,15.29c.52-3.13,1.2-6.2,1.85-9.4,1.14-.17,2.23-.06,3.33-.09h6.59c-.13,1.72-.58,3.24-.86,4.79-.28,1.57-.62,3.11-.94,4.66-1.05.19-8.35.24-9.94.04h-.02Z"/>
</svg>