<?xml version="1.0" encoding="UTF-8"?>
<svg id="_Слой_1" data-name="Слой 1" xmlns="http://www.w3.org/2000/svg" viewBox="0 0 807.39 162.16">
  <defs>
    <style>
      .cls-1 {
        fill: #054098;
      }
    </style>
  </defs>
  <g>
    <g>
      <path class="cls-1" d="M464.64,20.12v11.74h-77.29c-1.93,3.89-3.43,28.51.84,28.51h76.45v10.06h-33.6c-.82,5.31,2.45,9.79,6,13.38,8.28-5.56,13.71-8.25,24.24-6.66l-15.11,15.9c7.68,8.04,21.87,6.7,18.47,20.98-13.96-1.31-28.1-12.05-36.91-22.68-3.8-4.59-11.92-20.98-15.99-20.99-1.4,0-4.22,1.54-4.22,2.59v26.83c0,5.73,18.91-.58,20.16.83l-.22,9.84c-4.22,1.74-31.7,6.46-31.7,1.06v-38.57c-13.28-8.9-9.29,6.89-10.28,14.89-.54,4.38-3.57,22.06-5.65,24.55-2.53,3.04-8.87,1.28-12.63,1.64,2.87-10.35,5.93-21.97,6.7-32.7,1.16-16.03-2.27-36.84.12-51.86.7-4.4,4.68-9.33,9.13-9.33h81.49Z"/>
      <path class="cls-1" d="M773.78,35.21h30.24l-.22,9.84c-4.51,2.4-9.25,1.75-14.1,1.9-2.73.08-2.67-.64-2.5,2.51.89,16.48,13.44,36.31,20.19,51.12l-9.02,3.17c-4.17-.79-2.91-8.09-7.78-6.5l-.91,5.14-15.9-.11-.95,11.77-10.81-.02-1.57-11.02-15.99-.62-.93-5.14-6.11,6.58c-2.3.69-8.36-1.99-8.87-4.23-.39-1.72,12.72-26.66,14.59-32.09,2.21-6.4,3.44-13.09,5.29-19.59-.88-4.41-13.06-2.18-16.66-2.64v-10.07h27.73c5.19,0-1.95-15.21,8.4-15.24,8.87-.03,5.33,9.12,5.88,15.24ZM762.02,89.71c1.53-4.95,0-29.36,0-36.89,0-.38-2.9-3.07-3.35-2.51-1.88,13.63-6.56,27.5-13.42,39.41.19,3.33,15.5,4.08,16.76-.01ZM773.78,50.3v39.4c0,3.21,10.26,2.65,12.65,2.51,2.53-.14,2.81.7,2.5-2.51-5.81-11.02-8.33-23.07-12.29-34.72-.61-1.78-.37-5.06-2.85-4.68Z"/>
      <path class="cls-1" d="M536.88,57.01h42l1.54,7.41-2.38,2.65h-40.32c-3.6,0-3.6,15.09,0,15.09h42l2.38,2.68c.73,3.04.31,5.56-2.38,7.38h-42.84c-4.23,6.83,3.06,23.62-7.56,23.62-11.72,0-1.91-23.62-8.4-23.62h-42.84c-.44-2.4-.06-10.06,2.52-10.06h40.32c3.6,0,3.6-15.09,0-15.09h-39.48v-10.06h39.48l2.52-2.52v-31.86c0-3.43,11.76-3.43,11.76,0v30.18c0,.54,2.25,2.53,1.68,4.19Z"/>
      <path class="cls-1" d="M348.72,67.08l-.99,6.86c-9.66,2.76-20.16,2.21-29.98,3.34-8.24.95-7.89,6.13-1.88,10.02,8.29,5.36,32.95-10.13,34.52-8.48,2.23,11.01-6.58,11.69-14.74,14.66-1.23.45-5.31-.15-3.71,2.92.95,1.83,3.61,2.29,5.37,3.03,9.11,3.82,21.24.41,18.14,12.92-15.67-.14-29.46-7.93-42.83-15.11l-1.09,15.71c-8.24,7.2-15.66,2.01-13.23-8.99-13.9,4.96-28.79,9.04-43.67,8.38l1.59-7.64c6.75-1.56,39.85-4.89,42.09-9.97.28-.63.61-4.22-.85-4.2l-42.82,8.39c-3.29-13.16,12.15-10.3,22.15-12.25,6.17-1.21,12.2-2.57,18.16-4.53.4-2.92-3.82-1.58-5.85-1.66-11.98-.48-22.64,1.83-34.47,1.68l1.58-9.33,92.52-5.75Z"/>
      <path class="cls-1" d="M610.81,55.33h77.29v8.38h-83.17c-2.62,0-7.56-6.82-7.56-9.22v-30.18l2.52-2.52h85.69c3.57,0,3.71,24.26.95,26.1l-73.21.71c-5.51.92-3.26,2.79-2.5,6.73ZM676.33,38.57c.27-4.02.58-8-4.2-8.39-17.48,1.12-36.62-1.47-53.87-.09-10.71.86-10.38,8.48-6.62,8.48h64.68Z"/>
      <path class="cls-1" d="M305.87,20.12l2.54,7.55-5.17,1.75v25s4.95,1.06,4.95,1.06l.24,5.74c-5.65.94-4.81,1.7-6.63,6.79-6.42,3.69-8.67-1.88-11.94-3.4-6.32-2.94-24.87,1.87-32.8,2.08-6.37-6.54-1.62-7.5,4.27-10.51v-27.67h-6.73s2.53-8.38,2.53-8.38h48.72ZM275.88,28.76c-12.64,3.92,14.18,11.11,15.7,3.91,1.14-5.43-12.59-4.87-15.7-3.91ZM273.1,45.27c5.86-.79,13.91,2.32,18.46-2.51,0-3.88-15.36-2.27-18.46-2.51v5.02ZM275.88,50.56c-10.85,3.37,10.28,11.77,15.67,2.26.1-3.31-13.33-2.98-15.67-2.26Z"/>
      <path class="cls-1" d="M663.73,73.78c1.3-.42,2.01-4.2,2.84-4.68,1.34-.77,10.83-.69,11.35-.18l1.01,4.96,12.54-.12v10.08s-12.72,1.56-12.72,1.56c-2.9,8.78,3.61,24.41-6.46,28.77-4.79,2.07-26.14,3.36-27.68-1.21-5.06-15.02,17.67-5.71,20.91-10.58l-.95-18.55h-68.88v-10.06h68.04Z"/>
      <path class="cls-1" d="M711.62,60.36l-10.07,6.71c-3.04-13.98,5.65-20.05,12.03-30.73,5.39-9.02,4.02-18.9,18.19-16.21,2.01,5.38-8.39,18.71-8.39,20.95v72.1c0,3.43-11.76,3.43-11.76,0v-52.82Z"/>
      <path class="cls-1" d="M353.75,21.8c.12,3.43.28,6.78-.76,10.14-3.34,10.76-23.2,17.53.58,21.89l.17,11.56c-1.15,1.35-18.17-8.19-21.11-8.38-6.23-.4-15.43,8.56-22.55,8.37l.75-10.13,10.98-5.9-10.06-17.49c9.87-2.1,13.24,4.01,19.31,10.02,3.48-4.22,10.07-7.1,9.24-13.39h-30.24v-6.71h43.68Z"/>
      <path class="cls-1" d="M460.44,40.24c3.08.95,2.71,7.18,2.52,10.05l-68.9,1.69v-11.75h66.37Z"/>
      <polygon class="cls-1" points="573.85 26.84 563.51 50.04 550.33 50.29 558.99 27.1 573.85 26.84"/>
      <path class="cls-1" d="M509.99,50.3c-4.23-.46-11.28,1.51-14.32-1.62l-9.18-21.84c18.11-4.16,17.77,10.86,23.51,23.46Z"/>
      <path class="cls-1" d="M632.64,110.66c-3.44-.63-10.54,1.16-13.11-.33-2.06-1.2-8.15-16.61-10.41-19.77,16.09-3.47,19.03,7.46,23.51,20.1Z"/>
    </g>
    <g>
      <path class="cls-1" d="M221.02,0l-4.38,20.22-154.44-.14c-11.64,1.48-15.25,8.39-18.45,18.48-5.77,18.21-17.11,60.14-19.14,78.15-.48,4.23-.97,12,.7,15.73,1.12,2.49,9.29,8.42,11.73,8.42h69.72l-6.13,20.2c-24.57-2.01-52.74,2.52-76.86-.26C10.38,159.25-.35,149.83,0,135.76,11.65,99.85,15.18,54.39,28.24,19.71,30.99,12.39,42.64,0,50.49,0h170.53Z"/>
      <path class="cls-1" d="M209.26,48.63l-21.77,93.13c-2.68,8.39-15.93,19.22-24.43,19.22h-29.4l14.99-64.28c3.37-5.35,25.44-1.52,31.84-3,1.04-.72,6.57-22.5,6.66-24.48.06-1.41-1.2-3.82-2.24-3.82h-94.09c-3.86,0-13.07,26.7-6.72,30.18h32.76l-4.45,16.85c-14.94-1.4-32.28,1.6-46.88,0-4.59-.5-7.65-2.11-7.18-7.16.63-6.79,10.26-44.89,12.99-50.92.92-2.04,4.02-5.72,6.03-5.72h131.89Z"/>
    </g>
  </g>
  <g>
    <path class="cls-1" d="M267.16,162.16c-1.73,0-3.33-.28-4.81-.83-1.48-.55-2.75-1.34-3.83-2.36-1.07-1.02-1.91-2.22-2.51-3.61-.6-1.38-.91-2.91-.91-4.58s.3-3.19.91-4.58c.6-1.38,1.45-2.59,2.53-3.61,1.08-1.02,2.37-1.81,3.86-2.36,1.49-.55,3.12-.83,4.89-.83,2.06,0,3.9.34,5.53,1.03,1.62.69,2.97,1.68,4.03,2.97l-3.94,3.56c-.75-.81-1.56-1.42-2.42-1.83-.86-.41-1.83-.61-2.89-.61-.94,0-1.79.15-2.56.44-.77.29-1.43.71-1.97,1.27s-.96,1.21-1.27,1.97c-.3.76-.45,1.62-.45,2.58s.15,1.76.45,2.53.72,1.43,1.27,1.98,1.19.98,1.95,1.28c.76.3,1.6.45,2.51.45s1.81-.15,2.69-.45,1.76-.82,2.66-1.55l3.47,4.34c-1.25.9-2.7,1.58-4.34,2.06s-3.26.72-4.84.72ZM276.34,159.38l-5.47-.81v-8.25h5.47v9.06Z"/>
    <path class="cls-1" d="M285.24,161.72v-21.86h6.18v21.86h-6.18Z"/>
    <path class="cls-1" d="M298.18,161.72l9.65-21.86h6.09l9.68,21.86h-6.43l-7.56-18.83h2.44l-7.56,18.83h-6.31ZM303.45,157.47l1.59-4.56h10.68l1.59,4.56h-13.87Z"/>
    <path class="cls-1" d="M330.32,161.72v-21.86h5.09l12.06,14.56h-2.41v-14.56h6.06v21.86h-5.09l-12.06-14.56h2.41v14.56h-6.06Z"/>
    <path class="cls-1" d="M365.11,161.72v-16.96h-6.72v-4.9h19.58v4.9h-6.68v16.96h-6.18Z"/>
    <path class="cls-1" d="M385.26,161.72v-21.86h17.15v4.78h-11.03v12.31h11.43v4.78h-17.55ZM390.94,152.94v-4.62h10.15v4.62h-10.15Z"/>
    <path class="cls-1" d="M422.12,162.16c-1.73,0-3.33-.28-4.79-.83-1.47-.55-2.74-1.34-3.81-2.36-1.07-1.02-1.91-2.22-2.51-3.61-.6-1.38-.91-2.91-.91-4.58s.3-3.19.91-4.58c.6-1.38,1.44-2.59,2.51-3.61,1.07-1.02,2.34-1.81,3.81-2.36,1.47-.55,3.07-.83,4.79-.83,2.02,0,3.83.35,5.42,1.06,1.59.71,2.92,1.73,3.98,3.06l-3.94,3.56c-.71-.83-1.48-1.47-2.33-1.91s-1.79-.66-2.83-.66c-.9,0-1.72.15-2.47.44-.75.29-1.39.71-1.92,1.27-.53.55-.95,1.21-1.25,1.98s-.45,1.62-.45,2.56.15,1.79.45,2.56.72,1.43,1.25,1.98c.53.55,1.17.97,1.92,1.27.75.29,1.57.44,2.47.44,1.04,0,1.98-.22,2.83-.66.84-.44,1.62-1.07,2.33-1.91l3.94,3.56c-1.06,1.31-2.39,2.33-3.98,3.04-1.59.72-3.4,1.08-5.42,1.08Z"/>
    <path class="cls-1" d="M460.72,162.16c-1.79,0-3.51-.22-5.17-.67-1.66-.45-3-1.03-4.04-1.73l2.03-4.56c.98.62,2.11,1.14,3.39,1.55,1.28.41,2.56.61,3.83.61.85,0,1.54-.08,2.06-.23s.9-.36,1.14-.62c.24-.26.36-.57.36-.92,0-.5-.23-.9-.69-1.19-.46-.29-1.05-.53-1.78-.72s-1.54-.38-2.42-.56c-.89-.19-1.77-.43-2.66-.72-.89-.29-1.69-.67-2.42-1.14-.73-.47-1.32-1.08-1.78-1.84-.46-.76-.69-1.72-.69-2.89,0-1.31.36-2.5,1.08-3.56.72-1.06,1.8-1.92,3.23-2.56,1.44-.64,3.23-.97,5.37-.97,1.44,0,2.85.16,4.23.48s2.62.8,3.7,1.42l-1.91,4.59c-1.04-.56-2.07-.98-3.09-1.27-1.02-.28-2.01-.42-2.97-.42-.85,0-1.54.09-2.06.26-.52.18-.9.41-1.12.7-.23.29-.34.62-.34,1,0,.48.22.86.67,1.14s1.04.51,1.78.69c.74.18,1.55.36,2.44.55.88.19,1.77.42,2.66.7.88.28,1.69.66,2.42,1.12.73.47,1.32,1.08,1.76,1.84s.67,1.71.67,2.86c0,1.27-.36,2.44-1.08,3.51s-1.79,1.93-3.22,2.58c-1.43.65-3.22.97-5.39.97Z"/>
    <path class="cls-1" d="M478.21,161.72v-21.86h17.15v4.78h-11.03v12.31h11.43v4.78h-17.55ZM483.9,152.94v-4.62h10.15v4.62h-10.15Z"/>
    <path class="cls-1" d="M504.17,161.72v-21.86h5.09l9.06,14.87h-2.69l8.81-14.87h5.09l.06,21.86h-5.69l-.06-13.21h.97l-6.59,11.06h-2.75l-6.78-11.06h1.19v13.21h-5.72Z"/>
    <path class="cls-1" d="M538.93,161.72v-21.86h6.18v21.86h-6.18Z"/>
    <path class="cls-1" d="M565.39,162.16c-1.73,0-3.33-.28-4.79-.83-1.47-.55-2.74-1.34-3.81-2.36-1.07-1.02-1.91-2.22-2.51-3.61-.6-1.38-.91-2.91-.91-4.58s.3-3.19.91-4.58c.6-1.38,1.44-2.59,2.51-3.61,1.07-1.02,2.34-1.81,3.81-2.36,1.47-.55,3.07-.83,4.79-.83,2.02,0,3.83.35,5.42,1.06,1.59.71,2.92,1.73,3.98,3.06l-3.94,3.56c-.71-.83-1.48-1.47-2.33-1.91s-1.79-.66-2.83-.66c-.9,0-1.72.15-2.47.44-.75.29-1.39.71-1.92,1.27-.53.55-.95,1.21-1.25,1.98s-.45,1.62-.45,2.56.15,1.79.45,2.56.72,1.43,1.25,1.98c.53.55,1.17.97,1.92,1.27.75.29,1.57.44,2.47.44,1.04,0,1.98-.22,2.83-.66.84-.44,1.62-1.07,2.33-1.91l3.94,3.56c-1.06,1.31-2.39,2.33-3.98,3.04-1.59.72-3.4,1.08-5.42,1.08Z"/>
    <path class="cls-1" d="M592.41,162.16c-1.75,0-3.36-.28-4.84-.84-1.48-.56-2.76-1.36-3.86-2.39-1.09-1.03-1.94-2.23-2.55-3.61-.6-1.37-.91-2.88-.91-4.53s.3-3.15.91-4.53c.6-1.38,1.45-2.58,2.55-3.61,1.09-1.03,2.38-1.83,3.86-2.39,1.48-.56,3.09-.84,4.84-.84s3.39.28,4.86.84c1.47.56,2.74,1.36,3.83,2.39,1.08,1.03,1.93,2.23,2.55,3.61.61,1.37.92,2.88.92,4.53s-.31,3.16-.92,4.54c-.61,1.38-1.46,2.59-2.55,3.61-1.08,1.02-2.36,1.81-3.83,2.37-1.47.56-3.09.84-4.86.84ZM592.41,157.03c.83,0,1.61-.15,2.33-.44.72-.29,1.34-.71,1.87-1.27.53-.55.95-1.21,1.25-1.98.3-.77.45-1.62.45-2.56s-.15-1.82-.45-2.58c-.3-.76-.72-1.42-1.25-1.97-.53-.55-1.16-.97-1.87-1.27-.72-.29-1.49-.44-2.33-.44s-1.61.15-2.33.44c-.72.29-1.34.71-1.87,1.27-.53.55-.95,1.21-1.25,1.97-.3.76-.45,1.62-.45,2.58s.15,1.79.45,2.56.72,1.43,1.25,1.98c.53.55,1.16.97,1.87,1.27.72.29,1.49.44,2.33.44Z"/>
    <path class="cls-1" d="M612.77,161.72v-21.86h5.09l12.06,14.56h-2.41v-14.56h6.06v21.86h-5.09l-12.06-14.56h2.41v14.56h-6.06Z"/>
    <path class="cls-1" d="M642.91,161.72v-21.86h10.34c2.42,0,4.54.45,6.37,1.34,1.83.9,3.26,2.16,4.29,3.78s1.55,3.56,1.55,5.81-.52,4.16-1.55,5.79-2.46,2.9-4.29,3.79-3.96,1.34-6.37,1.34h-10.34ZM649.1,156.78h3.9c1.25,0,2.34-.23,3.26-.7.93-.47,1.65-1.16,2.17-2.06.52-.91.78-1.98.78-3.23s-.26-2.35-.78-3.25c-.52-.9-1.24-1.58-2.17-2.05-.93-.47-2.01-.7-3.26-.7h-3.9v11.99Z"/>
    <path class="cls-1" d="M683.77,162.16c-3.23,0-5.75-.88-7.56-2.66-1.81-1.77-2.72-4.28-2.72-7.53v-12.12h6.18v11.93c0,1.87.37,3.22,1.11,4.03.74.81,1.75,1.22,3.05,1.22s2.3-.41,3.03-1.22c.73-.81,1.09-2.16,1.09-4.03v-11.93h6.09v12.12c0,3.25-.91,5.76-2.72,7.53-1.81,1.77-4.33,2.66-7.56,2.66Z"/>
    <path class="cls-1" d="M714.1,162.16c-1.73,0-3.33-.28-4.79-.83-1.47-.55-2.74-1.34-3.81-2.36-1.07-1.02-1.91-2.22-2.51-3.61-.6-1.38-.91-2.91-.91-4.58s.3-3.19.91-4.58c.6-1.38,1.44-2.59,2.51-3.61,1.07-1.02,2.34-1.81,3.81-2.36,1.47-.55,3.07-.83,4.79-.83,2.02,0,3.83.35,5.42,1.06,1.59.71,2.92,1.73,3.98,3.06l-3.94,3.56c-.71-.83-1.48-1.47-2.33-1.91s-1.79-.66-2.83-.66c-.9,0-1.72.15-2.47.44-.75.29-1.39.71-1.92,1.27-.53.55-.95,1.21-1.25,1.98s-.45,1.62-.45,2.56.15,1.79.45,2.56.72,1.43,1.25,1.98c.53.55,1.17.97,1.92,1.27.75.29,1.57.44,2.47.44,1.04,0,1.98-.22,2.83-.66.84-.44,1.62-1.07,2.33-1.91l3.94,3.56c-1.06,1.31-2.39,2.33-3.98,3.04-1.59.72-3.4,1.08-5.42,1.08Z"/>
    <path class="cls-1" d="M735.34,161.72v-16.96h-6.72v-4.9h19.58v4.9h-6.68v16.96h-6.18Z"/>
    <path class="cls-1" d="M766.2,162.16c-1.75,0-3.36-.28-4.84-.84-1.48-.56-2.76-1.36-3.86-2.39-1.09-1.03-1.94-2.23-2.55-3.61-.6-1.37-.91-2.88-.91-4.53s.3-3.15.91-4.53c.6-1.38,1.45-2.58,2.55-3.61,1.09-1.03,2.38-1.83,3.86-2.39,1.48-.56,3.09-.84,4.84-.84s3.39.28,4.86.84c1.47.56,2.74,1.36,3.83,2.39,1.08,1.03,1.93,2.23,2.55,3.61.61,1.37.92,2.88.92,4.53s-.31,3.16-.92,4.54c-.61,1.38-1.46,2.59-2.55,3.61-1.08,1.02-2.36,1.81-3.83,2.37-1.47.56-3.09.84-4.86.84ZM766.2,157.03c.83,0,1.61-.15,2.33-.44.72-.29,1.34-.71,1.87-1.27.53-.55.95-1.21,1.25-1.98.3-.77.45-1.62.45-2.56s-.15-1.82-.45-2.58c-.3-.76-.72-1.42-1.25-1.97-.53-.55-1.16-.97-1.87-1.27-.72-.29-1.49-.44-2.33-.44s-1.61.15-2.33.44c-.72.29-1.34.71-1.87,1.27-.53.55-.95,1.21-1.25,1.97-.3.76-.45,1.62-.45,2.58s.15,1.79.45,2.56.72,1.43,1.25,1.98c.53.55,1.16.97,1.87,1.27.72.29,1.49.44,2.33.44Z"/>
    <path class="cls-1" d="M786.56,161.72v-21.86h9.78c3.19,0,5.64.72,7.36,2.17s2.58,3.42,2.58,5.92c0,1.64-.4,3.07-1.19,4.26-.79,1.2-1.91,2.11-3.36,2.75-1.45.64-3.17.95-5.17.95h-6.56l2.75-2.59v8.4h-6.18ZM792.75,153.97l-2.75-2.84h6.18c1.29,0,2.25-.28,2.89-.84.63-.56.95-1.34.95-2.34s-.32-1.81-.95-2.37c-.64-.56-1.6-.84-2.89-.84h-6.18l2.75-2.84v12.09ZM800.09,161.72l-5.44-7.96h6.59l5.47,7.96h-6.62Z"/>
  </g>
</svg>