<?xml version="1.0" encoding="UTF-8"?>
<svg id="_Слой_1" data-name="Слой 1" xmlns="http://www.w3.org/2000/svg" viewBox="0 0 1147.81 174.62">
  <defs>
    <style>
      .cls-1 {
        fill: #d6000f;
      }

      .cls-2 {
        fill: #717171;
      }
    </style>
  </defs>
  <g>
    <path class="cls-1" d="M116.41,0l-24.1,66.26c-.21.4.52,1.13.67,1.13h60.67c.22,0,1.08-.53,1.23-.87L179.05,0h52.78l-61.07,165.11c-2.06,4.87-8.89,9.5-14.15,9.5h-41.68l30.58-83.62h-61.9l-31.57,83.62H0L64.12,0h52.29Z"/>
    <path class="cls-1" d="M405.95,0l-23.67,64.93L467.12,0h38.97l-86.76,67.24,54.7,106.88h-48.59c-1.77,0-6.78-3.27-8.15-4.66-12.98-21.01-22.92-43.97-34.75-65.69-.48-.89-3.05-5.8-3.47-5.9l-13.16,10.48-24.81,66.25h-52.04L353.17,0h52.78Z"/>
    <polygon class="cls-1" points="318.15 0 253.29 174.62 201.25 174.62 265.87 0 318.15 0"/>
  </g>
  <g>
    <path class="cls-2" d="M675.77.49l-8.22,21.66h-74.39c-9.26,1.18-15.43,11.23-12.73,20.05,3.6,11.8,28.1,31.53,37.16,41.65,16.48,18.42,24.61,41.48,11.59,64.7-6.32,11.26-23.52,25.57-37,25.57h-105.31l8.2-21.58,82.06-.4c8.77-3.35,13.65-13.4,9.47-22.13-12.12-25.29-46.36-42.24-50.76-71.37-3.62-23.9,10.11-48.52,33.53-55.82,1.87-.58,7.93-2.33,9.5-2.33h96.93Z"/>
    <g>
      <path class="cls-2" d="M816.34,173.63L881.52,1.05l44.6.39,14.03,77.25c4.81-3.82,8.41-8.84,12.57-13.29L1012.91.98h45.13l-65.36,172.65h-42.17l40.44-106c.07-1.92-2.91,1.4-3.2,1.72-17.14,18.33-33.72,37.17-51.05,55.33l-26.83.28-10.64-59.05-40.45,107.72h-42.42Z"/>
      <path class="cls-2" d="M846.43.49l-11.66,30.92-94.41.29-16.75,44.54h88.79l-8.22,22.16-88.39.04-16.13,43.69.53,1h93.97l-8.47,23.28c-1.36,3.01-6.73,7.71-10.02,7.71h-126.52L712.76.49h133.67Z"/>
      <polygon class="cls-2" points="1147.81 .49 1083.44 174.12 1031.41 174.12 1095.53 .49 1147.81 .49"/>
    </g>
  </g>
</svg>