<?xml version="1.0" encoding="UTF-8"?>
<svg id="_Слой_1" data-name="Слой 1" xmlns="http://www.w3.org/2000/svg" viewBox="0 0 1279 333.4">
  <defs>
    <style>
      .cls-1 {
        fill: #e10212;
      }

      .cls-2 {
        fill: #0459a8;
      }
    </style>
  </defs>
  <g>
    <path class="cls-1" d="M1279,200.78v8.97l-2.01,5.98c-14.32-1.88-30.05-5.95-44.49-5.02-4.52.29-25,2.28-20.98,10.04.12.23,3.64,3.48,3.87,3.61,5.76,3.27,18,5.86,24.8,8.67,7.73,3.2,28.38,13.16,32.39,20,2.46,4.19,3.54,12.2,2.39,16.85-.17.67-1.5.68-1.63,1.02-5.92,14.64-23.47,21.19-37.86,23.56-20.79,3.42-45.75,1.99-66.82-.03-3.35-.32-7.58-2.73-11.59-2.43,1.51-4.38,2.47-8.78,2.01-13.45,6.83-1.36,13.19,1.64,19.45,2.03,11.27.71,33.27,1.28,44.03,0,1.82-.22,12.22-3.61,12.51-4.66,1.27-4.67-9.58-9.08-13.18-10.68-15.82-7.04-33.92-11.21-48.43-21.01-7.31-4.94-8.4-15.82-3.98-23.12,15.2-25.09,69.41-25.15,95.03-22.34,4.68.51,9.16,3.22,14.48,2Z"/>
    <path class="cls-1" d="M905.29,197.78c1.33,4.54-1.17,8.27-1.77,11.7-3.06,17.58-6.55,34.69-9.99,51.85-7.25,36.09-2.6,55.77-43.75,67.03-23.94,6.55-49.76,5-74.38,4.04,2.32-4.62,1.49-9.11,3.14-13.82,22.74-1.1,69.09,5.34,68.8-28.06-2.69-.81-1.49,1.42-2.73,1.94-11.75,4.94-32.35,5.58-44.42,1.74-33.44-10.67-34.01-47.57-12.84-71.01,18.08-20.03,47.54-27.49,73.2-18.33.96.34,1.32,3.16,4.78,1.91v-4.01s39.97-4.98,39.97-4.98ZM854.96,217.14c-6.36-3.81-12.63-2.31-19.01.7-17.14,8.06-30.2,36.94-24.04,54.71,1.85,5.34,8.07,10.11,13.94,10.1,22.39-.04,38.1-41.21,33.2-59.17-.54-1.99-2.33-5.29-4.09-6.34Z"/>
    <path class="cls-1" d="M1070.16,198.78l27.46,55.84,31.49-55.84h41.97l-10.12,19.1c-16.05,25.12-28.1,52.06-44.03,77.93-16.72,27.14-51.32,37.07-81.75,37.59-.47-.47,2.11-12.44,2.46-13,1.38-2.17,8.81-1.76,11.54-2.44,3.54-.88,13.9-7.08,17.2-9.54,1.9-1.42,9.54-9.3,9.46-11.22l-44.66-98.42h38.97Z"/>
    <path class="cls-1" d="M638.5,296.51l18.47-92.75c12.98-3.15,26.88-4.18,40.47-5.97.47,2.93-.26,4.73-1.99,6.97,6.25-1.43,12.96-3.52,19.45-4.01,14.55-1.11,46.64,2.6,54.29,16.69,4.59,8.46.1,15.17-1.57,23.96-2.55,13.43-5.24,26.57-8,39.88-.95,4.57-1.33,10.48-2.22,15.23h-39.97c2.86-14.35,5.56-28.74,8.23-43.14,1.79-9.68,5.15-17.53,3.8-28.2s-14.44-12.83-23.29-10.38c-.73.2-.58,1.42-1.56,1.85-3.21,1.41-5.02,1.9-7.46,5.34-5.11,7.2-7.34,14.95-9.44,23.43-4.2,16.95-5.31,34.61-10.26,51.09h-38.97Z"/>
    <path class="cls-1" d="M619.08,205.21c18.12,9.43,25.09,30.13,17.89,49.39-10.26,27.45-50.05,44.59-77.81,41.8-48.67-4.89-63.95-50.33-24.81-81.62,22.04-17.62,58.38-23.28,84.72-9.57ZM595.16,213.13c-6.87-4.43-11.06-2.23-17.65,1.07-13.85,6.92-26.57,27.84-27.98,42.88-1.61,17.21,5.84,31.92,24.91,22.86,14.51-6.9,28.73-32.23,29.13-47.79.15-5.98-3.17-15.64-8.4-19.02Z"/>
    <path class="cls-1" d="M1020.06,214.6c-15.44-.24-30.68-5.19-46.31-3.84-3.08.27-15.42,2.73-17.66,4.05-3.68,2.17-2.85,6.1.43,8.22,8.25,5.34,25.94,9.17,35.9,13.74,6.33,2.91,21.7,12.28,24.67,18.67,8.64,18.61-13.44,32.53-28.63,36.8-8.71,2.45-17.08,1.87-25.72,4.25-20.6.71-41.05-1.58-61.45-3.98-1.02-5.19,1.59-9.02,2.04-13.92,6.58-1.48,12.47,1.51,18.4,1.99,10.43.85,44.14,1.17,52.71-2.13.24-.09,2.76-2.42,2.79-2.6.83-5.23-8.84-9.12-12.84-10.92-13.95-6.28-42.49-13.32-51.68-25.22-11.2-14.5,8.61-29.24,20.67-34.33,12.37-5.22,36.8-9.11,50.37-8.64,12.06.41,25.38,3.27,37.48,4.47,1.93,1.27-.49,10.81-1.2,13.38Z"/>
    <path class="cls-1" d="M495.61,294.51h-39.97l24.03-123.6,38.45-6.07c4.64.33,0,10.79-.48,13.55-6.16,36.05-15.47,71.53-21.8,107.88-.48,2.74-.19,5.5-.23,8.24Z"/>
  </g>
  <g>
    <path class="cls-2" d="M107.92,83.11c-10.48-40.31-16.4-108.07,47.13-73.68l18.81,12.88-.5,1.99c-9.09-3.22-15.59-7.41-25.88-5.91-22.4,3.25-20.83,34.43-18.57,50.77.47,3.38.69,1.56.99,2.67.65,2.39-.58,6.08.03,8.61.16.67,3.52,7.01,3.98,8.66.61,2.21,1.68,4.76,2,5.98,1.52,5.88,1.92,9.73,4.33,15.63.14.35,1.49.34,1.64,1.02.34,1.5-.32,3.25,0,4.64.25,1.06,1.96.56,2.02.65.44.7,3.08,10.8,4,12.96,4.34,10.22,10.59,21.77,15.99,30.91,1.23,2.09,3.84,5.63,4,5.98,6.67,15.31,15.45,28.7,23.98,41.88,1.99,3.08,3.98,5.95,6,8.97,4.71,7.07,9.11,15.58,14.31,22.62.9,1.22,5.45,4.02,5.67,4.3,2.47,3.13,5.7,7.13,7.99,9.97,1.2,1.48,2.12,5.43,2.32,5.67,3.53,4.26,10.06,8.68,13.67,12.28,1.22,1.22,2.62,2.69,4,3.99,7.68,7.24,7.73,8.18,16.99,13.96,12.2,7.61,19.02,14.48,35.41,11.9,6.38-1,17.55-10.87,17.55-17.39v-18.45c3.09-.5,1.56.86,2,2.45,4.26,15.09,5.73,47.3-7.52,58.36-.72.6-6.76,4.88-7.19,4.97-22.01,4.77-47.12-15.54-62.76-28.9-.87-.74-2.24-.77-2.48-.98-3.37-2.94-8.84-8.69-11.99-11.97-1.75-1.82-4.81-4.67-6-5.98-4.33-4.77-10.06-12.15-14.99-17.95-1.58-1.86-8.74-9.34-8.99-9.97-2.75-6.91-5.69-8.53-9.67-14.28-2.69-3.9-5.75-7.96-8.32-11.65s-5.44-8.08-7.99-11.97c-7.53-11.45-16.32-27.43-22.98-39.89-1.28-2.39-4.8-7.52-5-7.98-4.12-9.55-8.78-19.37-12.99-28.92-1.88-4.27-3.24-8.71-5-12.96-2.9-7.04-6.46-14.31-8.99-21.94-.85-2.57-2.42-6.08-3-7.98-1.49-4.92-2.69-10.93-4-15.95Z"/>
    <path class="cls-1" d="M167.87,166.87c17.99-12.18,36.18-21.82,55.11-32.03,60.65-32.73,129.52-64.36,194.78-84.86,7.86-2.47,1.91,2.81-.86,5.17-67.5,57.57-141.77,108.3-220.22,149.73l-4.83,3.87c-8.53-13.19-17.31-26.57-23.98-41.88Z"/>
    <path class="cls-1" d="M147.88,129.98c6.15-4.11,12.9-7.27,19.24-11,55.87-32.86,120.88-66.4,182.76-88.02,4.15-1.45,8.2-4.24,12.83-3.67l-1.27,3.71c-45.91,34.42-91.36,68.64-140.45,97.89-18.77,11.18-38.46,20.71-57.13,32.01-5.4-9.14-11.65-20.7-15.99-30.91Z"/>
    <path class="cls-1" d="M197.85,217.73c8.08-5.8,16.73-10.04,25.24-14.99,52.08-30.33,115.85-62.66,173.42-83.62,2.16-.79,17.45-5.7,18.17-5.09.96.81-3.19,4.5-3.76,4.99-48.61,41.53-116.36,84.94-171.94,115.54-6.65,3.66-13.93,7.78-21.14,10.1-.22-.28-4.77-3.08-5.67-4.3-5.2-7.04-9.6-15.55-14.31-22.62Z"/>
    <path class="cls-1" d="M146.89,178.84c6.66,12.46,15.45,28.44,22.98,39.89-8.31,4.57-16.87,8.94-25.43,13.03-37.88,18.09-78.6,34.16-118.62,49.1-8.61,3.21-17.02,6.98-25.82,9.67,0-.66,0-1.33,0-1.99l7.45-4.99c43.83-38.53,91.01-71.93,139.44-104.7Z"/>
    <path class="cls-1" d="M135.89,95.08l4.83-3.87c45.47-25.65,93.64-52.09,141.86-71.81,7.48-3.06,16.46-6.82,24.18-8.07-2.63,2.89-6.4,7.17-9.38,9.54-44.36,35.26-96.9,64.97-145.84,93.82l-7.65,2.33c-.06-.09-1.77.4-2.02-.65-.32-1.39.34-3.14,0-4.64-.15-.67-1.5-.67-1.64-1.02-2.41-5.9-2.81-9.75-4.33-15.63Z"/>
    <path class="cls-1" d="M225.82,254.62c31.33-19.17,62.65-36.37,95.9-52.37,22.21-10.69,45.19-21.04,67.63-29.74.33-.13.32-1.38,1.07-1.6,2.08-.61,5.84-.26,8.25-1.05.79,3.2-1.89,1.31-2.78,2.2-5.59,5.54-8.64,7.61-14.97,12.42-41.63,31.65-88.96,62.84-134.97,86.93-1.2.63-1.67,2.02-4.15,1.15-3.61-3.6-10.14-8.02-13.67-12.28-.2-.24-1.12-4.19-2.32-5.67Z"/>
    <path class="cls-1" d="M177.86,230.69c2.57,3.69,5.63,7.75,8.32,11.65,3.97,5.75,6.92,7.37,9.67,14.28-6.41,4.46-14.07,7.93-21.12,11.33-34.62,16.73-69.41,30.73-104.91,45.88l-13.85,4.61,4.38-5.56c35.16-25.44,70.14-52.57,106.26-76.18,3.23-2.11,7.66-4.55,11.26-6Z"/>
    <path class="cls-1" d="M128.9,141.94c4.21,9.55,8.87,19.36,12.99,28.92-2.95,3.44-7.27,4.24-11.14,6.12-25.14,12.15-52.12,25.13-77.59,35.66-13,5.37-26.41,9.83-39.28,15.52-9.93-.24,2.72-5.33,4.5-9.01,28.79-21.46,57.22-42.43,86.76-62.58l23.76-14.62Z"/>
    <path class="cls-1" d="M128.9,69.15c7.6-5.59,15.88-9.52,24.14-14.08,13.85-7.64,28.77-15.1,43.98-21.94,11.24-5.06,29.84-14.57,41.56-17.56,5.97-1.52,6.95.16,2.44,3.66-26.93,20.93-55.11,41.51-83.99,57.77-7.56,4.26-15.56,7.98-23.14,12.09-.46-1.65-3.81-7.99-3.98-8.66-.61-2.53.62-6.22-.03-8.61-.3-1.11-.52.71-.99-2.67Z"/>
    <path class="cls-1" d="M245.81,276.56c1.68-.55,3.63-1.24,5.14-2.13,18.37-10.77,35.84-21.42,55.46-30.63,13.12-6.16,36.57-17.71,50.1-20.81,1.75-.4,3.44-.41,5.21-.28l-6.38,7.56c-24.76,18.21-49.1,36.76-76.4,52.14-5.06,2.85-11.03,5.19-16.14,8.1-9.26-5.78-9.3-6.72-16.99-13.96Z"/>
    <path class="cls-1" d="M204.84,266.59c4.92,5.8,10.66,13.18,14.99,17.95-11.8,7.12-24.79,12.27-37.14,18.07-18.09,8.5-41.74,21.34-60.86,27.22-4.41,1.36-7.16.89-2.85-2.84,23.12-19.98,52.52-36.71,77.64-54.09l8.22-6.31Z"/>
    <path class="cls-1" d="M114.91,107.04c2.53,7.63,6.09,14.9,8.99,21.94-4.01,2.35-8.56,3.65-12.74,5.69-23.39,11.39-55.42,28.89-79.78,36.15-6.98,2.08-8.68,1-2.62-3.95,16.87-13.79,39.15-29.12,57.56-41.49,9.34-6.27,19.64-11.48,28.59-18.34Z"/>
    <path class="cls-1" d="M225.82,290.52c3.15,3.28,8.62,9.03,11.99,11.97.62,2.99-1.54,1.68-3.18,2.26-15.21,5.42-30.71,14.56-45.56,19.58-1.66.56-4.33.38-6.21,1.08-.46-3.01,1.72-5.16,3.78-6.91,8.05-6.85,18.21-12.08,25.58-19.59l13.6-8.4Z"/>
    <path class="cls-1" d="M107.92,83.11c1.3,5.02,2.51,11.04,4,15.95-3.74,3.02-8.92,4.26-13.16,6.11-9.99,4.35-21.56,10.64-32.81,13.33-4.37,1.04-7.38.94-2.92-2.91,9.49-8.19,19.81-15.08,29.67-22.18,4.75-3.42,9.31-8.72,15.22-10.3Z"/>
  </g>
</svg>