<?xml version="1.0" encoding="UTF-8"?>
<svg id="_Слой_1" data-name="Слой 1" xmlns="http://www.w3.org/2000/svg" viewBox="0 0 534.41 182.73">
  <defs>
    <style>
      .cls-1 {
        fill: #0a3bec;
      }
    </style>
  </defs>
  <g>
    <polygon class="cls-1" points="0 182.73 23.12 7.19 88.82 109.35 102.54 7.19 128.55 5.75 105.42 182.72 37.57 79.14 24.55 182.73 0 182.73"/>
    <path class="cls-1" d="M226.76,152.52c-22.02,38.39-88.81,37.97-93.87-12.24-7.98-79.18,114.49-98.55,103.35-9.25l-79.57,2.78c-2.11.28-2.41-.82-2.07,2.07,2.43,20.61,21.85,31.65,40.87,22.16,1.89-.94,6.02-5.53,7.45-5.53h23.83ZM157.43,116.55h55.61c6.02,0-4.55-17.41-6.51-19.41-16.51-16.82-45.24-.65-49.1,19.41Z"/>
  </g>
  <g>
    <path class="cls-1" d="M534.41,103.6h-26c-16.86-35.01-56.58-8.44-57.67,22.52-1,28.27,26.62,41.25,48.27,22.07,1.54-1.36,4.64-7.18,5.79-7.18h23.83c-16.68,40-80.68,55.12-95.76,5.47-19.49-64.13,78.4-118.96,101.54-42.88Z"/>
    <g>
      <path class="cls-1" d="M300.43,0l-4.33,43.17h20.22l-2.88,24.47-23.13,1.42c1.1,18.4-12.94,53.42-6.12,70.14,2.78,6.83,14.64,13.02,20.55,16.91l-13.83,20.98c-51.94-17.66-29.13-66.01-25.14-105.88,2.12-5.4,18.67-11.05,24.55-13.68,2.6-3.54-17.32-11.8-18.53-15.32-2.95-8.59,4.5-28.65,2.64-38.62l2.17-3.59h23.83Z"/>
      <path class="cls-1" d="M277.31,54.69c1.21,1.58-31.15,18.86-36.11,14.38l2.91-25.89c13.96-3.03,21.38,7.42,33.2,11.51Z"/>
    </g>
    <path class="cls-1" d="M401.51,83.45l1.66-7,18.58-.19-13,100.73-20.23,1.43,1.43-17.27c-45.91,42.98-94.4.57-71.45-54.65,13.64-32.81,56.36-54.94,83.01-23.05ZM371.93,88.57c-31.6-.54-53.37,48.16-27.22,65.15,28.52,18.53,63.9-24.11,48.2-52.33-4.37-7.85-11.83-12.66-20.98-12.82Z"/>
  </g>
</svg>