<?xml version="1.0" encoding="UTF-8"?>
<svg id="_Слой_1" data-name="Слой 1" xmlns="http://www.w3.org/2000/svg" viewBox="0 0 768.12 356.89">
  <defs>
    <style>
      .cls-1 {
        fill: #0467b8;
      }

      .cls-2 {
        fill: #e30317;
      }
    </style>
  </defs>
  <g>
    <path class="cls-1" d="M207.1,184.62c.33.36,1.66,5.88,2.8,7.69,8.17,12.98,33.94,44.63,33.12,59.6-.49,8.98-16.59,18.36-23.68,23.48-35.43,25.56-72.87,48.67-108.14,74.48-3.03,2.22-6.73,9-10.39,6.47-5.97-11.05-15.57-23.85-19.47-35.72-1.94-5.9-3.62-10.8-.08-16.59l114.38-81.46c13.2-11.82,15.03-19.06,9.55-36.55-.82-1.75,1.54-1.79,1.91-1.39Z"/>
    <path class="cls-1" d="M186.78,200.23c-36.88,27.74-77.42,51.41-114.59,78.76-10.13,7.45-8.03,14.23-17.45-.68-3.87-6.12-16.56-31.04-16.29-37.17.08-1.89,1.63-4.64,2.26-6.55,44.25-34.51,93.46-63.35,137.06-98.79,2.61-.46,13.78,18.89,15.53,22.2,3.97,7.53,10.37,18.25,8.59,26.88-1.19,5.78-10.39,11.8-15.1,15.34Z"/>
    <polygon class="cls-1" points="37.62 238.5 38.12 239 37.62 239.5 37.62 238.5"/>
    <g>
      <path class="cls-1" d="M143.12,34.92c-2.17,7.02-14.44,7.38-12.61,16.04.36,1.69,2.21,1.84,2.89,3.19,8.38,16.82,16.31,28.5,26.7,43.38,1.55,2.22,2.22,6.87,6.02,7.24-.19,4.97-.87,7.29-4.65,10.82-33.5,25.78-73.33,47.6-106.26,73.59-16.04,12.66-28.41,27.02-18.09,48.31-2.62-.29-5.12-5.01-6.38-7.09-5.78-9.51-12.53-21.35-17.78-31.15-5.8-10.82-19.44-31.1-9.31-41.57l129.16-91.09c2.54-8.26-5.24-12.18-3.43-19.94,1.39-5.94,9.21-8.29,13.75-11.73Z"/>
      <path class="cls-2" d="M143.12,34.92L189.11,0c-.75,2.85-2.39,4.7-2.55,7.94-.52,10.75,21.28,32.17,23.15,42.92.9,5.13-2.14,8.25-5.59,11.51-8.35,7.88-30.24,18.67-36.03,26.2-4.62,6.01-1.72,9.64-1.98,16.2-3.8-.37-4.47-5.02-6.02-7.24-10.39-14.88-18.32-26.56-26.7-43.38-.67-1.35-2.53-1.5-2.89-3.19-1.83-8.66,10.44-9.02,12.61-16.04Z"/>
    </g>
  </g>
  <g>
    <path class="cls-1" d="M499.62,187.61c.58.12,2.35,1.02,2.53,1.69l.97,84.13h102.5c5.02,0-1.07,12.48-2.51,14.46-3.78,5.18-12.83,10.4-18.98,12-11.99,3.12-83.66,3.05-96.28.25-11.89-2.64-23.74-14.66-23.74-27.21v-83.83l1.5-1.5c9.79,1.39,24.92-1.87,34,0Z"/>
    <g>
      <path class="cls-1" d="M343.12,212.56h104v65.37c0,14.57-21.59,22.59-33.46,23.49-17.71,1.34-75.31,2.09-90.05-3.02-11.21-3.88-20-12.19-18.48-24.97h101.5c.34,0,1.53-1.3,2.5-1v-30.44l-1.5-1.5h-73c-13.28,0-29.2-12.7-30.54-26.4-.71-7.26-1.12-20.02,1.54-26.49h35c.94.89,2.5,4.57,2.5,5.49v19.46Z"/>
      <path class="cls-1" d="M305.62,150.68h110c12.4,0,36.23,13.07,29,27.94h-139l-1.5-1.5v-22.95c0-1.02.56-2.83,1.5-3.49Z"/>
    </g>
    <path class="cls-1" d="M466.62,178.63c-5.73-10.94,8.58-22.46,18.28-25.66,13.1-4.32,72.56-3.58,88.76-2.32,7.18.56,18.34,3.1,24.1,7.41,5.44,4.07,11.5,14.34,7.85,20.57h-139Z"/>
    <g>
      <path class="cls-1" d="M663.12,211.56c1.81.49,3.56.85,5.45,1.04,12.76,1.31,41.23,1.21,54.08-.01,2.7-.26,5.43-.42,7.46-2.53v-22.45h36.5l1.5,1.5v27.94c0,12.81-21.35,23.45-32.5,23.45h-18c-2.19,2.67-2.3,8.06-2.32,11.55-.11,16.29,2.55,33.12-.18,49.33h-36.5l-1.5-1.5v-57.88l-1.5-1.5h-50l-1.5-1.5v-49.9l1.5-1.5h36l1.5,1.5v22.45Z"/>
      <path class="cls-1" d="M663.12,150.68v26.45c0,3.37-5.12,1.5-5.5,1.5h-32l-1.5-1.5v-24.95c0-1.28,3.11-2.33,4.45-2.54,2.19-.34,34.55-.68,34.55,1.05Z"/>
      <path class="cls-1" d="M767.12,150.68c-.3.97,1,2.15,1,2.49v23.95l-1.5,1.5h-36.5v-27.94h37Z"/>
    </g>
  </g>
</svg>