<?xml version="1.0" encoding="UTF-8"?>
<svg id="_Слой_1" data-name="Слой 1" xmlns="http://www.w3.org/2000/svg" viewBox="0 0 683.52 305.27">
  <defs>
    <style>
      .cls-1 {
        fill: #2d59a5;
      }
    </style>
  </defs>
  <polygon class="cls-1" points="678.05 3.53 678.05 39.07 546.41 39.07 546.41 97.5 669.33 97.5 669.85 98.02 669.85 133.04 546.41 133.04 546.41 193.53 683.52 193.53 683.52 228.73 508.8 228.73 508.8 3.53 678.05 3.53"/>
  <g>
    <path class="cls-1" d="M0,3.53l102.43-.02c22.6,1,46.8,8.32,60.81,27.05,16.77,22.41,13.98,56.75-6.11,76.18-1.05,1.01-3.07,2.23-3.95,3.23-.26.3-.44.38-.33.86,28.75,12.91,39.14,46.91,28.73,75.7-10.32,28.51-40.18,40.42-68.55,42.21H0V3.53ZM37.27,39.07v58.43h64.47c15.96-1.19,32.78-5.16,35.66-23.46,3.76-23.89-13.52-33.35-34.64-34.99H37.27ZM37.27,133.04v59.97l1.18.53c22.24-.84,45.24,1.06,67.39,0,19.12-.92,42.86-8.7,41.89-31.98-.95-22.89-23.45-27.53-42.23-28.53H37.27Z"/>
    <g>
      <path class="cls-1" d="M458.14,116.27c0,64.22-52.09,116.27-116.35,116.27s-116.35-52.06-116.35-116.27S277.54,0,341.8,0s116.35,52.06,116.35,116.27ZM426.19,116.11c0-46.58-37.78-84.34-84.39-84.34s-84.39,37.76-84.39,84.34,37.78,84.34,84.39,84.34,84.39-37.76,84.39-84.34Z"/>
      <rect class="cls-1" x="239.35" y="273.15" width="204.82" height="32.12"/>
    </g>
  </g>
</svg>