<?xml version="1.0" encoding="UTF-8"?>
<svg id="_Слой_1" data-name="Слой 1" xmlns="http://www.w3.org/2000/svg" viewBox="0 0 814.68 406.92">
  <defs>
    <style>
      .cls-1 {
        fill: #2e3192;
      }
    </style>
  </defs>
  <path class="cls-1" d="M0,387.82v-67.47c6.09.54,13.39-.72,19.33-.02.62.07,1.09.05,1.46.66v66.19c-.37.61-.85.59-1.46.66-5.94.7-13.24-.56-19.33-.02Z"/>
  <path class="cls-1" d="M431.1,406.92h-15.7l-.11-28.11-13.81-37.12-.04-1.54,1.03-.72c4.63,1.36,10.86-.39,15.27.44,1.56.29,1.2,2.35,1.61,3.48,3.86,10.53,8.16,20.95,11.64,31.64l.1,31.93Z"/>
  <path class="cls-1" d="M528.27,406.92h-15.7l.64-67.04h14c.07,0,.75.65.84.86l.22,66.19Z"/>
  <path class="cls-1" d="M309.33,406.92h-15.28l.06-66.35c.24-.73,3.81-1.05,4.82-1.12,1.63-.11,8.87-.27,9.79.39,1.59,1.14.58,2.95.58,4.47.02,20.87.04,41.74.02,62.61Z"/>
  <path class="cls-1" d="M814.68,345.39c-1.74,1.51-6.25.06-6.78,2.77-.39,13.14,1.03,26.16-.2,39.27-.3.43-.82.36-1.28.42-1.48.18-12.21.13-12.96-.23-.36-.17-.65-.56-.76-.94l-.1-38.52c-.4-2.08-2.95-1.71-4.44-1.93-.57-.08-.75.27-.63-.62,5.41-6.07,10.17-12.75,15.48-18.9.87-1.01,2.75-3.35,3.6-4.03.43-.34.56-.8,1.28-.63v15.91c0,2.29,5.4,1.73,6.79,2.33v5.09Z"/>
  <rect class="cls-1" x="179.06" y="320.33" width="20.39" height="67.49"/>
  <path class="cls-1" d="M55.46,320.44c5.25.23,11.31-.61,16.46-.08.79.08,2.43.33,2.7,1.12l-.15,65.5-.94.76c-5.36-.37-12.16.79-17.33.1-.87-.12-1.49-.24-1.8-1.17l.12-65.47.94-.76Z"/>
  <path class="cls-1" d="M478.54,320.48c1.01-.12,4.02-.48,4.58.28-.7,4.1-.17,6.28,1.56,9.88,6.83,14.2,26.18,30.04,21.84,47.1-1.57,6.18-8.54,11.24-14.98,9.26-.21-1.7.4-3.02.2-4.86-.95-8.62-17.71-25.34-21.9-35.38-3.96-9.47-4.27-24.77,8.71-26.28Z"/>
  <path class="cls-1" d="M122.63,386.76l-.7.59c-.59.18-3.27-.3-4.06-.49-25.77-6.32-23.08-61.3-.44-65.98.88-.18,5.21-.77,5.21.54v65.34Z"/>
  <path class="cls-1" d="M216.68,383.01c-1.25,1.07-6.33,3.84-7.89,4.2-.98.23-3.84.63-4.22-.51l.32-65.75c.86-1.1,3.46-.32,4.71.04,20.65,6.06,21.53,49.63,7.07,62.02Z"/>
  <path class="cls-1" d="M25.88,387.4v-65.98c3.75-2.13,9.3,1.34,12.11,4.01,11.81,11.23,11.91,36.82,4.78,50.65-3.46,6.71-8.93,11.49-16.89,11.32Z"/>
  <rect class="cls-1" x="705.21" y="320.78" width="16.15" height="66.62"/>
  <path class="cls-1" d="M339.24,320.78h14c.61.37.59.85.66,1.46.93,7.97-.06,19.62-.04,28.04,0,1.1.46,2.14.46,3.36.02,11.03-1.04,22.08-.2,33.14-.05.31-.79,1.04-.89,1.04h-14l-.64-.64v-65.77l.64-.64Z"/>
  <path class="cls-1" d="M633.5,372.55v7.85c0,.35-3.41,3.17-4.04,3.59-3.48,2.33-8.16,3.9-12.35,4.2-25.41,1.82-27.21-43.14-6.7-47.86.76-.17,4.85-.71,4.85.18v41.16c0,2.02,6.37.41,7.6-.04,4.62-1.7,6.44-5.08,9.45-8.37.38-.42.38-.91,1.2-.71Z"/>
  <path class="cls-1" d="M589.38,372.55l.87.24c1.26,5.07.35,8.04-3.64,11.2-6.35,5.03-14.95,5.86-21.97,1.63-11.97-7.2-12.22-34.53-2.42-43.42,1.67-1.52,9.49-6.38,10.53-2.88l.48,42.37c.83,1.15,1.9,1.12,3.22,1.06,5.65-.26,10.86-5.29,12.94-10.21Z"/>
  <path class="cls-1" d="M760.8,339.87c-.48,5.76,5.48,9.7,8.9,13.81,4.37,5.26,12.32,13.79,13.73,20.22,1.71,7.85-3.67,14.95-11.83,13.11-.24-5.87-5.75-9.66-9.08-13.83-3.79-4.74-11.45-13.68-11.88-19.51-.48-6.49,3.23-13.38,10.18-13.79Z"/>
  <path class="cls-1" d="M265.62,339.88c.03,1.02-.12,2.07.1,3.09.67,3.15,14.72,17.66,17.71,21.75,3.35,4.57,6.23,10.45,4.49,16.34-1.24,4.19-7.71,7.69-11.93,5.95-.39-1.01-.02-2.08-.28-3.11-1.04-4.13-15.44-18.68-18.92-24.79-3.95-6.94.1-18.72,8.83-19.23Z"/>
  <path class="cls-1" d="M639.44,386.97v-46.89l1.06-.65c1.71.9,3.35.03,4.72.05.84.01,1.61.38,2.48.4,1.9.06,4.66-.33,6.37,0,2.85.54,1.02,6.22,1.04,8.26.08,10.9.23,21.82.08,32.72-.02,1.26,1.1,5.15-.01,5.92l-15.73.19Z"/>
  <rect class="cls-1" x="232.52" y="339.43" width="15.73" height="48.4"/>
  <path class="cls-1" d="M743.82,386.97h-15.7v-46.46c0-2,6.96-.68,8.26-.62,2.05.1,6.62-.79,7.48,1l-.04,46.08Z"/>
  <path class="cls-1" d="M681.36,337.88c6.3-.76,12.64,2.15,14.75,8.34,1.85,5.42,1.03,11.23,1.03,16.76,0,6.68.86,16.73.04,22.95-.11.83-.25,1.53-1.17,1.8-1,.29-12.6.21-13.28-.12-.36-.17-.65-.56-.76-.94l-.09-37.67c-.46-1.71-.44-3.74-.97-5.4-1-3.13-4.96-5.08.46-5.73Z"/>
  <path class="cls-1" d="M380.95,337.88c4.64-.47,9.74,1.13,12.62,4.94,4.22,5.58,2.75,14.57,2.72,21s.84,16.06.04,22.1c-.11.83-.25,1.53-1.17,1.8-1,.29-12.6.21-13.28-.12-.36-.17-.65-.56-.76-.94-.09-7.33-.17-14.67-.1-22,.06-6.89,1.51-14.33-.96-21.07-.47-1.27-2.53-3.36-2.45-4.36l.75-.99c.88.02,1.76-.29,2.59-.37Z"/>
  <path class="cls-1" d="M314.84,340.51l.7-.59c13.1.22,17.77,15.55,17.14,26.49-.54,9.41-6.66,20.65-17.14,20.94l-.7-.59v-46.25Z"/>
  <path class="cls-1" d="M533.36,340.94c.26-.86,2.84-.76,3.59-.62,5.67,1.11,11.27,8.6,12.84,13.89,3.68,12.42-.39,31.94-15.73,33.14l-.7-.59v-45.83Z"/>
  <path class="cls-1" d="M368.09,387.4c-.25-.06-3.21-1.98-3.62-2.32-6.35-5.29-6.13-18.17,1.18-22.61,2.47-1.5,8.18-2.57,10.71-1.17v25.46l-.64.64c-2.21-.33-5.62.45-7.64,0Z"/>
  <path class="cls-1" d="M668.93,387.4c-.53-.12-4.37-3.01-4.9-3.59-5.54-6.01-3.72-19.54,4.69-22.5,2.27-.8,6.39-1.2,8.48,0v25.46l-.64.64c-2.21-.33-5.61.44-7.64,0Z"/>
  <path class="cls-1" d="M150.42,356.42h19.94l.64.64v13.58c-.37.61-.85.59-1.46.66-4.17.49-8.6-.33-12.73-.46-1.74-.06-5.69.93-6.37-.42-.09-.18-.65-2.2-.65-2.32v-11.03l.64-.64Z"/>
  <path class="cls-1" d="M433.23,367.46l-9.73-27.3,1.02-.71,19.13.41c.71.98-1.61,5.56-2.08,6.89s-.89,2.49-1.35,3.74c-1.8,4.98-3.63,11.61-5.83,16.24-.28.58-.47.87-1.17.73Z"/>
  <path class="cls-1" d="M487.11,387.82h-18.46l-.64-.64v-27.79c1.35.36,2.54,2.46,3.38,3.62,5.36,7.4,10.05,15.35,15.48,22.7l.23,2.1Z"/>
  <path class="cls-1" d="M577.07,339.24c.79-2.8,7.41.21,8.93,1.68,3.05,2.97,5.02,10.27,5.46,14.49.17,1.62.43,4.47-.59,5.68h-13.15l-.64-.64v-21.22Z"/>
  <path class="cls-1" d="M368.61,338.7c7.17-1.33,11.08,6.69,9.33,12.72-1.87,6.44-9.17,10.05-13.88,4.38-4.28-5.15-2.77-15.73,4.56-17.09Z"/>
  <path class="cls-1" d="M487.75,320.36h16.97l.64.64v25.46s-.62.85-.85.43c-3.86-6.1-8.28-11.85-12.29-17.84-.81-1.22-4.73-6.68-4.93-7.38-.22-.77-.14-.8.46-1.3Z"/>
  <path class="cls-1" d="M668.6,338.69c12.74-2.87,13.75,19.42,2.39,19.82-5.65.2-9.21-6.5-8.6-11.6.34-2.8,3.29-7.56,6.2-8.22Z"/>
  <path class="cls-1" d="M78.71,387.4c-.33-.1-.64-.68-.67-1.07-.03-.37,2.76-5.58,3.27-6.52,3.54-6.57,7.73-12.83,10.99-19.56.51-.79.95-.44,1.47.2v26.31l-.64.64h-14.43Z"/>
  <path class="cls-1" d="M240.87,318.82c2.96-.04,4.08.58,5.83,2.84,2.97,3.84,3.27,7.46.69,11.64-4.1,6.63-14.04,3.54-14.86-3.41-.69-5.9,1.99-11,8.35-11.08Z"/>
  <path class="cls-1" d="M645.7,318.77c3.84-.55,6.75.42,8.47,4.03,2.14,4.49,1.75,9.54-2.46,12.59-3.35,2.43-7.94,1.93-10.58-1.25-4.01-4.82-2.37-14.39,4.56-15.37Z"/>
  <path class="cls-1" d="M733.52,318.76c10.04-2.08,14.48,11.34,6.88,16.63-7.63,5.32-15.45-4.27-11.94-11.94.72-1.58,3.3-4.33,5.07-4.69Z"/>
  <path class="cls-1" d="M125.81,320.36h15.7c.76,0,1.02,1.68,1.09,2.31.54,5.35.15,14.54-.43,19.99-.07.64-.04,1.05-.66,1.46l-16.29-22.75.59-1Z"/>
  <path class="cls-1" d="M125.6,387.4l.22-1.69c4.62-5.53,8.26-11.82,12.51-17.61.52-.71,3.01-4.03,3.6-4.04.55.55.61,1.57.66,2.32.3,4.65.59,14.77,0,19.13-.08.56-.54,1.89-1.08,1.89h-15.91Z"/>
  <path class="cls-1" d="M751.04,368.31c.81-.14,1.15.13,1.73.61,2.76,2.29,8.46,9.98,10.99,13.19,1.12,1.42,2.02,3.03,3.41,4.24l-.64,1.06h-14.43c-.08,0-1.06-.99-1.06-1.06v-18.03Z"/>
  <path class="cls-1" d="M780.74,358.12l-1.73-.61-13.98-17c-.09-.87.04-.56.63-.64,1.55-.21,4.3-.38,5.93-.44,2.86-.1,6.67-.42,9.14,1.08v17.61Z"/>
  <path class="cls-1" d="M256.29,368.31l1.29.29,13.77,17.11.21,1.27c-.41-.11-.91.43-1.06.43h-13.58l-.64-.64v-18.46Z"/>
  <path class="cls-1" d="M285.14,358.12c-.89,1.01-6.28-6.8-6.8-7.41-2.19-2.58-6.09-6.13-7.81-8.73-.39-.59-.73-1.13-.67-1.87.03-.27,1.55-.57,1.92-.57,3.23.04,6.48.43,9.78.36.72-.01,3.59-.96,3.59.19v18.03Z"/>
  <path class="cls-1" d="M633.5,357.7c-1.93-.17-2.44-2.51-3.39-3.61-2.73-3.14-9.3-9.44-11.04-12.72-.27-.51-.58-.8-.41-1.5h14.21l.64.64v17.18Z"/>
  <g>
    <path class="cls-1" d="M444.26,0c-.24,1.02.53.94,1.25,1.07,3.91.71,8.86-.01,12.96.21,56.31,3.04,116.72,11.51,170.9,26.83,40.87,11.56,99.86,33.39,126.33,68.01,1.53,2,3.58,4.62,4.25,6.99-2.6-1.95-4.73-4.48-7.2-6.58-33.08-28.09-81.84-44.42-123.5-55.13-49.67-12.77-100.42-19.25-151.67-22.3-94.2-5.6-194.32.43-285.27,25.76-41.26,11.49-113.17,37.99-132.36,79.38-15.18,32.73,10.39,62.67,36.48,79.56.49.32,1.44.66.1.75-33.51-16.5-78.88-47.64-64.14-91.31,13.26-39.32,74.96-64.86,111.22-77.17C204.6,15.34,269.45,6.13,333.73,1.7c4.33-.3,9.78.08,13.96-.47.85-.11,1.99-.35,2.37-1.23h94.2Z"/>
    <path class="cls-1" d="M391.98,33.65l14.32-.14c1,0,1.93.44,2.94.46,73.2,1.18,149.41,7.42,219.51,29.14,31.72,9.83,81.25,28.98,99.3,58.12,28.3,45.7-32.23,78.8-66.87,92.93-52.86,21.57-114.11,31.72-170.87,36.62-89.76,7.75-182.61,4.92-270.4-15.17-41.38-9.47-112.02-29.47-137.14-66.1-30.81-44.91,28.02-79.36,62.79-93.75,76.72-31.76,164-38.84,246.43-42.1ZM285.14,114.99c-.34,10.49,1.17,21.12.42,31.61-.81,11.36-5.4,19.17-17.59,19.75-2.45.12-4.64-.45-6.79-.46-16.42-.1-32.84.09-49.26.04l-1.46-.66v-32.25c0-.16-.96-1.49-1.06-1.49h-36.07l-.64.64v73.83l4.02,1.08c33.79-1.45,69.11,1.87,102.72,0,29.16-1.62,45.12-26.11,45.61-53.68l-.33-71.41-.82-.88-150.05.02-.94.76v32.26c.1.16,1.55.83,1.7.83h110.53ZM438.95,169.73h-66.62l-.64-.64v-85.29c0-.2-.65-1.91-.84-2.13-.55-.47-1.21-.56-1.91-.64-9.82-1.15-21.79.89-31.85-.01l-1.39.73.13,126.17,1.26.44h117.58c19.31.5,30.05-15.64,31.18-33.31.34-5.31.15-14.69-.43-19.97-.07-.61-.2-1.48-.63-1.91-1.14-1.13-28.37-.06-32.17-.32-1.73.5-2.57,5.97-3.26,7.77-1,2.6-2.65,6.15-5.23,7.5-.73.38-4.4,1.51-5.18,1.61ZM643.47,172.7h-109.9l-.64-.64v-36.49c0-.95.65-4.79.98-5.81,1.12-3.56,4.05-6.1,7.76-6.67,30.96-.16,61.99-.1,92.89.38,3.25.05,6.48.11,9.68-.5l.72-.56v-37.34l-1.46-.66c-28.16.12-56.32-.09-84.48.04-17.03.08-28.54-1.3-42.4,10.6-21.96,18.86-20.31,41.31-20.15,67.65.09,15.34-.29,30.76.2,46.05.09.2.77.86.84.86h146.81l.64-.64v-34.37c0-.24-.48-.97-.55-1.35-.14-.17-.75-.52-.93-.56Z"/>
    <path class="cls-1" d="M54.74,190.52c5.19,4.17,9.94,8.95,15.32,12.9,51.96,38.19,136.71,55.99,200.01,64.33,97.14,12.8,199.06,10.97,295.44-6.68,50.83-9.31,114.11-26.16,156.45-56.56,40.04-28.74,51.98-66.29,12.11-102.47-5-4.54-10.4-8.35-15.71-12.51.75-.09,1.38-.01,2.1.23,1.8.61,6.07,3.19,8.03,4.27,38.71,21.32,77.9,60.37,42.47,104.74-31.43,39.36-104.45,61.77-152,72.89-117.8,27.54-253.39,28.49-372.33,7.21-55.09-9.86-133.61-30.19-175.79-68.62-4.23-3.86-13.18-12.97-15.71-17.81-.35-.68-.54-1.12-.41-1.92Z"/>
  </g>
</svg>