<?xml version="1.0" encoding="UTF-8"?>
<svg id="_Слой_1" data-name="Слой 1" xmlns="http://www.w3.org/2000/svg" viewBox="0 0 542.54 349.4">
  <defs>
    <style>
      .cls-1 {
        fill: red;
      }
    </style>
  </defs>
  <path class="cls-1" d="M266.75,349.4L322.43,6.88c5.52-7.24,91.36-6.16,106.76-4.68,129.76,12.45,128.64,160.54,92.1,255.49-12.83,33.35-51.93,91.72-92.06,91.72h-162.48ZM401.17,80.09c-6.71,1.93-9.45,6.49-11.92,12.53-5.87,14.34-27.34,152.34-25.87,167.65,2.13,22.13,26.74,16.28,45.18,10.71,44.25-13.37,68.54-140.85,41.82-174.13-9.18-11.43-35.35-20.76-49.22-16.76Z"/>
  <g>
    <path class="cls-1" d="M0,349.4L56.18,6.41c10.51-4.37,51.61-9.96,54.81,3.35-6.85,52.67-12.99,105.45-19.42,158.2-1.34,10.96-9.29,26.34-8.79,34.66.64,10.68,16.29,16.9,17.71,29.14,1.32,11.36-16.07,41.96,4.57,44.38,4.46.52,7.63-3.91,8.92-3.91h116.4c4.58,3.43,6.12,4.99,6.33,10.87.5,13.81-9.42,53.94-16.03,66.3H0Z"/>
    <path class="cls-1" d="M259.48,2.15c16.32,5.04-2.16,58.22-2.93,71.83l-82.23,2.65-9.42,55.74h70.33c12.74,0,.01,63.89-9.7,72.34h-111.55c-1.71,0-7.7-5.32-11.69-5.35L126.05,10.44c.68-3.38,10.85-8.28,12.18-8.28,24.13,0,105.58-4.85,121.25,0Z"/>
  </g>
</svg>