<?xml version="1.0" encoding="UTF-8"?>
<svg id="_Слой_2" data-name="Слой 2" xmlns="http://www.w3.org/2000/svg" viewBox="0 0 198.32 58.1">
  <g id="_Слой_1-2" data-name="Слой 1">
    <g>
      <path d="M127.82,0c.18,2.03-.24,4.46,0,6.44.03.23.02.4.24.53h7.2v7.9h-7.2l-.23.23v34.78h7.44v8.21h-12.71c-1.35-.49-2.5-.92-3.38-2.12-.25-.33-.96-1.64-.96-1.99V15.11l-7.59-.23v-7.9h7.36c.22-.14.21-.31.24-.53.23-1.98-.19-4.41,0-6.44h9.61Z"/>
      <g>
        <rect x=".31" y="50.2" width="114.96" height="7.44"/>
        <path d="M71.74,23.63c.28-2.64,2.06-4.5,4.72-4.73,4.29-.37,9.12.28,13.47.02,1.52.2,2.44,1.3,3.57,2.16.69-1.18,1.96-1.86,3.27-2.16,4.39.27,9.29-.4,13.62-.01,2.1.19,4.42,2.23,4.42,4.41v23.01h-9.45v-20.68l-.23-.23h-7.2v20.92h-9.3v-20.68l-.23-.23h-7.36v20.68l-.23.23h-8.83l-.23-.23v-22.47Z"/>
        <rect x=".31" y="7.28" width="107.06" height="7.44"/>
        <g>
          <path d="M0,23.4c.45-1.59,1.08-2.99,2.59-3.84.22-.12,1.39-.65,1.52-.65h28.43v6.51H10.54v3.56h17.43c1.89,0,4.33,2.23,4.55,4.12s.25,7.26,0,9.11c-.29,2.22-2.66,4.09-4.86,4.12H0v-7.13h22.78v-3.41H4.11c-.26,0-1.23-.48-1.52-.65-1.45-.84-2.09-2.15-2.59-3.69v-8.06Z"/>
          <path d="M68.02,46.17h-27.81c-.06,0-.95-.36-1.11-.44-1.33-.6-2.51-2.15-2.77-3.58-.29-1.62-.21-6.09-.08-7.84.19-2.41,2.1-5.03,4.73-5.03h17.2c.46,0,.08-1.34.07-1.62-.02-.75.03-1.51,0-2.25h-22v-6.51h27.35c1.94,0,4.42,2.85,4.42,4.73v22.54ZM58.41,36.26h-12.4v3.41h12.4v-3.41Z"/>
        </g>
      </g>
      <g>
        <path d="M198.32,23.24v7.13h-9.45v-4.96h-12.24v13.79h12.24v-6.35h9.45v9.3c-.62,2.39-2.21,3.96-4.73,4.18-7.21-.4-15.02.54-22.16,0-2.53-.19-4.64-1.55-5.17-4.13.29-5.81-.42-12.05-.02-17.81.24-3.38,1.91-5.4,5.35-5.65,7.09-.52,14.83.39,21.99.03,1.76.21,3.21,1.02,4.05,2.61l.69,1.86Z"/>
        <path d="M162.84,35.79h-22v3.41h21.85c-.05.15.15.34.15.39v6.51l-.23.23h-26.96c-.1,0-1.34-.4-1.53-.48-1.54-.68-2.6-2.3-2.88-3.93.44-5.95-.59-12.75,0-18.59.28-2.78,2.89-4.4,5.49-4.58,7.02-.49,14.77.25,21.84.18,1.93.13,4.28,2.69,4.28,4.55v12.32ZM153.08,25.41h-12.24v3.56h12.24v-3.56Z"/>
        <rect x="138.67" y="7.28" width="59.34" height="7.44"/>
        <rect x="138.67" y="50.2" width="59.34" height="7.44"/>
      </g>
    </g>
  </g>
</svg>