<?xml version="1.0" encoding="UTF-8"?>
<svg id="_Слой_2" data-name="Слой 2" xmlns="http://www.w3.org/2000/svg" viewBox="0 0 159.79 59.79">
  <g id="_Слой_1-2" data-name="Слой 1">
    <g>
      <path d="M151.02,33.12c-.17.67-.33,1.27-.49,1.88-.62,2.33-1.25,4.67-1.87,7-.06.21-.13.33-.37.32-.18,0-.36.02-.53.02-10.73,0-21.45,0-32.18,0h-.73c.07-.3.13-.56.2-.81.86-3.21,1.72-6.42,2.59-9.62.85-3.17,1.71-6.34,2.56-9.51.99-3.68,1.97-7.35,2.96-11.03.96-3.57,1.92-7.14,2.87-10.72.06-.24.16-.3.4-.3,11.01,0,22.02,0,33.04,0,.37,0,.38.01.28.37-.64,2.34-1.28,4.68-1.92,7.02-.14.51-.3,1.02-.42,1.54-.05.23-.17.29-.37.28-.03,0-.06,0-.09,0-7.39,0-14.79,0-22.18,0-.2,0-.3.04-.36.25-.62,2.28-1.24,4.55-1.86,6.83-.02.08-.03.17-.06.31h20.45c-.14.53-.26,1.01-.38,1.48-.59,2.18-1.17,4.36-1.76,6.54-.14.53-.07.45-.59.45-6.52,0-13.05,0-19.57,0-.31,0-.46.06-.55.4-.61,2.35-1.25,4.69-1.89,7.04-.02.07-.03.15-.06.28h22.9Z"/>
      <path d="M87.72,42.34c2.93-10.85,5.84-21.64,8.76-32.48h-12.86c.13-.51.25-.99.38-1.46.52-1.93,1.05-3.87,1.57-5.8.18-.67.37-1.33.54-2,.05-.19.14-.27.33-.25.05,0,.1,0,.15,0,11.88,0,23.76,0,35.65,0,.17,0,.33,0,.55,0-.09.37-.17.69-.25,1.01-.65,2.44-1.3,4.88-1.94,7.33-.08.29-.16.57-.23.86-.05.23-.16.31-.4.31-4.04,0-8.09,0-12.13-.01-.33,0-.46.11-.54.42-.51,1.97-1.05,3.94-1.57,5.92-.82,3.09-1.65,6.17-2.47,9.26-.64,2.37-1.28,4.74-1.92,7.11-.62,2.31-1.23,4.63-1.85,6.94-.23.87-.47,1.73-.7,2.6-.04.16-.12.23-.28.23-.23,0-.45.02-.68.02-3.09,0-6.19,0-9.28,0-.25,0-.49,0-.82,0Z"/>
      <path d="M26.9,27.36c-6.98,0-13.96,0-20.93,0-3,0-5.61-2.4-5.93-5.4-.28-2.63,1.21-5.22,3.69-6.25.73-.31,1.51-.48,2.31-.48,13.9,0,27.79,0,41.69,0,3.06,0,5.68,2.37,6.01,5.42.35,3.12-1.84,6.05-4.93,6.61-.32.06-.65.09-.97.09-6.98,0-13.96,0-20.93,0Z"/>
      <path d="M39.15,30.58c6.95,0,13.9,0,20.85,0,2.83,0,5.33,2.05,5.9,4.82.69,3.41-1.59,6.68-5.05,7.23-.3.05-.61.07-.91.07-13.88,0-27.76.01-41.64,0-2.68,0-4.92-1.71-5.74-4.18-1.29-3.93,1.63-7.95,5.77-7.95,6.94,0,13.88,0,20.82,0Z"/>
      <path d="M47.36,12.14c-6.95,0-13.9,0-20.85,0-3.1,0-5.71-2.29-6.05-5.37-.4-3.6,2.26-6.42,5.4-6.73.32-.03.65-.05.97-.05C40.6,0,54.37,0,68.14,0c2.47,0,4.77,1.6,5.63,3.92.69,1.86.55,3.67-.51,5.34-1.17,1.86-2.9,2.87-5.11,2.87-6.93.02-13.86,0-20.79,0h0Z"/>
      <path d="M87.51,54.27c.08,1.87-1.72,3.73-3.74,3.69-1.51-.04-2.7-.95-2.94-2.36-.27-1.59.68-3.28,2.17-3.94.79-.35,1.61-.42,2.43-.19,1.34.37,2.08,1.39,2.08,2.81ZM82.51,54.97c-.04,1.39,1.27,1.8,2.18,1.29.72-.4,1.07-1.06,1.12-1.87.04-.6-.14-1.14-.72-1.41-.6-.28-1.2-.22-1.72.21-.55.46-.84,1.05-.86,1.78Z"/>
      <path d="M107.72,56.13c.23.31.48.64.74.99-.29.3-.64.47-1.02.6-.98.34-1.96.36-2.91-.08-.87-.41-1.3-1.15-1.39-2.09-.23-2.34,1.64-4.3,3.99-4.2,1.54.06,2.57,1.31,2.33,2.83-.04.25-.11.5-.17.75-.05.22-.18.3-.42.3-1.24-.01-2.49,0-3.73,0-.4,0-.42.02-.31.4.21.72.93,1.11,1.78.92.37-.08.72-.26,1.12-.41ZM104.95,54.09s.03.03.04.03c.88.01,1.75.02,2.63.03.06,0,.16-.06.18-.11.2-.47-.08-1.06-.58-1.23-.9-.31-1.98.3-2.27,1.29Z"/>
      <path d="M95.29,57.83c.23-.86.44-1.66.65-2.46.32-1.2.65-2.4.96-3.61.06-.24.17-.32.41-.31.45.02.9,0,1.39,0-.04.21-.06.38-.11.63.26-.16.45-.29.65-.42.61-.39,1.27-.44,1.93-.18.79.31,1.21,1.16,1,2.09-.31,1.34-.68,2.67-1.04,4.01-.02.09-.12.22-.19.22-.52.02-1.04.01-1.61.01.12-.45.22-.85.33-1.24.21-.8.43-1.6.63-2.4.09-.37.15-.77-.2-1.04-.35-.28-.77-.27-1.18-.1-.48.19-.73.57-.86,1.03-.33,1.16-.64,2.32-.94,3.48-.06.23-.16.3-.39.29-.46-.01-.92,0-1.44,0Z"/>
      <path d="M91.92,57.82c.11-.42.2-.78.29-1.13.21-.79.42-1.58.63-2.37,0-.02.01-.04.01-.06.16-.69.05-1.05-.37-1.24-.54-.24-1.24-.08-1.54.44-.24.42-.39.9-.53,1.37-.26.89-.49,1.79-.72,2.68-.06.23-.16.32-.41.31-.45-.02-.91,0-1.41,0,.03-.13.04-.24.07-.34.51-1.91,1.03-3.81,1.52-5.72.07-.26.18-.33.43-.32.45.02.9,0,1.39,0-.04.21-.07.38-.12.63.15-.09.23-.14.31-.2.47-.35.99-.57,1.59-.55,1.13.04,1.92.95,1.69,2.12-.27,1.36-.67,2.69-1.01,4.04-.06.26-.19.34-.46.33-.44-.02-.88,0-1.37,0Z"/>
      <path d="M140.5,59.34c.3-.41.59-.81.87-1.2.24.07.45.15.67.18.49.07.82-.25.77-.74-.2-1.73-.42-3.47-.63-5.2-.04-.29-.06-.58-.1-.92.56,0,1.08,0,1.6.01.06,0,.16.14.17.22.07.79.12,1.57.18,2.36.04.56.08,1.11.12,1.67.03,0,.05.01.08.02.09-.14.18-.29.26-.43.65-1.18,1.31-2.37,1.95-3.56.12-.22.26-.31.51-.3.48.02.96,0,1.52,0-.26.45-.49.85-.72,1.24-1.01,1.66-2,3.33-3.03,4.98-.32.51-.69,1.02-1.12,1.45-.8.81-2.2.89-3.11.22Z"/>
      <path d="M126.26,51.46c.55,0,1.07,0,1.59,0,.17,0,.21.1.22.25.06.99.12,1.97.19,2.96.02.33.05.66.09,1.09.11-.14.17-.2.21-.28.72-1.2,1.44-2.4,2.14-3.62.17-.29.35-.43.7-.4.44.03.89,0,1.38,0-.09.16-.14.29-.22.4-1.24,1.9-2.49,3.8-3.73,5.7-.15.22-.3.36-.6.33-.38-.03-.77,0-1.2,0-.26-2.13-.52-4.26-.78-6.43Z"/>
      <path d="M116.74,52.71c-.43.31-.85.61-1.29.92-.09-.11-.17-.21-.25-.3-.65-.72-1.8-.68-2.5.2-.44.56-.61,1.19-.52,1.89.09.77.94,1.27,1.7,1.01.28-.1.56-.25.81-.41.17-.11.25-.09.36.06.22.29.45.58.71.9-.12.11-.23.22-.36.32-1.2.96-3.09.9-4.19-.16-.52-.5-.74-1.14-.79-1.86-.11-1.86,1.24-3.58,3.19-3.88,1.26-.19,2.35.13,3.07,1.2.02.03.04.07.07.12Z"/>
      <path d="M80.57,52.71c-.44.31-.86.61-1.3.92-.08-.09-.15-.16-.21-.23-.63-.8-1.75-.7-2.4-.03-.45.47-.7,1.04-.69,1.71.02,1.05.75,1.62,1.77,1.33.34-.1.65-.31,1.01-.48.23.29.49.61.74.95.04.05.02.2-.03.24-1.21,1.13-3.31,1.14-4.42.02-.65-.66-.88-1.47-.78-2.36.16-1.45.92-2.51,2.25-3.1,1.09-.48,2.19-.49,3.23.15.34.21.63.5.83.89Z"/>
      <path d="M120.57,56.26c-.13.47-.24.89-.37,1.3-.02.06-.08.12-.14.14-.74.27-1.48.36-2.2-.03-.52-.28-.69-.8-.52-1.47.24-.96.5-1.91.75-2.86.03-.11.05-.23.08-.38h-.74c.13-.49.24-.94.38-1.37.02-.07.17-.12.26-.13.53-.04.53-.04.68-.56.08-.28.14-.57.24-.85.03-.09.14-.22.22-.22.51-.02,1.02-.01,1.58-.01-.12.45-.23.87-.34,1.28-.09.34-.07.36.27.36.36,0,.73,0,1.14,0-.13.49-.25.94-.39,1.39-.02.06-.15.11-.24.11-.35.01-.69.01-1.04,0-.18,0-.27.05-.31.23-.22.84-.45,1.68-.67,2.52-.12.46.06.69.54.67.25,0,.5-.07.82-.11Z"/>
      <path d="M139.69,51.46h1.49c-.13.48-.24.93-.37,1.37-.02.06-.16.12-.25.13-.34.01-.67.01-1.01,0-.18,0-.29.04-.34.24-.22.85-.46,1.69-.68,2.54-.11.42.08.65.52.64.26,0,.52-.07.84-.11-.13.46-.23.89-.37,1.3-.03.08-.15.16-.25.19-.51.14-1.01.24-1.54.12-.87-.19-1.26-.76-1.06-1.63.23-.96.49-1.91.74-2.87.03-.12.05-.25.09-.4h-.75c.14-.5.25-.97.41-1.42.03-.07.26-.11.4-.1.3.02.42-.09.48-.38.06-.35.17-.69.28-1.03.03-.09.15-.21.23-.21.5-.02,1,0,1.56,0-.14.53-.27,1.05-.41,1.63Z"/>
      <path d="M121.67,57.83c.06-.26.11-.48.17-.69.47-1.76.95-3.52,1.41-5.28.08-.29.19-.43.52-.41.42.03.84,0,1.32,0-.06.27-.11.49-.17.72-.46,1.73-.93,3.47-1.39,5.2q-.12.45-.59.45c-.4,0-.8,0-1.26,0Z"/>
      <path d="M135.79,51.46c-.01.13-.01.22-.03.3-.51,1.92-1.03,3.85-1.54,5.77-.06.22-.15.31-.39.3-.45-.02-.9,0-1.4,0,.02-.13.02-.23.05-.31.52-1.94,1.04-3.88,1.57-5.83.02-.09.12-.21.19-.22.51-.02,1.02,0,1.56,0Z"/>
      <path d="M134.26,50.67c.14-.51.26-.95.39-1.39.02-.06.11-.14.16-.14.55-.01,1.1,0,1.7,0-.14.51-.26.97-.4,1.43-.02.05-.12.1-.18.1-.54,0-1.08,0-1.67,0Z"/>
      <path d="M125.79,49.14c-.14.51-.26.96-.4,1.41-.01.05-.1.11-.15.11-.55,0-1.1,0-1.71,0,.14-.5.27-.96.4-1.42.01-.04.08-.1.12-.1.56,0,1.12,0,1.73,0Z"/>
    </g>
  </g>
</svg>