<?xml version="1.0" encoding="UTF-8"?>
<svg id="_Слой_2" data-name="Слой 2" xmlns="http://www.w3.org/2000/svg" viewBox="0 0 143.03 25.21">
  <g id="_Слой_1-2" data-name="Слой 1">
    <g>
      <path d="M44.5,20.07c-1.36,0-2.59.03-3.89-.01,0-.32,0-.57,0-.81,0-2.59,0-5.17,0-7.76,0-.47-.05-.95-.13-1.42-.2-1.14-.94-1.77-2.1-1.83-.29-.01-.58-.02-.87.03-.88.15-1.51.64-1.84,1.48-.25.64-.35,1.31-.35,2,0,2.5,0,5.01,0,7.51,0,.22,0,.45,0,.66-.48.18-3.01.22-3.87.07,0-.22-.03-.46-.03-.7,0-2.73,0-5.46,0-8.19,0-.37-.04-.74-.11-1.11-.21-1.04-.79-1.58-1.83-1.73-1.38-.2-2.64.52-3.08,1.85-.17.5-.25,1.05-.25,1.58-.03,2.52-.01,5.05-.01,7.57,0,.23,0,.45,0,.66-.46.19-2.99.23-3.77.08-.15-.48-.16-13.82,0-14.38h3.5c.03.62.05,1.23.07,1.83.04.02.08.03.13.05.12-.12.25-.24.36-.37,1.52-1.78,3.44-2.26,5.65-1.73,1.05.25,1.87.85,2.43,1.78.07.12.16.23.28.4.15-.16.27-.29.39-.42,1.38-1.63,3.14-2.2,5.22-1.87.24.04.49.08.73.14,1.9.5,3.05,1.81,3.27,3.76.06.57.1,1.15.1,1.73.01,2.77,0,5.54,0,8.32v.83Z"/>
      <path d="M19.43,19.95c-.52.15-3.72.17-4.4.03-.15-.42-.31-.87-.46-1.31-.3-.88-.61-1.76-.89-2.64-.1-.33-.28-.46-.62-.46-2.23.01-4.47.01-6.7,0-.38,0-.56.15-.67.49-.39,1.15-.8,2.3-1.2,3.45-.2.55-.2.56-.79.56-1.03,0-2.07,0-3.1,0-.18,0-.35-.04-.59-.06.08-.26.14-.45.21-.64C2.58,13.12,4.96,6.86,7.33.61,7.56,0,7.57,0,8.21,0c1.05,0,2.11,0,3.16,0,.62,0,.63,0,.84.58,1.45,3.87,2.89,7.74,4.34,11.61.9,2.4,1.79,4.8,2.69,7.2.07.19.12.38.18.57ZM6.99,12.37h5.4c-.44-1.3-.85-2.52-1.28-3.74-.43-1.23-.8-2.49-1.32-3.69h-.16c-.87,2.44-1.73,4.88-2.64,7.44Z"/>
      <path d="M49.01,5.62h3.56c.03.59.05,1.15.09,1.86.21-.22.33-.31.42-.43.94-1.21,2.21-1.78,3.71-1.82.67-.02,1.37.04,2.03.19,1.76.39,3.07,1.44,3.85,3.06,1.35,2.78,1.42,5.63.19,8.46-.79,1.81-2.16,3.02-4.14,3.42-2.13.42-4.03-.01-5.5-1.73-.07-.09-.17-.15-.36-.32-.08,2.38.02,4.64-.06,6.92h-3.76c-.12-.47-.16-18.83-.03-19.59ZM56.21,8.1c-1.43,0-2.44.68-3.01,1.98-.59,1.33-.61,2.73-.4,4.14.08.54.26,1.09.5,1.58.6,1.25,1.66,1.81,3.01,1.8,1.35-.02,2.37-.62,2.96-1.87.35-.74.49-1.53.53-2.34.07-1.17-.06-2.31-.58-3.38-.6-1.25-1.6-1.91-3.01-1.9Z"/>
      <path d="M71.23,19.99c-.21.04-.35.08-.49.08-.93,0-1.86.01-2.79,0-.51,0-.54-.05-.56-.59,0-.12,0-.25,0-.37,0-6.06,0-12.13,0-18.19,0-.28.03-.56.05-.88h3.76c.01.25.04.49.04.73,0,2.01,0,4.01,0,6.02,0,.24.02.48.05.87.22-.21.34-.31.43-.42,1.35-1.7,3.12-2.29,5.24-1.95.18.03.37.05.55.09,1.87.44,2.97,1.62,3.27,3.6.12.75.16,1.52.17,2.28.02,2.69,0,5.38,0,8.07,0,.2-.02.41-.03.59-.48.18-3.03.21-3.78.05-.01-.22-.04-.46-.04-.7,0-2.32,0-4.63,0-6.95,0-.56-.03-1.12-.11-1.67-.27-1.99-1.45-2.64-3.28-2.36-1.39.21-2.14,1.08-2.36,2.65-.08.57-.12,1.15-.12,1.73-.01,2.19,0,4.39,0,6.58,0,.24,0,.48,0,.75Z"/>
      <path d="M98.97,13.75h-10.37c-.19.39-.06.71,0,1.03.38,2.23,2.09,2.98,4,2.78,1.11-.12,2.06-.6,2.67-1.59.07-.12.26-.23.39-.23.93-.02,1.86,0,2.79,0,.06,0,.11.04.21.09-.04.15-.06.31-.12.46-1.03,2.5-2.87,3.91-5.59,4.15-1.11.1-2.19.04-3.25-.26-2.3-.64-3.86-2.11-4.62-4.37-.73-2.16-.7-4.32.24-6.41,1.04-2.3,2.84-3.65,5.32-4.09,1.03-.18,2.06-.16,3.08.07,1.81.41,3.19,1.43,4.13,3.02.91,1.54,1.26,3.22,1.19,5,0,.08-.03.16-.07.35ZM95.08,11.3c-.09-2.19-1.56-3.41-3.75-3.18-1.62.17-2.99,1.72-2.75,3.18h6.51Z"/>
      <path d="M127.66,5.22c1.07-.04,2.1.14,3.09.52,1.85.73,3.16,2.02,3.85,3.89.81,2.2.82,4.43-.07,6.6-1.05,2.55-3.06,3.85-5.75,4.19-1.16.15-2.31.08-3.44-.23-2.58-.71-4.21-2.38-4.88-4.95-.48-1.86-.44-3.73.24-5.55.95-2.53,2.83-3.94,5.47-4.37.22-.04.45-.08.67-.1.27-.02.54,0,.81,0ZM131.28,12.88c.02-.97-.1-1.89-.48-2.75-.61-1.4-1.66-2.04-3.3-2.01-1.4.02-2.44.75-3,2.1-.29.7-.4,1.43-.45,2.17-.06,1.13.05,2.23.52,3.27.6,1.34,1.68,1.95,3.11,1.95,1.42,0,2.5-.64,3.09-1.97.39-.88.53-1.82.51-2.75Z"/>
      <path d="M116.24,20.05c-1.27.04-2.52.03-3.84,0,0-.29,0-.52,0-.74,0-2.54.01-5.09-.01-7.63,0-.57-.08-1.16-.23-1.71-.31-1.15-1.08-1.71-2.26-1.74-.25,0-.5,0-.74.02-1.18.16-2,.79-2.28,1.97-.16.66-.25,1.34-.26,2.02-.03,2.34-.01,4.67-.02,7.01,0,.24-.03.49-.04.77h-3.73c-.13-.47-.19-13.3-.06-14.41,1.17-.07,2.35-.03,3.58-.02.02.69.04,1.31.06,2.07.21-.2.32-.28.4-.39,1.35-1.76,3.17-2.27,5.28-2.03.41.05.82.14,1.21.26,1.25.39,2.09,1.21,2.54,2.44.31.85.44,1.73.45,2.62.03,3.06.01,6.12.02,9.18,0,.06-.02.12-.05.31Z"/>
      <path d="M142.97,20.06c-1.24.03-2.45.03-3.73,0-.03-.26-.07-.47-.07-.69,0-6.23,0-12.45,0-18.68,0-.2.03-.4.05-.64h3.75c.02.2.06.39.06.59,0,6.27,0,12.54,0,18.8,0,.18-.03.36-.06.62Z"/>
    </g>
  </g>
</svg>