<?xml version="1.0" encoding="UTF-8"?>
<svg id="_Слой_2" data-name="Слой 2" xmlns="http://www.w3.org/2000/svg" viewBox="0 0 130.41 55.62">
  <g id="_Слой_1-2" data-name="Слой 1">
    <g>
      <path d="M46.86.29l.29.49-9.78,47.9c-2.19,4.67-7.01,6.37-11.92,6.65-5.43.31-13.41.4-18.79.01C3.04,55.08.23,52.9,0,49.11c-.08-1.38,1.74-10.12,2.25-11.73.1-.33.21-.6.49-.82h16.06c.12,2.32-2.07,7.67-1.43,9.62.56,1.71,4.05.7,4.28-.98L30.59.67c.05-.13.69-.37.77-.37h15.51Z"/>
      <g>
        <path d="M69.47,19.08l1.73-8.66c.06-1.76-2.33-1.54-3.59-1.39-1.9.22-2.42,2.64-2.51,4.26-.57,9.53,16.54,16.18,15.92,26.19-.51,8.26-4.45,15.3-13.4,15.87-5.49.35-13.77.37-19.24,0-2.78-.19-5.44-1.18-6.52-3.97-1.42-3.67,1.67-10.85,2.05-14.83h15.95l-1.73,8.66c-.06,1.76,2.33,1.54,3.59,1.39s1.61-.64,2.01-1.7c4.12-11-16.52-18.03-15.39-29.15.83-8.12,4.51-14.9,13.36-15.47,5.47-.35,14.02-.41,19.46,0,2.44.18,5.11,1.31,6.16,3.67,1.74,3.92-1.51,10.55-1.73,14.76l-.29.37h-15.84Z"/>
        <path d="M90,9.25l1.74-8.59.83-.31c12.36-.06,24.77-.24,37.09.16.3,0,.5-.14.76-.23l-1.73,8.86-11.15.1-9.29,46.09h-16.27l9.17-46.09h-11.14Z"/>
      </g>
    </g>
  </g>
</svg>