<?xml version="1.0" encoding="UTF-8"?>
<svg id="_Слой_2" data-name="Слой 2" xmlns="http://www.w3.org/2000/svg" viewBox="0 0 194.32 41.7">
  <defs>
    <style>
      .cls-1 {
        fill: #231f20;
      }
    </style>
  </defs>
  <g id="_Слой_1-2" data-name="Слой 1">
    <g>
      <path id="Wortmarke_pos" data-name="Wortmarke pos" class="cls-1" d="M135.37,34.73h8.34l-5.94-10.28c3.31-1.37,5.14-4.11,5.14-7.54,0-5.26-3.43-8.68-10.28-8.68h-13.14v26.5h7.2v-9.25h3.66l5.03,9.25h0ZM135.6,16.91c0,1.83-1.26,3.2-4,3.2h-5.03v-6.4h5.03c2.74,0,4,1.37,4,3.2h0ZM106.59,15.65v8.45c0,3.88-1.83,5.14-4.34,5.14s-4.34-1.37-4.34-5.14v-8.57h-7.31v8.91c0,6.97,3.88,10.85,11.77,10.85s11.65-3.88,11.65-10.74v-8.91h-7.43ZM97.9,13.25v-5.03h-7.31v5.03h7.31ZM106.59,13.25h7.31v-5.03h-7.31v5.03h0ZM60.2,25.82l-3.77-17.59h-7.31l6.74,26.5h7.77l4.57-17.36,4.57,17.36h7.77l6.74-26.5h-7.31l-3.77,17.59-4.57-17.59h-6.85l-4.57,17.59h0ZM186.9,17.71h-8.91v-9.48h-7.31v26.5h7.31v-11.08h8.91v11.08h7.43V8.23h-7.43v9.48h0ZM152.4,14.05v20.79h7.31V14.05h6.85v-5.83h-21.02v5.83h6.85Z"/>
      <path class="cls-1" d="M38.04,16.34H0V0h15.88v6.4h6.4V0h15.88v16.34h-.11ZM22.16,35.3v6.4c9.14-1.71,15.88-9.6,15.88-18.51v-.34H0v.34c0,8.8,6.74,16.68,15.88,18.39v-6.4h6.28v.11Z"/>
    </g>
  </g>
</svg>