<?xml version="1.0" encoding="UTF-8"?>
<svg id="_Слой_1" data-name="Слой 1" xmlns="http://www.w3.org/2000/svg" viewBox="0 0 150.56 218.98">
  <path d="M7.23,0h104.94s38.39,38.03,38.39,38.03l-.24,173.06c-1.79,4.99-5.94,6.38-10.9,6.81-41.02-2.68-86.33,3.44-126.84,0-8.28-.7-11.85-4.15-12.59-12.57V11.42C.21,6.67,2.33,1.58,7.23,0ZM109.1,3.54H7.96c-.34,0-3.17,3.18-3.49,3.97l-.75,197.83c.57,6.29,2.64,8.29,8.86,8.86,40.26,3.66,86.02-2.88,126.86,0,2.54.84,7.88-3.04,7.88-5.17V41.74h-30.29c-3,0-7.92-6.16-7.92-8.85V3.54ZM144.52,38.02l-31.69-31.68v26.56c0,1.1,4.03,5.13,5.13,5.13h26.57Z"/>
  <path d="M18.68,106h113.72v48.55H18.68v-48.55ZM22.41,109.77v11.18h106.27v-11.18H22.41ZM128.67,124.68H22.41v11.18h106.26v-11.18ZM128.67,139.59H22.41v11.18h106.26v-11.18Z"/>
  <rect x="18.69" y="92.06" width="113.71" height="3.73"/>
  <rect x="18.69" y="77.11" width="113.72" height="3.78"/>
  <path d="M18.68,56.65h45.21l1.39,1.41-1.39,2.32H20.08c-.99,0-1.77-2.64-1.4-3.73Z"/>
  <path d="M55.5,171.27c2.07.33,2.8,1.71,2.33,3.73H20.08l-1.39-1.41,1.39-2.32c10.77,1.22,25.12-1.65,35.42,0Z"/>
  <path d="M132.4,175h-37.75c-.5,0-1.93-2.04-1.39-2.79,1.42-.24,2.72-.81,4.18-.95,7.51-.69,24.41-.89,31.75-.04,2.75.32,3.57.77,3.21,3.78Z"/>
</svg>