<?xml version="1.0" encoding="UTF-8"?>
<svg id="_Слой_1" data-name="Слой 1" xmlns="http://www.w3.org/2000/svg" viewBox="0 0 210.22 222.37">
  <path d="M22.63,20c1.92-9.02,19.15-6.94,25.89-7.01-.68-6.5,2.86-10.86,9.27-11.77,37.05,2.41,78.9-3.55,115.39-.14,6.15.57,10.52,2.49,11.31,9.18l.02,93.28c17.3.3,15.25,16.39,15.06,29.16,6.11-.79,9.49,2.22,10.65,8.05l-23.59,75.54c-3.26,4.35-7.3,4.53-12.36,4.9-51.26,3.72-106.95-2.91-158.68,0-9.96-.85-13.5-3.31-14.51-13.53-3.31-33.24,2.37-71.79.08-105.6,2.04-11.83,11.34-12.19,21.48-11.42V20ZM52.84,12.99h92.25c6.53,0,9.39,15.44,8.09,20.5,4.61-1.3,19.43.93,19.43,7.01v92.22h7.56c-2.15-15.13,3.45-119.29-1.53-125.21-1.13-1.35-2.54-2.15-4.35-2.12l-118.17.62c-2.54,1.67-3.74,3.86-3.26,6.99ZM26.94,21.08v73.88c-3.68-.55-21.58-.4-21.58,4.85v99.77l21.53-72.86,6.5-9.68c1.82-25.34-2.33-53.79-.02-78.75.57-6.1,2.1-10.24,9.16-10.26l83.99.27,36.36,35.91v68.49h5.39V41.57c0-4.66-16.21-3.94-19.41-3.78-2.55-7.8,2.93-19.16-7.13-20.35-33.38-3.95-73.69,2.7-107.81-.16-1.92-.26-6.54,2.22-6.99,3.8ZM122.97,32.4H40.43c-.19,0-2.7,2.51-2.7,2.7v82.51h42.62c6.23,0,11.79,11.61,16.18,15.1h63.12v-64.71h-29.67c-1.38,0-7.01-5.63-7.01-7.01v-28.58ZM127.28,35.64v25.35c0,.25,3.37,2.7,3.78,2.7h25.35l-29.13-28.04ZM195.25,132.71v-16.72c0-3.72-6.62-9.38-10.79-8.09v24.81h10.79ZM183.08,214.38l22.79-72.77c.33-4.1-2.54-4.33-5.71-4.65-32.23-3.2-69.7,2.58-102.49,0-10.6-1.95-9.28-14.06-20.52-15.08-8.86-.8-29.21-1-37.84.03-2.76.33-5.43,1.43-7.48,3.3L6.65,212.2c-.05,3.13,5.28,4.98,7.84,4.69,51.8-3.62,109.8,4.63,160.86,0,2.26-.2,6.17-.93,7.74-2.52Z"/>
  <rect x="55" y="98.19" width="86.31" height="4.31"/>
  <rect x="55" y="80.94" width="86.31" height="4.31"/>
</svg>