<?xml version="1.0" encoding="UTF-8"?>
<svg id="_Слой_1" data-name="Слой 1" xmlns="http://www.w3.org/2000/svg" viewBox="0 0 172.39 221.72">
  <path d="M148.48,168.15h2.81c.22,11.45.05,22.85-.03,34.32-.01,1.82.79,3.55.76,5.37-.15,9.34-4.63,12.32-13.37,12.95-40.98,2.96-85.51-2.29-126.86-.05-5.65-.69-10.07-2.38-11.34-8.39L0,11.73C.19,5.51,3.66,1.49,9.86.92c31.9-2.94,68.24,2.33,100.62,0l2.82.94,38.74,39.22.23,51.51-1.04,6.54.05,20.19h-2.81V43.23h-31.47c-1.36,0-7.05-4.97-7.05-6.11V4.72l-102.39.49-3.29,3.29-.29,203.12c.85,3.13,3.57,5.3,6.83,5.39l128.78.03c3.23.57,8.88-3.04,8.88-6.16v-42.74ZM145.66,39.47L112.78,7.54v25.83c0,1.6,3.53,6.11,5.17,6.11h27.72Z"/>
  <path d="M167.27,134.34c-.92-1.04-4.44,2.98-5.18,3.74-13.69,14.28-26.8,34.45-40.86,47.44-1.91,1.76-14.22,8.94-15.97,8.44l-15.02-15.02,1.4-2.31,13.16,12.17,4.97-10.98,51.95-59.84c4.68-3.26,11.68,1.1,10.56,6.77-.45,2.29-2.84,4.58-2.98,5.52-.16,1.05,1.45,2.25,1.71,3.64,1.47,7.7-12.61,17.46-16.39,23.93l-3.31-.51c-.93-3.74,18.67-19.93,15.97-22.99ZM168.13,121.27c-1.21-.73-3.82.05-5.14.81-2.36,1.36-9.68,10.4-12.17,13.18-10.78,12.05-26,28.2-35.19,40.9-2.68,3.7-5.11,6.92-5.65,11.71,5.06-1.84,8.11-4.69,11.75-8.44,13.44-13.86,30.58-34.14,42.71-49.35,1.25-1.57,6.23-7.29,3.7-8.81Z"/>
  <path d="M44.66,201.02c-1.86.52-4.1,8.13-9.18,7.36-3.33-.5-5.43-4.53-3.5-7.35h-10.34s0-3.76,0-3.76c.4-.42,8.46.44,10.62-.2,1.74-.52,4.08-4.09,5.85-5.42,2.32-1.75,6.74-3.86,8.37-5.72,2.17-2.48,7.22-16.63,5.23-18.72-5.52.18-11.6,8.17-12.74,13.08-.92,3.92,1.29,6.75-.89,9.46-10.42-5.93,6.37-30.26,14.92-25.24,6.77,3.97-1.52,17.16-.33,18.67,3.91-3.49,10.22-.35,7.51,4.69,1.72.47,2.72-1.45,4.21-1.52,2.22-.1,4.01,2.65,6.37,2.33,3.62-.49,9.72-7.18,14.78-2.22-2.26,2.64-5.94,2.24-8.96,3.24-2.76.91-5.38,3.35-8.33,2.88-1.39-.22-2.49-1.82-3.68-1.74-2.39.16-4.62,4.93-8.13,3.6-.61-2.9.54-5.43.9-8.04.41-2.94-6.59,1.07-7.23,1.71-1.16,1.15-3.36,7.15-4.01,9.14h83.62v3.76H44.66ZM44.19,192.58l-6.58,4.68c3.8.63,5.33-1.51,6.58-4.68ZM39.5,201.03h-4.7s0,3.74,0,3.74c.84.97,4.5-2.66,4.69-3.74Z"/>
  <rect x="21.64" y="77.04" width="108.98" height="3.76"/>
  <rect x="21.64" y="93.95" width="108.98" height="3.76"/>
  <rect x="21.64" y="60.13" width="108.53" height="3.76"/>
  <rect x="21.63" y="126.76" width="108.54" height="3.81"/>
  <rect x="21.17" y="110.85" width="109" height="2.82"/>
  <rect x="21.64" y="143.68" width="60.14" height="3.81"/>
</svg>