<?xml version="1.0" encoding="UTF-8"?>
<svg id="_Слой_1" data-name="Слой 1" xmlns="http://www.w3.org/2000/svg" viewBox="0 0 215.08 239.85">
  <path d="M162.34,36.57c-.58-2.69-5.76-7.19-8.91-6.85H38.85c-7,.84-9.08,4.64-9.84,11.17-2.65,22.59.66,52.35.72,75.52.07,24.83-1.94,52.52-.93,76.69.32,7.59.55,16.72,10.05,17.36l117.97-.82,2.95-2.31c2.23-.77,2.83-9.57,5.19-8.44,4.32,2.06-.5,10.53-3.11,12.62-4.61,3.69-10.8,3.24-16.32,3.12-.55,5.96-.66,15.84-2.31,21.33-1.07,3.56-6.49,4.78-9.66,2.72-4.29-2.78-2.11-8.84-2.79-12.97-.47-2.87-3.16-6.87-2.65-11.1h-9.91c1.37,4.8-1.39,8.4-2.04,12.15-.78,4.5,1.62,12.59-5.91,13.06-8.65.54-6.02-9.3-6.8-14.11-.49-2.99-3.63-6.58-2.05-11.08h-10.52c1.37,4.79-1.4,8.38-2.04,12.14-.79,4.58,1.54,13.62-6.81,13.07-7.93-.52-5.14-8.21-5.91-13.06-.58-3.67-3.45-7.39-2.04-12.14h-10.52c1.58,4.51-1.56,8.1-2.05,11.08-.71,4.38,1.76,11.81-4.21,13.7-11.68,3.7-9.98-17.91-10.54-24.79-13.13,1.82-23.51-4.68-22.07-18.91-4.4,1.27-7.62-1.43-11.09-2.04-5.21-.92-13.29,1.81-13.14-6.84.2-11.35,23.59-4.96,25.13-9.64.45-1.37.45-5.7,0-7.06-.94-2.86-5.28-1.27-7.67-1.78-1.97-.42-3.47-1.68-5.37-1.99-5.58-.9-13.73,2.4-12.04-7.88,1.06-6.46,8.05-4.13,12.04-4.84s8.02-3.44,13.19-2.04v-9.47s-21.8-2.89-21.8-2.89c-4.34-1.57-4.61-8-1.6-10.8,3.22-2.99,17.18-2.81,22.37-3.54,1.74-1.34,1.84-9.13-.7-9.92-7.06-2.2-25.57,2.2-23.51-10.07,1.08-6.46,7.95-4.11,12.05-4.84s8.02-3.44,13.19-2.04v-8.86c-4.56.29-8.46-2.01-12.14-2.65-3.82-.66-9.3,1.35-11.92-2.79-8.2-12.95,15.91-11.43,22.87-12.1l1-8.71-1.55-1.52c-4.53.98-7.9-1.57-11.46-2.2-4.47-.8-11.71,1.74-12.14-5.83-.49-8.59,7.34-6.03,12.14-6.88,4.11-.72,8.02-3.44,13.19-2.04-2.47-14.69,7.55-20.72,21.02-18.91.12-2.56-.3-5.22.11-7.78.62-3.88,1.41-10.12,2.22-13.53C50.11-.03,53.7-.66,57.58.53c5.15,1.57,3.31,9.27,3.93,12.87s2.94,7.58,2.65,12.15h9.91c-1.4-5.19,1.32-9.1,2.04-13.2.85-4.85-1.73-12.58,6.88-12.14,7.37.38,5.07,8.7,5.84,13.19.64,3.74,3.42,7.36,2.04,12.14h10.52c-1.45-5.13,1.39-9.18,2.04-13.19.91-5.6-2.14-12.76,6.9-12.12,7.84.55,5.03,8.3,5.82,13.17.6,3.7,3.43,7.38,2.04,12.14h10.52c-1.59-4.9,1.46-8.76,2.05-12.13,1.06-6.12-1.85-14.8,8.77-12.84,5.68,1.05,3.26,7.55,3.94,11.78.65,4.01,3.49,8.06,2.04,13.19,13.61-2,22.99,4.49,21.02,18.91,5.18-1.4,9.09,1.32,13.19,2.04,5.99,1.06,13.69-1.82,11.79,8.77-1.06,5.9-8.54,3.18-12.84,3.94-1.54.27-2.67,1.64-4.3,2-2.13.48-6.1-.79-7.37,1.03l-.46,8.47c4.66,1.09,20.46,1.44,23.09,3.71,2.77,2.39,2.85,7.21.52,9.91-2.93,3.4-7.77,1.55-11.47,2.19-1.96.34-3.45,1.73-5.36,1.99-2.85.4-9.21,1.37-10.98-.47v-51.47ZM57.16,4.65c-.96-1.53-4.24-.82-4.93,1.68-.88,3.15.3,7-.27,10.23-.43,2.46-3.62,4.75-1.6,8.01l9,.98c1.38-4.43-1.69-7.51-2.16-10.98-.32-2.33.7-8.73-.05-9.91ZM84.48,4.65c-6.89-3.1-4.59,7.56-5.2,11.91-.33,2.34-3.69,4.78-1.6,8l9.01.98c.33-7.3-3.37-13.22-2.21-20.89ZM111.8,4.65l-2.55-.9c-4.82,2.48-1.74,8.22-2.04,11.85-.22,2.56-2.9,6.3-1.61,9.94h8.42c.1-7.25-3.39-13.13-2.21-20.89ZM141.33,25.54c-.72-3.22.18-23.13-4.72-22.06-2.98,2.69-1.09,7.33-1.65,10.97-.52,3.36-3.37,6.76-2.05,11.09h8.42ZM25.74,57.05c2.32-16.06-12.14-3.78-21.02-6.3l.16,4.03c2.93,2.17,5.87-.11,8.69.16,3.18.3,7.64,3.73,12.18,2.11ZM187.56,50.75l-21.03-2.11v8.41c7.34.38,13.31-3.51,21.03-2.11v-4.19ZM24.56,75.04c-3.57-1.62-6.4,1.53-8.86,1.92-2.81.45-12.65-1.62-10.97,3.72.84,2.67,8.41,1.23,10.97,1.64,2.33.37,4.93,3.3,8.3,2.11,1.99-.5,1.57-7.84.56-9.38ZM168.27,75.02c-2.25.75-2.25,8.48,0,9.23,3.32,1.1,5.55-1.54,8.31-1.93,2.56-.36,10.14.99,10.97-1.64,1.67-5.3-8.13-3.32-10.97-3.72s-4.99-3.03-8.31-1.93ZM25.74,110.63c1.07-13.07-4.05-7.55-11.09-6.36-3.58.61-14.04-1.55-8.18,5.14l19.27,1.22ZM24.69,128.48c-3.48-.99-6.14,1.62-8.99,2.05s-12.64-1.59-10.97,3.72c.84,2.66,8.58,1.26,10.97,1.64s5.29,3.41,8.99,2.05v-9.46ZM4.72,162.1c8.27-3.12,23.75,10.34,20.87-4.58-1.58-4.77-16.47,2.77-20.87.39v4.19ZM18.16,183.42c-3.43.15-14.88-.19-13.43,4.41.83,2.63,7.68,1.24,9.92,1.63,2.57.45,9.98,5.45,11.1-.59,1.31-7.03-2.83-5.67-7.6-5.45ZM59.37,214.62h-8.42c.78,3.92-.12,20.22,3.7,21.01,4.52-.93,2.09-7.63,2.56-11.08.44-3.27,3.37-5.91,2.16-9.93ZM86.69,214.62h-8.42c.52,5.81,1.37,11.56,2.07,17.37.14,1.17.29,3.35,1.63,3.63,3.8.8,2.32-7.77,2.69-9.89.64-3.68,2.91-6.99,2.03-11.11ZM114.01,214.62h-8.42c.39,3.14.96,20.38,3.7,21.01,3.78.86,2.33-7.83,2.69-9.89.64-3.68,2.91-6.99,2.03-11.11ZM141.33,214.62h-8.42c-1.21,4.02,1.72,6.66,2.16,9.93.37,2.78-1.31,9.87,1.53,11.08,2.46,1.04,3.03-.81,3.38-2.87.93-5.48.66-12.46,1.35-18.14Z"/>
  <path d="M152.88,84.36c-6.54-1.28-3.59-10.82-4.2-15.76h-15.24c-2.02,0-15.97,22.69-23.62,11.03,2.48-2.98,6.26-.7,9.42-2.12,2.35-1.06,12.09-13.11,13.15-13.11h16.29v-15.23c0-1.83-5.04-5.78-6.83-5.78h-26.8c.5,3.18-.72,7.98-.02,10.82.3,1.22,5.9,2.1,5.27,8.51-1.07,10.82-19.66,5.33-13.54-5.05,1.13-1.92,3.88-2.53,4.11-3.47.7-2.84-.53-7.65-.02-10.82h-12.62v22.59c0,1.07,5.75,3.21,5.26,8.3-.87,9.06-13.37,8.91-14.73,1.1-1.05-6.06,5.26-8.28,5.26-9.4v-22.59h-22.07l.17,10.86c.75,2.2,8.3,5.19,9.69,8.03,2.46,5.05-1.52,15.94-.4,21.57.69,3.51,8.02,3.98,5.88,11.05-2.88,9.48-18.72,5.98-13.58-6.09.74-1.75,2.82-1.75,3.56-2.77,1.74-2.37,1.66-21.02-.36-23.44-1.13-1.36-8.8-4.92-9.17-6.29l.02-12.91h-17.34c-3.39,0-7.88,5.69-7.88,8.93v45.7c2.98-.36,7.03.66,9.79-.19s1.79-5.52,8.58-5.13c12.84.74,5.76,20.21-4.68,13.14-1.57-1.06-1.87-3.4-2.86-3.65-2.82-.7-7.66.53-10.83.02l.99,11.1c11.93.96,23.41-.44,35.32.41,1.88.13,3.4-.28,4.66,1.63-2.42,3.92-4.55,1.5-7.81,1.53-9.01.09-21.05-1-29.52,0-1.53.18-2.7.13-3.62,1.63v15.23c2.97-.39,7.12.69,9.84-.18,1.83-.58,2.52-5.32,8.51-5.16,5.54.15,5.5,4.49,7.56,5.18,1.79.6,9.55-1,8.76,2.77-.54,2.56-6.79,1.09-8.76,1.75s-2.1,5.16-7.52,5.14c-5.59-.01-6.44-5.05-7.56-5.33-2.83-.7-7.65.53-10.82.02v49.9c0,2.09,4.98,8.93,6.83,8.93h18.39c.51-3.85-.84-9.37.22-12.92.82-2.74,7.16-6.09,7.98-8.83.67-2.26-.46-13.81.75-13.97,5.25-.7,4.18,10.54,3.61,14.13-.85,5.4-7.17,7.56-8.13,10.78s.18,7.51-.22,10.81h39.93v4.2h-61.47c-4.14,0-11.21-6.46-11.06-11.01l-.03-138.74c-.23-6.21,6.34-11.36,12.11-12.05,28.24,1.85,59.39-2.38,87.28-.01,4.28.36,14.15,4.04,14.15,8.97v36.24ZM116.42,61.47c0-1.92-1.56-3.47-3.47-3.47s-3.47,1.55-3.47,3.47,1.56,3.47,3.47,3.47,3.47-1.55,3.47-3.47ZM99.51,73.86c0-1.86-1.51-3.37-3.37-3.37s-3.37,1.51-3.37,3.37,1.51,3.37,3.37,3.37,3.37-1.51,3.37-3.37ZM82.37,89.73c-5.18-3.23-8.02,8.13-1.89,6.73,3.64-.83,3.54-5.7,1.89-6.73ZM63.82,99.96c0-1.8-1.46-3.25-3.25-3.25s-3.25,1.46-3.25,3.25,1.46,3.25,3.25,3.25,3.25-1.46,3.25-3.25ZM63.78,135.84c0-1.86-1.51-3.37-3.37-3.37s-3.37,1.51-3.37,3.37,1.51,3.37,3.37,3.37,3.37-1.51,3.37-3.37Z"/>
  <path d="M129.53,88.86c50.92-5.74,79.04,53.87,46.62,91.44,1.6,6.95,9.07,7.06,12.42,9.68,8.08,6.35,16.8,22.28,25.13,29.5,5.57,10.71-6.79,21.33-17.76,10.4-5.23-5.21-17.66-18.97-21.44-24.78-3.29-5.06-2.86-11.43-8.64-15.6-10.01,3.97-17.87,8-29.08,7.92-68.51-.52-72.67-101.18-7.24-108.56ZM186.18,142.93c0-27.58-22.36-49.94-49.95-49.94s-49.95,22.36-49.95,49.94,22.36,49.94,49.95,49.94,49.95-22.36,49.95-49.94ZM178.25,192.41c-.45-.4-3.32-8.42-5.92-9.28l-3.66,3.66c0,.6,6.28,5.69,7.25,7.53,1.15,2.19-.19,3.95.84,6.34.65,1.52,5.53,6.8,7.11,8.74,2.87,3.53,15.16,18.45,17.82,20,5.17,3,10.52-.66,8.81-6.64s-21.04-22.02-24.44-29.2c-1.75-1.97-6.84-.27-7.81-1.13Z"/>
  <path d="M76.17,152.64c-2.72.21-5.77-.64-8.38.55-.64.29-9.69,9.34-9.98,9.98-.83,1.84-1,6.92-.37,8.74.57,1.65,3.67,2.31,4.96,4.48,4.98,8.36-8.71,16.3-13.3,6.97-3.57-7.26,3.99-8.85,4.87-11.46,1.46-4.33-2.23-6.41,2.41-13.31,1.04-1.55,8.99-9.34,10.23-9.7,3.8-1.1,10.64-1.61,9.56,3.75ZM59.1,180.25c0-1.88-1.52-3.4-3.4-3.4s-3.4,1.52-3.4,3.4,1.52,3.4,3.4,3.4,3.4-1.52,3.4-3.4Z"/>
  <path d="M179.2,142.93c0,23.77-19.27,43.04-43.05,43.04s-43.05-19.27-43.05-43.04,19.27-43.04,43.05-43.04,43.05,19.27,43.05,43.04ZM174.99,142.91c0-21.41-17.36-38.77-38.78-38.77s-38.78,17.36-38.78,38.77,17.36,38.77,38.78,38.77,38.78-17.36,38.78-38.77Z"/>
  <path d="M138.18,110.63v3.14c-18.03.52-29.98,12.98-30.39,30.9l-3.24.62c-2.37-19.21,14.05-37.05,33.63-34.67Z"/>
</svg>