<?xml version="1.0" encoding="UTF-8"?>
<svg id="_Слой_1" data-name="Слой 1" xmlns="http://www.w3.org/2000/svg" viewBox="0 0 236.32 134.62">
  <path d="M199.83,18.67c.34-.39,7.75-2.26,9.9-3.2,1.54-.67,5-1.19,5.05-3.03-10.54-1.9-18.24-.78-28.39,2.13-43.69,12.5-87.9,34.69-131.89,47.61-10.86,1.2-27.63-13.49-37.46-18.3-3.63,1.47-11.94,1.06-8.92,6.32,3.38,5.88,15.33,17.61,16.94,22.99,1.73,5.79-4.2,4.42-4.47,7.12-.59,6.03,13.86,4.57,17.89,4.44,18.31-.61,38.2-3.16,55.93-7.63,5.11-1.29,9.98-3.38,15.02-4.88l1.9,3.1c-1.09,1.7-2.59,2.33-4.3,3.19-14.05,7.07-62.8,12.68-78.63,11.21-5.84-.54-13.07-2.09-12.9-9.44.07-3.18,3.71-5.26,3.41-7.21-.72-4.7-22.39-24.86-18.45-29.45,4.72.51,12.73-5.39,16.47-4.83,10.03,1.49,26.1,19.82,37.35,18.24,42.86-13.19,85.47-33.52,128.12-46.43,6.25-1.89,15.33-4.63,21.75-4.51,3.46.07,25.65,6.51,28.03,8.22,12.67,9.12-7.38,20.63-14.49,24.09-5.8,2.82-35.12,14.83-39.82,15.08-1.49.08-4.24-.45-4.22-1.82.08-4.82,57.21-18.32,57.35-29.9.03-2.9-4.68-5.12-7.2-5.35-5.05-.47-20.28,7.58-22.1,7.23-1.5-.29-2.62-4.15-1.9-4.97Z"/>
  <path d="M116.34,134.53l3.74-73.51,3.75.75-2.5,66.54c5.55-2.9,13.41-2.47,16.43-9.1,10.2-21.85,15.59-50.05,25.87-71.32.84-1.74,1.52-3.12,3.18-4.27,2.52,1.78,2.14,3.9,1.6,6.54-4.62,22.47-20.88,49.89-26.89,72.81-.54,5.14-24.2,12.61-25.18,11.58Z"/>
  <path d="M130.03,24.88c-2.02,1.93-45.93-17.14-52.3-19.43-5.22-1.11-10.33,1.99-14.99,3.86l30.55,24.28c1.55,3.26.95,4.4-2.49,3.75-6.77-1.29-27-23.07-35.26-26.41-.51-.9-.61-2.99-.35-3.95.32-1.16,19.79-8.37,22.8-6.75,14.1,8.05,36.76,11.74,49.9,19.93,1.78,1.11,3.39,3.51,2.13,4.71Z"/>
</svg>