<?xml version="1.0" encoding="UTF-8"?>
<svg id="_Слой_1" data-name="Слой 1" xmlns="http://www.w3.org/2000/svg" viewBox="0 0 842.29 401.11">
  <defs>
    <style>
      .cls-1 {
        fill: #d6000f;
      }

      .cls-2 {
        fill: #333;
      }
    </style>
  </defs>
  <path class="cls-1" d="M420.78,241.96h-119.66c-1.03.11-1.66-.17-1.49-1.37.06-.4,0-.86,0-1.32v-115.89c0-2.06.57-3.55,2.06-5.03,39.24-39.13,78.42-78.31,117.6-117.49,1.14-1.14,2.27-1.14,3.37,0,39.3,39.3,78.59,78.54,117.89,117.78,1.26,1.26,1.83,2.52,1.83,4.29v116.98c0,2.29.23,2.06-1.83,2.06h-119.26c.8-.86,1.37-1.49,1.94-2.06,39.01-38.95,77.96-77.96,116.92-116.92.57-.57,1.03-1.32,1.54-1.94-.8-.06-1.6-.23-2.46-.23h-236.41c-.86,0-1.66.11-2.52.17.57.69,1.03,1.49,1.66,2.12,38.95,39.01,77.96,77.96,116.92,116.92.51.51,1.03,1.09,1.83,1.94h.06Z"/>
  <path class="cls-2" d="M682.82,326.04c-.57,1.77-1.03,3.09-1.43,4.46-6.35,22.14-12.76,44.22-19.11,66.35q-.69,2.29-3.2,2.29h-33.58q-1.6,0-1.2-1.54c.8-2.92,1.66-5.78,2.46-8.64,10.3-35.69,20.59-71.39,30.95-107.08.46-1.53,1.45-2.29,2.97-2.29h51.19c2.4,0,2.35,0,2.52,2.46.97,13.79,1.94,27.57,2.92,41.36.63,8.41,1.2,16.87,1.77,25.28,0,.4.06.86.4,1.32.4-1.32.86-2.69,1.26-4,6.23-21.56,12.47-43.13,18.59-64.69.4-1.32.92-1.77,2.29-1.77,11.33.06,22.65,0,33.98,0,1.94,0,2,0,1.43,2-8.24,28.43-16.42,56.86-24.65,85.29-2.92,10.07-5.83,20.19-8.75,30.26-.38,1.37-1.28,2.06-2.69,2.06h-51.6q-2.06,0-2.17-2c-.86-13.5-1.72-27-2.52-40.56-.63-10.01-1.26-20.02-1.89-30.55h.06Z"/>
  <path class="cls-2" d="M32.5,399.38H1.56q-1.77,0-1.26-1.72c8.07-28.03,16.19-56,24.25-84.03,3.09-10.7,6.23-21.39,9.27-32.15.4-1.43.97-2,2.57-2,17.33.06,34.72,0,52.05.06,9.27,0,18.48.74,27.34,3.78,3.03,1.03,6.01,2.35,8.81,3.89,8.98,5.15,13.56,13.27,14.7,23.4,1.14,10.24-.97,20.08-3.89,29.8-3.37,11.21-8.24,21.62-15.56,30.83-10.93,13.67-25.17,21.79-42.1,25.57-8.35,1.89-16.87,2.46-25.4,2.52h-19.79l-.06.06ZM57.67,371.52c8.75-.17,15.79-3.72,20.76-10.98,1.32-1.89,2.46-3.83,3.49-5.89,3.89-7.84,6.46-16.19,8.24-24.71.92-4.52,1.66-9.04.86-13.61-.8-4.63-3.37-7.72-7.95-8.81-2.63-.63-5.38-.69-8.07-.8-2.29-.11-2.29,0-2.92,2.23-5.66,19.68-11.38,39.41-17.1,59.09-.69,2.36.19,3.53,2.63,3.49h.06Z"/>
  <path class="cls-2" d="M347.96,331.48h28.37q1.66,0,1.2,1.54c-5.61,19.45-11.21,38.84-16.76,58.29-.34,1.09-.86,1.54-2,1.83-14.47,3.32-29,6.06-43.82,7.15-6.69.51-13.44.8-20.19.74-7.95,0-15.73-1.32-22.99-4.69-12.53-5.83-19.45-15.79-21.22-29.4-1.43-11.21.86-21.97,4.35-32.49,6.64-19.96,18.82-35.46,37.35-45.76,10.35-5.72,21.45-8.92,33.18-10.24,7.55-.86,15.16-1.09,22.77-.4,6.86.63,13.61,1.94,19.79,5.15,9.9,5.09,14.64,13.79,13.44,24.88-.29,2.69-.97,5.32-1.43,8.01-.17,1.03-.63,1.49-1.83,1.49h-39.35c-1.09,0-1.43-.29-1.43-1.43.06-5.32-2.57-8.07-8.12-8.35-6.81-.34-12.47,2.17-16.87,7.32-2.75,3.2-4.69,6.86-6.35,10.64-4.18,9.84-7.44,19.96-8.81,30.6-.34,2.75-.23,5.61.17,8.29.51,3.72,2.92,6.06,6.46,6.92,6.41,1.6,12.36,0,18.02-2.92.4-.23.74-.86.92-1.32,1.14-3.72,2.17-7.44,3.26-11.1.34-1.09.06-1.37-1.03-1.37h-12.7q-1.66,0-1.2-1.6c1.94-6.75,3.89-13.44,5.78-20.19.34-1.32.92-1.77,2.35-1.77,9.55.06,19.05,0,28.6,0l.11.17Z"/>
  <path class="cls-2" d="M548.85,401.04c-8.01-.11-16.25-.8-24.08-4.06-12.98-5.38-19.73-15.27-21.16-29.06-1.2-11.38,1.32-22.19,4.8-32.89,4.35-13.21,10.87-25.23,20.76-35.18,12.01-12.07,26.6-19.16,43.47-21.39,9.55-1.32,19.16-1.32,28.66.51,4.52.86,8.87,2.23,12.93,4.4,10.93,5.89,16.47,15.33,17.68,27.46,1.03,10.24-.92,20.08-3.83,29.8-3.6,11.95-8.81,23.11-16.76,32.83-11.15,13.61-25.4,21.97-42.56,25.51-6.41,1.32-12.87,1.83-19.73,2l-.17.06ZM550.51,360.14c0,.86-.06,1.72,0,2.57.4,4.63,3.15,7.32,7.84,7.38,3.66.06,6.86-1.26,9.55-3.72,2.52-2.29,4.29-5.15,5.72-8.24,4.12-8.52,6.81-17.56,9.09-26.71,1.26-4.98,2.4-10.01,2.17-15.22-.23-4.69-2.97-7.32-7.66-7.49-5.43-.23-9.61,2.17-12.58,6.46-1.66,2.4-3.03,4.98-4.23,7.66-3.2,7.09-5.38,14.59-7.32,22.14-1.32,4.98-2.46,10.01-2.57,15.22v-.06Z"/>
  <path class="cls-2" d="M401.62,360.77h19.79c1.66,0,1.6,0,1.32,1.6-.29,1.49-.69,2.97-.69,4.46-.11,3.55,1.54,5.66,4.98,6.46,4,.92,8.01.63,11.67-1.43,3.83-2.12,5.66-5.55,6.01-9.78.23-2.86-.8-4.69-3.55-5.72-4.63-1.72-9.32-3.09-14.01-4.63-5.78-1.89-11.61-3.6-17.33-5.66-3.78-1.37-7.21-3.43-10.24-6.12-5.32-4.69-7.44-10.64-6.64-17.56,1.89-15.73,10.3-27.11,23.91-34.89,7.95-4.52,16.53-7.09,25.51-8.47,8.98-1.37,17.96-1.66,27-.86,6.18.57,12.18,1.66,17.85,4.29,5.66,2.63,10.07,6.58,11.95,12.76,1.32,4.29,1.03,8.64,0,12.98-.34,1.6-.46,3.66-1.54,4.52-.92.8-2.97.34-4.58.34h-33.75c-.92.06-1.03-.34-.97-1.14.11-1.09.17-2.17.11-3.2-.11-3.32-1.66-5.32-4.86-5.89-3.95-.74-7.72-.23-10.98,2.29-.46.34-.92.69-1.26,1.14-4.06,4.69-3.49,8.75,1.72,11.33,2.63,1.32,5.55,2.23,8.47,3.03,7.78,2.17,15.56,4.29,22.94,7.72,2.46,1.14,4.86,2.46,7.15,3.95,7.38,4.63,10.07,11.55,8.92,19.91-2.06,15.5-10.01,27.51-22.88,36.27-9.78,6.64-20.65,10.3-32.38,11.78-9.21,1.2-18.42,1.14-27.69,0-5.95-.74-11.67-2.12-17.05-4.8-10.7-5.38-15.16-14.59-12.81-26.31.46-2.4,1.32-4.69,1.89-7.04.29-1.14.86-1.43,2-1.37h20.02v.06Z"/>
  <path class="cls-2" d="M180.54,399.15h-43.47c-1.89,0-2.29.46-1.54-2.12,11.1-38.5,22.25-77.05,33.35-115.55.4-1.49,1.03-1.94,2.63-1.94h86.26c1.09-.11,1.14.4.86,1.32-.86,2.75-1.6,5.49-2.4,8.24-1.89,6.52-3.78,13.04-5.61,19.56-.34,1.32-.97,1.72-2.35,1.72-13.5-.06-26.94,0-40.44-.06-1.49,0-2.29.29-2.69,1.94-.69,3.03-1.77,6.06-2.57,9.09-.63,2.29-.63,1.94,1.43,2h35.46c.74,0,1.43.06,2.17,0,1.2-.11,1.49.29,1.14,1.43-.97,3.26-1.94,6.58-2.92,9.9-1.66,5.72-3.26,11.38-4.92,17.1-.46,1.53-1.45,2.29-2.97,2.29h-36.55c-2.57,0-2.12-.51-2.92,2.29-.92,3.15-1.83,6.29-2.75,9.5-.46,1.53.15,2.29,1.83,2.29h41.53q1.83,0,1.32,1.72c-1.54,5.43-3.15,10.87-4.69,16.3-1.09,3.78-2.23,7.55-3.2,11.33-.34,1.32-.92,1.77-2.35,1.77h-43.64v-.11Z"/>
  <path class="cls-2" d="M817.53,302.31c-13.67,0-24.71-11.1-24.71-24.71s11.21-24.77,24.77-24.71c13.61,0,24.71,11.15,24.71,24.77s-11.04,24.65-24.71,24.65h-.06ZM817.58,299.27c12.01,0,21.68-9.78,21.62-21.79,0-11.84-9.84-21.56-21.68-21.62-11.9,0-21.79,9.84-21.74,21.74,0,11.95,9.78,21.68,21.79,21.62v.06Z"/>
  <path class="cls-2" d="M809.98,291.61h-4.06c-.63,0-1.26,0-1.09-.86.06-.34.51-.8.86-.86,2.46-.51,2.57-.57,2.57-2.97v-18.7c0-2.46-.11-2.52-2.63-2.97-.34-.06-.74-.51-.86-.86-.17-.63.17-.86.8-.86,5.95.11,11.9,0,17.85.46,3.89.29,6.23,2.97,6.35,6.35.11,3.72-2,6.46-5.83,7.44-.8.23-1.72.29-2.52.4-.34,0-.63.11-.97.23.17.29.23.69.46.92,1.66,2.06,3.32,4.12,5.03,6.12,1.66,1.89,2.8,4.46,5.89,4.52.17,0,.46.63.46.97,0,.23-.4.63-.63.63-1.77,0-3.6.11-5.38,0-.51,0-1.03-.74-1.37-1.2-2.75-3.55-5.61-7.09-8.24-10.75-1.14-1.6-2.52-1.37-3.95-1.32-.23,0-.63.51-.63.86v9.04c0,.97.51,1.6,1.54,1.72.34,0,.8-.06,1.03.11.34.23.63.63.74.97,0,.17-.51.63-.8.69-1.6.06-3.15,0-4.75,0h0l.11-.06ZM811.98,270.96h.11v4.29c0,.4.46,1.03.69,1.03,3.15-.06,6.29,0,9.38-.46,2.4-.4,3.55-2.69,3.32-5.49-.17-2.35-1.49-3.89-4-4.29-1.37-.23-2.86-.23-4.29-.23-1.6,0-3.26.11-4.86.11-.11,1.66-.23,3.37-.4,5.03h.06Z"/>
</svg>