<?xml version="1.0" encoding="UTF-8"?>
<svg id="_Слой_1" data-name="Слой 1" xmlns="http://www.w3.org/2000/svg" viewBox="0 0 879.97 243.84">
  <defs>
    <style>
      .cls-1 {
        fill: #d85820;
      }
    </style>
  </defs>
  <path class="cls-1" d="M227.75,132.81c.18.12-.83,3.62,1.36,4.2,3.15.84,14.46-.93,15.32-.02v8.32c-1.42,1.46-16.65-3.51-16.7,5.2-.04,2.32,22.82-2.23,15.47,9.53-18.08,2.61-24.55,5.27-.81,7.11l2.03,7.33c-2.22,2.22-19.69-4.84-16.67,5.21l14.65,2.05,2.03,7.33c-24.04-2.83-22.91,9.25.02,6.27v8.32c-5.36,1.43-18.9-4.27-16.69,5.21l14.65,2.05,2.03,7.33-15.52-.13-1.27,6.15c-24.6.86-47.32,16.57-71.78,18.98-34.19,3.37-79.55-7.49-107.1-28.3C-66,128.31,40.69-33.92,174.02,6.3c13.02,3.93,38.96,19.39,48.89,19.57,14.83.27,19.84-16.21,31.92-20.16l2.08,100c-3.54.68-4.34-.77-5.72-3.63-3.02-6.23-5-15.95-8.48-22.78C216.9,28.75,160.08-12.17,102.77,15.12c-48.37,23.03-45.79,127.32-33.71,171.14,12.89,46.76,68.7,59.34,110.11,44.87,27.18-9.49,33.5-28.33,31.98-55.68-1.02-18.36-13.6-34.41-32.36-36.4-9.06-.96-29.02,4.54-30.22-6.25,10.95,2.16,74.84-2.84,79.18,0Z"/>
  <g>
    <path class="cls-1" d="M794.53,116.14v16.66s19.41-14.96,19.41-14.96c10.33-6.27,22.48-6.69,33.26-1.24,28.47,14.4,10.5,77.93,16.54,104.32,1.86,8.1,8.63,10.04,16.13,9.91l.09,10.34h-50.01v-107.31c0-11.14-15.49-6.49-21.94.98-11.7,13.57-14.76,66.98-10.96,84.01,1.88,8.43,10.15,12.48,18.22,11.99l.09,10.34h-68.76l.09-10.34c22.76-1.08,16.5-13.8,16.48-28.13-.02-15.33-.06-30.68,0-46.01s7.04-29.16-16.49-30.21l-.09-10.34h47.93Z"/>
    <path class="cls-1" d="M332.68,225.84c-28.77-30.28-19.91-94.77,21.7-109.13,56.94-19.65,87.63,52.36,62.62,98.04-16.53,30.2-60.6,36.07-84.32,11.09ZM368.9,122.72c-13.81,2.48-17.4,30.96-18.19,42.42-.96,14.09-.27,72.16,21.78,69.83,20.92-2.21,19.23-65.52,17.87-80.37-1.04-11.35-6.96-34.49-21.47-31.89Z"/>
    <path class="cls-1" d="M661.17,178.65c-3.52,27.37,12.19,69.87,45.71,46.75,2.4-1.66,23.85-27.02,25.08-14.48.7,7.13-17.85,24.33-24.97,27.09-73.61,28.49-111.37-78.27-54.85-115.27,43.77-28.66,84.4,9.67,79.88,55.91h-70.85ZM661.17,168.23h32.3c6.77-7,.92-38.76-6.09-43.91-19.55-14.38-28.44,32.2-26.21,43.91Z"/>
    <path class="cls-1" d="M494.47,59.88v161.49c0,9.5,20.56,5.88,14.59,19.8h-60.43l.09-10.34c12.35-.02,15.63-4.09,16.68-15.62,3.8-41.71-3.06-89.07-.06-131.41-1.87-15.99-14.92-11.63-16.6-16.74-1.21-2.19,1.42-7.18,3.02-7.18h42.72Z"/>
    <path class="cls-1" d="M575.74,74.47v41.68h31.26v12.5h-31.26v86.48c0,17.28,18.35,23.16,23.58,2.75.71-2.76,1.93-31.29,10.85-18.43,6.12,8.83-5.21,39.16-21.02,41.6-65.91,10.15-35.44-72.21-42.9-111.03l-2.97-3.22-9.96,1.7-3.51-5.07c0-6.17,13.5-10.25,18.12-14.25,9.14-7.92,16.4-22.82,19.76-34.4l8.04-.3Z"/>
  </g>
</svg>