<?xml version="1.0" encoding="UTF-8"?>
<svg id="_Слой_2" data-name="Слой 2" xmlns="http://www.w3.org/2000/svg" viewBox="0 0 150.88 51.88">
  <defs>
    <style>
      .cls-1 {
        fill: #231f20;
      }
    </style>
  </defs>
  <g id="_Слой_1-2" data-name="Слой 1">
    <g>
      <g>
        <polygon class="cls-1" points="68.65 18.15 64.26 18.15 64.26 32.52 80.87 32.52 80.87 30.46 68.65 30.46 68.65 18.15"/>
        <rect class="cls-1" x="128.19" y="18.15" width="4.65" height="14.54"/>
        <path class="cls-1" d="M24.78,18.15h-9.81v14.54h9.89c19.79,0,19.19-14.54-.09-14.54ZM25.12,30.63h-5.77v-10.41h5.85c12.73-.26,12.73,10.58-.09,10.41Z"/>
        <polygon class="cls-1" points="120.96 24.18 107.71 24.18 107.71 18.15 103.41 18.15 103.41 32.78 107.71 32.78 107.71 26.24 120.96 26.24 120.96 32.78 125.26 32.78 125.26 18.15 120.96 18.15 120.96 24.18"/>
      </g>
      <path class="cls-1" d="M92.66,18.15h0s-10.15,0-10.15,0v14.54h4.39v-5.77h5.59c12.13,0,12.13-8.78.17-8.78ZM91.88,24.95h-4.91v-4.73h4.91c6.54,0,6.62,4.73,0,4.73Z"/>
      <path class="cls-1" d="M61.86,20.65c-5.94-1.55-15.23-1.38-16.52,3.44h11.7v1.81h-11.7c1.72,7.23,16.61,4.22,16.61,4.22l.34,2.15s-21.16,3.18-21.85-7.23c.95-8.52,17.21-7.83,21.85-6.54l-.43,2.15h0ZM135.07,30.46v.26h.78v1.98h.34v-1.98h.78v-.26h-1.89ZM137.39,30.46v2.24h.35v-1.89l.69,1.89h.26l.69-1.89v1.89h.34v-2.24h-.52l-.69,1.89-.6-1.89h-.52ZM75.28,0v7.14S-10.5,5.16,1.89,31.83C1.89,31.83-18.59,4.39,75.28,0h0Z"/>
      <path class="cls-1" d="M75.62,51.88v-7.14s85.78,1.98,73.39-24.69c0,0,20.39,27.44-73.39,31.83Z"/>
    </g>
  </g>
</svg>