<?xml version="1.0" encoding="UTF-8"?>
<svg id="_Слой_2" data-name="Слой 2" xmlns="http://www.w3.org/2000/svg" viewBox="0 0 125.82 64.12">
  <defs>
    <style>
      .cls-1 {
        fill: #fff;
      }

      .cls-2 {
        fill: #010101;
      }
    </style>
  </defs>
  <g id="_Слой_1-2" data-name="Слой 1">
    <g>
      <path class="cls-1" d="M6.4,38.18l6.4,6.4,3.2-3.2,6.4,6.4,6.4-6.4v-4.2l-6.4,6.4-6.4-6.4-3.2,3.2-6.4-6.39v4.19Z"/>
      <path class="cls-1" d="M19.2,12.8l-6.4-6.4v4.2s6.4,6.4,6.4,6.4l6.4-6.4v-4.2l-6.4,6.4Z"/>
      <path class="cls-1" d="M19.2,17l-12.8,12.8L0,23.4v4.19l6.4,6.4,12.8-12.8,4.3,4.3,2.1-2.09-6.4-6.4Z"/>
      <path class="cls-1" d="M28.8,32.99l-6.4-6.4v4.19l6.4,6.4,12.8-12.8v-4.2l-12.8,12.8Z"/>
      <g>
        <path class="cls-2" d="M28.8,32.99l12.8-12.8-6.4-6.4-3.2,3.2-6.4-6.4-6.4,6.4,6.4,6.4-2.1,2.09-4.3-4.3-12.8,12.8,6.4,6.39,3.2-3.2,6.4,6.4,6.4-6.4-6.4-6.4v-4.19l6.4,6.4Z"/>
        <path class="cls-2" d="M12.8,10.6l6.4,6.4-12.8,12.8L0,23.4l12.8-12.8Z"/>
        <path class="cls-2" d="M19.2,0l6.4,6.4-6.4,6.4-6.4-6.4L19.2,0Z"/>
      </g>
      <path class="cls-2" d="M57.22,33.98h6.05v30.14h-6.05v-30.14Z"/>
      <path class="cls-2" d="M96.27,33.98h-23.86v5.2h8.88v24.94h6.1v-24.94h8.88v-5.2Z"/>
      <path class="cls-2" d="M125.82,33.98h-23.86v5.2h8.88v24.94h6.1v-24.94h8.88v-5.2Z"/>
    </g>
  </g>
</svg>