<?xml version="1.0" encoding="UTF-8"?>
<svg id="_Слой_2" data-name="Слой 2" xmlns="http://www.w3.org/2000/svg" viewBox="0 0 200.29 25.79">
  <defs>
    <style>
      .cls-1 {
        fill: #231f20;
      }
    </style>
  </defs>
  <g id="_Слой_1-2" data-name="Слой 1">
    <g>
      <g>
        <path class="cls-1" d="M72.81,5.41c.27-2.32,1.93-4.7,4.38-5.04,3.98-.56,14.88-.39,19.07-.03,1.62.14,4.13.84,5.3,2,2.55,2.53,3,11.87-1.49,13.09l-.16.47c1.42.12,3.3,2.32,3.3,3.66v6.24h-7.78v-4.59c0-1.11-1.47-2-2.47-2h-12.14v6.6h-7.66l-.35-.35V5.41ZM80.82,12.83h12.61c2.74,0,2.79-6.13,0-6.13h-12.61v6.13Z"/>
        <g>
          <path class="cls-1" d="M7.78.34v9.19h15.32v-4.59c0-1.49,2.59-4.59,4.12-4.59h3.89v25.1l-.35.35h-7.66v-9.9H7.78v9.9H0V4.23C0,2.99,2.66.34,3.89.34h3.89Z"/>
          <path class="cls-1" d="M70.46,25.79h-8.72l-2.1-4.09-15.18-.11-2.63,4.2h-8.37L45.95,2.58c.84-.84,1.77-1.96,3-2.18,1.33-.25,5.84-.22,7.26-.07.39.04.8-.07,1.02.39l13.22,25.07ZM56.55,15.19l-4.59-8.48-4.59,8.48h9.19Z"/>
        </g>
      </g>
      <g>
        <path class="cls-1" d="M151.28.34l-8.27,25.42-8.82-.2-5.65-16.98-5.8,17.17-8.95-.11-6.23-20.11c-.18-2.67,3.42-6.16,6.14-4.97l5.06,17.44c1.64-4.22,2.83-8.84,4.54-13.02C125.27.18,127.01.04,132.16.37l6.16,17.4c1.55-4.35,2.4-9.9,4.2-14.06.45-1.03,2.33-3.37,3.46-3.37h5.3Z"/>
        <path class="cls-1" d="M166.36,4.94c.79-5.9,7.46-4.54,11.73-4.54l14.42,18.09V5.17c0-1.65,2.44-4.83,4.12-4.83h3.65v25.45h-11.19l-14.96-18.38v18.38h-7.78V4.94Z"/>
        <g>
          <rect class="cls-1" x="153.4" y="8.82" width="7.78" height="16.97"/>
          <path class="cls-1" d="M161.18.34v6.36h-7.78c-.57-2.36,1.87-6.36,4.36-6.36h3.42Z"/>
        </g>
      </g>
    </g>
  </g>
</svg>