<?xml version="1.0" encoding="UTF-8"?>
<svg id="_Слой_2" data-name="Слой 2" xmlns="http://www.w3.org/2000/svg" viewBox="0 0 105.6 56.6">
  <g id="_Слой_1-2" data-name="Слой 1">
    <path d="M17.49,1.47v19.78h12.86V1.47h25.61c3.89,0,8.53,3.54,9.6,7.25.7,2.42.72,12,.36,14.68-.21,1.54-1.33,3.44-2.37,4.58-.39.43-2.05,1.62-1.99,1.97l14.84,14.65h16.65l.32-.32v-12.41l-.32-.32h-11.38c-3.64,0-7.77-5.07-8.11-8.52-.32-3.17-.29-9.64,0-12.84.32-3.69,5.02-8.72,8.76-8.72h21.61v10.52h-19.6v9.26h10.64c3.12,0,7.27,4,8.33,6.83,1.21,3.22,1.21,14.5.57,18.05-.77,4.34-4.42,7.97-8.75,8.73l-23.66-.06-23.19-22.93v-10.63h7.17v-9.26h-14.54v32.61h5.48v10.52h-16.02v-23.36h-12.86v23.36H1.26v-10.52h5.69V11.99H1.26V1.79l.32-.32h15.91Z"/>
  </g>
</svg>