<?xml version="1.0" encoding="UTF-8"?>
<svg id="_Слой_1" data-name="Слой 1" xmlns="http://www.w3.org/2000/svg" viewBox="0 0 971.95 503.09">
  <defs>
    <style>
      .cls-1 {
        fill: #d85820;
      }

      .cls-2, .cls-3 {
        fill: #333;
      }

      .cls-3 {
        fill-rule: evenodd;
      }
    </style>
  </defs>
  <path class="cls-1" d="M872.51,246.54c-7.36-7.36-17.47-11.88-28.76-11.88s-21.4,4.51-28.76,11.88h0c-7.36,7.36-11.88,17.47-11.88,28.76s4.51,21.4,11.88,28.76,17.47,11.88,28.76,11.88,21.4-4.51,28.76-11.88c7.36-7.36,11.88-17.47,11.88-28.76s-4.51-21.4-11.88-28.76ZM843.75,229.66c12.56,0,23.95,5.1,32.19,13.35s13.35,19.63,13.35,32.19-5.1,23.95-13.35,32.19c-8.24,8.24-19.63,13.35-32.19,13.35s-23.95-5.1-32.19-13.35c-8.24-8.24-13.35-19.63-13.35-32.19s5.1-23.95,13.35-32.19h0c8.24-8.24,19.63-13.35,32.19-13.35ZM491.51,326.72l24.93-43.58h221.32l-21.3,41.71-224.95,1.77v.1ZM649.04,226.03s14.72-37.2,27.38-38.96c12.66-1.77,19.92-6.58,25.81-19.04,5.89-12.46,1.57-25.81-3.44-28.56l21.1-32.39,105.7,3.44-70.17,116.5-106.39-.88v-.1ZM321.92,0c32.78,0,59.38,26.6,59.38,59.38s-26.6,59.38-59.38,59.38-59.38-26.6-59.38-59.38S289.14,0,321.92,0ZM170.48,323.49h285.31l136.91-227.6h236.14l52.41-88.33h-333.1l-146.63,226.62h-180.49l-50.54,89.21v.1ZM597.41,258.81h-78.03l99.62-155.56h78.03l-99.52,155.56h-.1ZM829.43,271.96h16c3.44,0,6.09-.39,7.95-1.08,1.96-.69,3.34-1.86,4.42-3.34.98-1.57,1.47-3.24,1.47-5.01,0-2.65-.98-4.81-2.85-6.58-1.96-1.67-5.01-2.55-9.13-2.55h-17.86v18.65-.1ZM821.97,303.37v-56.34h24.93c5.01,0,8.83.49,11.48,1.57,2.65.98,4.71,2.75,6.28,5.4,1.57,2.55,2.36,5.4,2.36,8.44,0,4.02-1.28,7.36-3.93,10.11-2.55,2.75-6.58,4.51-11.97,5.2,1.96.98,3.44,1.86,4.51,2.85,2.16,1.96,4.22,4.51,6.18,7.46l9.81,15.31h-9.32l-7.46-11.78c-2.16-3.34-3.93-5.99-5.4-7.75-1.37-1.77-2.65-3.04-3.73-3.73-1.08-.79-2.26-1.28-3.44-1.47-.88-.2-2.26-.29-4.12-.29h-8.64v25.03h-7.56ZM379.53,223.97h-78.03L445.19,2.65h78.03l-143.68,221.42v-.1Z"/>
  <polygon class="cls-2" points="800.67 381.59 907.06 381.59 907.06 405.63 839.63 405.63 839.63 427.81 901.66 427.81 901.66 451.86 839.63 451.86 839.63 477.28 907.06 477.28 907.06 501.32 800.67 501.32 800.67 381.59"/>
  <rect class="cls-2" x="715.58" y="383.85" width="41.61" height="120.23"/>
  <path class="cls-2" d="M568.65,463.05l37.39-3.44s.69,17.47,16.29,18.84c15.41,1.37,13.45-26.79,13.35-34.74-.1-7.95,0-61.44,0-61.44h37.39l-1.77,86.17c-.1,6.18-3.44,38.37-51.82,36.02-48.39-2.26-50.74-41.52-50.74-41.52l-.1.1Z"/>
  <polygon class="cls-2" points="414.57 383.85 414.57 502.7 449.41 502.7 449.41 437.82 503.29 503.09 539.01 503.09 539.01 384.63 501.92 384.63 501.92 443.81 450.78 383.35 414.57 383.85"/>
  <polygon class="cls-2" points="85 382.27 100.8 442.34 123.47 381.59 159.49 381.59 180.29 448.72 195.02 380.9 230.35 380.9 200.51 502.4 164.49 502.4 140.55 428.21 116.79 501.72 76.65 501.72 49.96 381.98 85 382.18 85 382.27"/>
  <path class="cls-3" d="M334.87,382.57h-39.36l-49.86,120.52h39.45l8.15-17.57h43.87l9.52,17.27h38.96l-50.74-120.13v-.1ZM298.17,457.85l16.78-43.77,17.37,43.28-34.15.49Z"/>
</svg>