<?xml version="1.0" encoding="UTF-8"?>
<svg id="_Слой_2" data-name="Слой 2" xmlns="http://www.w3.org/2000/svg" viewBox="0 0 171.42 128.7">
  <g id="_Слой_1-2" data-name="Слой 1">
    <g>
      <g>
        <path d="M135.16,83.59h5.19c-4.02,13.51-13.02,25.54-24.54,33.57-22.25,15.51-51.89,15.34-74.01-.31-11.45-8.1-19.97-19.9-24.23-33.27h5.12c2.31,6.08,5.27,11.87,9.25,17.02,14.84,19.24,39.81,27.55,63.37,20.93,18.41-5.17,33.94-19.73,39.86-37.95Z"/>
        <g>
          <path d="M140.35,45.11h-5.19c-5.36-16.54-18.74-30.15-34.94-36.31-26.43-10.05-56.13-.13-71.27,23.49-2.58,4.02-4.54,8.37-6.27,12.82h-5.12c4.9-15.51,15.67-28.86,29.83-36.83,22.69-12.78,50.99-10.61,71.41,5.46,10.05,7.91,17.91,19.06,21.55,31.37Z"/>
          <g>
            <g>
              <path d="M109.65,66.64c-.2,4.98,6.53,7.45,9.09,2.9h9.7c-1.88,8.3-12.77,10.3-19.82,8.13-12.9-3.97-12.16-23.38.76-27.11,10.4-3,19.55,3.72,19.97,14.47.02.5.14,1.25-.23,1.6h-19.47ZM118.97,61.14c.41-7.16-9.59-6.99-9.32,0h9.32Z"/>
              <path d="M141.42,50.76c1.17,2.15,2.4,4.31,3.89,6.26l4.35-6.26h9.16l-8.39,12.14,8.54,14.13h-10.23l-4.81-8.25-5.19,8.25h-9.09l9.29-14-8.06-12.27h10.54Z"/>
            </g>
            <g>
              <path d="M9.32,54.27c.3.07.29-.11.43-.26,4.18-4.59,10.75-5.15,15.81-1.55.84.6,1.47,1.36,2.3,1.95,4.24-5.41,14.44-6.05,18.18.17.26.44,1,1.93,1,2.36v20.08h-9.16v-17.18c0-.21-.45-1.29-.58-1.55-1.77-3.39-6.88-3.19-8.4.36-.13.29-.48,1.26-.48,1.5v16.88h-9.62v-17.49c0-1.49-2.08-3.36-3.45-3.73-2.76-.74-6.02,1.37-6.02,4.34v16.88H0v-26.27h9.32v3.51Z"/>
              <path d="M67.16,50.04c10.94-.06,17.76,7.89,14.93,18.75-3.53,13.52-26.97,13.18-29.79-.61-2.15-10.49,4.3-18.08,14.86-18.14ZM65.94,55.38c-5.22.81-5.33,9.84-4.09,13.64,1.88,5.74,8.82,5.65,10.5-.2,1.4-4.87.82-14.56-6.41-13.44Z"/>
              <rect x="85.98" y="39.31" width="9.47" height="37.72"/>
            </g>
          </g>
        </g>
      </g>
      <g>
        <path d="M171.42,44.67c0,3.3-2.67,5.97-5.97,5.97s-5.97-2.67-5.97-5.97,2.67-5.97,5.97-5.97,5.97,2.67,5.97,5.97ZM170.67,44.68c0-2.88-2.34-5.22-5.22-5.22s-5.22,2.34-5.22,5.22,2.34,5.22,5.22,5.22,5.22-2.34,5.22-5.22Z"/>
        <path d="M166.24,41.6c1.84.22,2.47,1.97,1,3.13,1.05.72.26,1.91.91,2.82l-1.46-.14c.05-2.37-.3-2.26-2.51-2.15v2.29h-1.22v-5.96c1.04.09,2.27-.12,3.28,0ZM166.58,42.85c-.37-.37-1.86-.11-2.41-.19l.07,1.54c.23.32,1.86.11,2.22-.09.41-.24.41-.97.12-1.25Z"/>
      </g>
    </g>
  </g>
</svg>