<?xml version="1.0" encoding="UTF-8"?>
<svg id="_Слой_2" data-name="Слой 2" xmlns="http://www.w3.org/2000/svg" viewBox="0 0 296.69 46.46">
  <defs>
    <style>
      .cls-1 {
        fill: #231f20;
      }
    </style>
  </defs>
  <g id="_Слой_1-2" data-name="Слой 1">
    <g>
      <path class="cls-1" d="M0,0h95.46l-5.64,2.93v19.75s-9.47,17.68-9.47,17.68l3.61,6.09L0,0Z"/>
      <path class="cls-1" d="M229.45,7.08h-.11l-5.15,9.55h10.23l-4.97-9.55ZM221.17,22.18l-2.26,5.11h-11.59L221.3.08h15.6l14.35,27.2h-11.65l-2.22-5.11h-16.2ZM156.12,7.08h-.11l-5.15,9.55h10.23l-4.97-9.55ZM147.85,22.18l-2.26,5.11h-11.59L147.97.08h15.6l14.35,27.2h-11.65l-2.22-5.11h-16.2ZM272.08.09h10.52l-10.94,11.19,13.64,16.01h-11.28l-14.22-15.98-.09,4.19v11.8h-8.48V.09h8.48v11.22h.09L272.08.09ZM288.07,27.29h8.61V.08h-8.61v27.2ZM206.75,6.34V.09h-28.75v5.73h15.9l-15.75,14.99v6.48h28.81v-5.48h-15.64l15.43-15.47ZM140.93,0h-11.01l-7.23,9.58-7.22-9.58h-11.01l13.87,18.37v8.92h8.53v-8.92L140.93,0Z"/>
    </g>
  </g>
</svg>