<?xml version="1.0" encoding="UTF-8"?>
<svg id="_Слой_2" data-name="Слой 2" xmlns="http://www.w3.org/2000/svg" viewBox="0 0 169.76 79.85">
  <g id="_Слой_1-2" data-name="Слой 1">
    <g id="layer1">
      <g id="g21271">
        <path id="path9943" d="M169.76,0H0v12h169.76V0Z"/>
        <path id="path9945" d="M169.76,67.85H0v12h169.76v-12Z"/>
        <path id="path9947" d="M60.82,23.18h-21.83v21.64c0,4.73-1.09,7.32-6.05,7.32h-12.11c-5.46,0-5.76-2.77-5.76-7.89v-6.21H1.08v9.83c0,7.83,10.09,9.18,18.78,9.18h8.38c23.24,0,24.75-3.42,24.75-13.53v-14.66c0-2.78.66-4.08,3.88-4.08h3.96v-1.6Z"/>
        <path id="path9951" d="M75.47,46.76l7.55-12.02,7.55,12.02h-15.1ZM96.51,30.56c-1.96-3.12-1.87-6.22,2.17-6.22h3.57v-1.6l-27.83.02-21.51,34.29h16.11l3.12-4.96h21.78l3.11,4.96h16.11l-16.62-26.49Z"/>
        <path id="path9955" d="M162.6,27.72c0-1.25,1.01-3.74,5.52-3.74h1.63v-1.26h-55.07v34.33h51.74v-5.76h-37.75v-8.63h34.45v-5.77h-34.45v-9.16h33.93Z"/>
      </g>
    </g>
  </g>
</svg>